<svg width="152" height="21" viewBox="0 0 152 21" fill="none" xmlns="http://www.w3.org/2000/svg">
<path d="M12.5648 0L20.3492 20.6221H15.5985L14.0239 16.0297H6.2394L4.60565 20.6221H0L7.87045 0H12.5648ZM12.8281 12.6512L10.2055 5.08497H10.1464L7.43514 12.6512H12.8281Z" fill="black" style="fill:black;fill-opacity:1;"/>
<path d="M24.9288 5.68957V8.46101H24.9879C25.1813 7.99777 25.4447 7.57179 25.7752 7.17511C26.1057 6.78109 26.4846 6.44299 26.9118 6.16344C27.3391 5.8839 27.7959 5.66826 28.2822 5.51384C28.7686 5.35943 29.2738 5.28223 29.7977 5.28223C30.0691 5.28223 30.3701 5.33016 30.7006 5.426V9.23839C30.5071 9.20112 30.2734 9.16652 30.002 9.13724C29.7306 9.10795 29.4672 9.09463 29.2146 9.09463C28.4569 9.09463 27.8147 9.21977 27.2907 9.47002C26.7667 9.72028 26.3422 10.061 26.0224 10.495C25.7026 10.929 25.4742 11.4348 25.3372 12.0125C25.2002 12.5902 25.133 13.2159 25.133 13.8894V20.6197H20.9922V5.6869H24.9288V5.68957Z" fill="black" style="fill:black;fill-opacity:1;"/>
<path d="M36.1161 0V11.0618L41.3344 5.68932H46.233L40.5471 11.1763L46.8725 20.6221H41.8584L37.7176 13.9504L36.1134 15.4812V20.6221H31.9727V0H36.1134H36.1161Z" fill="black" style="fill:black;fill-opacity:1;"/>
<path d="M47.7188 3.37845V0H51.8595V3.37845H47.7188ZM51.8595 5.68932V20.6221H47.7188V5.68932H51.8595Z" fill="black" style="fill:black;fill-opacity:1;"/>
<path d="M58.4241 5.68957V7.71024H58.4832C59.026 6.94083 59.6843 6.34449 60.4502 5.91852C61.2187 5.49521 62.0973 5.28223 63.0889 5.28223C64.0804 5.28223 64.9107 5.46592 65.698 5.83066C66.4853 6.19805 67.0819 6.84233 67.4903 7.76615C67.9364 7.11123 68.5436 6.53351 69.3121 6.033C70.0806 5.53248 70.9889 5.28223 72.0368 5.28223C72.8322 5.28223 73.5712 5.37807 74.2537 5.56976C74.9335 5.76144 75.5166 6.07026 76.003 6.49357C76.4893 6.91687 76.8682 7.47064 77.1396 8.15485C77.411 8.83906 77.548 9.6617 77.548 10.6255V20.6197H73.4073V12.1563C73.4073 11.6558 73.3884 11.1845 73.3481 10.7399C73.3078 10.298 73.203 9.91196 73.0284 9.5845C72.8537 9.25704 72.5958 8.99614 72.2545 8.80445C71.9132 8.61277 71.4537 8.51692 70.8706 8.51692C70.2876 8.51692 69.8173 8.62874 69.4572 8.84971C69.0972 9.07068 68.815 9.36087 68.6108 9.71762C68.4066 10.0744 68.2696 10.479 68.2024 10.9316C68.1352 11.3842 68.1003 11.8421 68.1003 12.3027V20.6197H63.9595V12.2441C63.9595 11.8022 63.9487 11.3629 63.9299 10.929C63.9111 10.495 63.8278 10.0957 63.6827 9.73092C63.5376 9.36619 63.2931 9.07068 62.9545 8.84971C62.6133 8.62874 62.1135 8.51692 61.4524 8.51692C61.259 8.51692 61.001 8.55951 60.6786 8.64737C60.3588 8.73522 60.0471 8.89763 59.7461 9.13724C59.4452 9.37951 59.1872 9.7256 58.9723 10.1782C58.7573 10.6308 58.6525 11.2218 58.6525 11.9539V20.6197H54.5117V5.6869H58.4187L58.4241 5.68957Z" fill="black" style="fill:black;fill-opacity:1;"/>
<path d="M80.6345 7.88551C81.0617 7.24922 81.6072 6.74072 82.2682 6.35469C82.9292 5.96866 83.6709 5.69444 84.4985 5.53204C85.3234 5.36964 86.1537 5.28711 86.9921 5.28711C87.7498 5.28711 88.5184 5.34035 89.2949 5.44684C90.0715 5.55333 90.7809 5.761 91.4231 6.06716C92.0653 6.37599 92.5893 6.80462 92.9977 7.35305C93.4061 7.90148 93.6104 8.62829 93.6104 9.53347V17.302C93.6104 17.9756 93.648 18.6225 93.7259 19.2375C93.8038 19.8552 93.9382 20.3157 94.1343 20.6246H89.9371C89.8592 20.393 89.7947 20.1587 89.7463 19.9164C89.698 19.6768 89.6631 19.4292 89.6442 19.179C88.9832 19.8525 88.2066 20.3237 87.3119 20.5953C86.4171 20.8642 85.5035 21 84.571 21C83.8509 21 83.1818 20.9121 82.5584 20.7391C81.935 20.566 81.3922 20.2971 80.9274 19.9297C80.4598 19.565 80.0971 19.1017 79.8337 18.5427C79.5704 17.9836 79.4414 17.3207 79.4414 16.5486C79.4414 15.702 79.5919 15.0045 79.8928 14.4534C80.1938 13.9049 80.5834 13.4657 81.059 13.1382C81.5346 12.8107 82.0801 12.5658 82.6928 12.4007C83.3054 12.2383 83.9208 12.1079 84.5442 12.0121C85.1649 11.9162 85.7775 11.839 86.3794 11.7804C86.9813 11.7219 87.5161 11.6367 87.9836 11.5195C88.4512 11.4051 88.8193 11.2347 89.0907 11.0137C89.3621 10.7927 89.4884 10.4706 89.4696 10.0473C89.4696 9.60535 89.397 9.25392 89.2519 8.99302C89.1068 8.73211 88.9107 8.52979 88.6688 8.38602C88.4243 8.24226 88.1449 8.14641 87.8224 8.09849C87.5026 8.05057 87.156 8.0266 86.7879 8.0266C85.971 8.0266 85.3315 8.19966 84.8639 8.54575C84.3964 8.89185 84.125 9.46957 84.0471 10.2789H79.9063C79.9654 9.31516 80.2072 8.51647 80.6345 7.88285V7.88551ZM88.8112 13.676C88.5479 13.7639 88.2658 13.8357 87.9648 13.8916C87.6639 13.9502 87.3468 13.9981 87.0163 14.0354C86.6858 14.0753 86.3553 14.1233 86.0247 14.1792C85.713 14.2377 85.4067 14.315 85.1058 14.4108C84.8048 14.5066 84.5415 14.6371 84.3185 14.7995C84.0954 14.9619 83.9154 15.1695 83.7783 15.4198C83.6413 15.6701 83.5741 15.9869 83.5741 16.3729C83.5741 16.7589 83.6413 17.0465 83.7783 17.2967C83.9154 17.547 84.0981 17.744 84.3319 17.8877C84.5657 18.0315 84.8371 18.1327 85.1488 18.1912C85.4605 18.2498 85.7802 18.2791 86.1107 18.2791C86.9276 18.2791 87.5591 18.1433 88.0051 17.8744C88.4512 17.6055 88.7817 17.2834 88.9967 16.908C89.2089 16.5326 89.3406 16.1519 89.389 15.7659C89.4373 15.3799 89.4615 15.0737 89.4615 14.8421V13.3113C89.2869 13.4657 89.0692 13.5855 88.8059 13.6733L88.8112 13.676Z" fill="black" style="fill:black;fill-opacity:1;"/>
<path d="M99.57 16.9104C99.7554 17.2272 99.9919 17.4881 100.285 17.6905C100.578 17.8928 100.911 18.0419 101.29 18.1377C101.669 18.2336 102.064 18.2815 102.469 18.2815C102.76 18.2815 103.066 18.2469 103.388 18.1803C103.708 18.1138 104.001 18.0073 104.262 17.8635C104.525 17.7198 104.743 17.5281 104.917 17.2858C105.092 17.0462 105.181 16.7427 105.181 16.3753C105.181 15.7603 104.767 15.2971 103.942 14.9882C103.117 14.6794 101.964 14.3732 100.486 14.0644C99.8844 13.9286 99.2959 13.7716 98.7236 13.5879C98.1513 13.4042 97.6407 13.1646 97.192 12.8664C96.7459 12.5682 96.3858 12.1928 96.1144 11.7402C95.843 11.2877 95.706 10.7339 95.706 10.079C95.706 9.11522 95.8968 8.32718 96.2757 7.70952C96.6545 7.09454 97.1543 6.60734 97.7777 6.25059C98.3985 5.89385 99.0998 5.64359 99.8764 5.49982C100.653 5.35606 101.451 5.28418 102.268 5.28418C103.085 5.28418 103.875 5.36138 104.643 5.5158C105.412 5.67021 106.097 5.93111 106.699 6.29585C107.301 6.66324 107.801 7.14779 108.201 7.7548C108.599 8.3618 108.838 9.12588 108.916 10.0497H104.979C104.92 9.26165 104.619 8.72653 104.076 8.44699C103.531 8.16744 102.891 8.029 102.152 8.029C101.919 8.029 101.666 8.04232 101.395 8.07161C101.123 8.10089 100.873 8.16211 100.65 8.25796C100.427 8.3538 100.236 8.4949 100.081 8.67594C99.9247 8.85964 99.8468 9.10457 99.8468 9.4134C99.8468 9.7808 99.9838 10.0763 100.255 10.3079C100.527 10.5395 100.881 10.7259 101.319 10.8697C101.757 11.0134 102.257 11.1439 102.821 11.2584C103.386 11.3728 103.958 11.5006 104.541 11.6337C105.143 11.7695 105.731 11.9319 106.304 12.1263C106.876 12.318 107.387 12.5735 107.835 12.8904C108.282 13.2072 108.642 13.6039 108.913 14.0751C109.184 14.5463 109.321 15.1293 109.321 15.8215C109.321 16.8039 109.123 17.6266 108.725 18.2895C108.327 18.955 107.806 19.4875 107.166 19.8922C106.527 20.2969 105.791 20.5817 104.966 20.7441C104.138 20.9065 103.3 20.989 102.445 20.989C101.591 20.989 100.715 20.9012 99.879 20.7281C99.0434 20.5551 98.299 20.2649 97.6488 19.8629C96.9985 19.4582 96.4638 18.9231 96.0446 18.2602C95.6254 17.5973 95.397 16.764 95.3594 15.763H99.296C99.296 16.2049 99.3873 16.5856 99.5727 16.9051L99.57 16.9104Z" fill="black" style="fill:black;fill-opacity:1;"/>
<path d="M119.293 5.68865V8.43348H116.262V15.8267C116.262 16.5188 116.378 16.9821 116.612 17.2137C116.845 17.4453 117.31 17.5598 118.012 17.5598C118.245 17.5598 118.468 17.5492 118.683 17.5305C118.896 17.5119 119.1 17.4826 119.296 17.4427V20.6188C118.947 20.6774 118.557 20.7146 118.13 20.7333C117.703 20.7519 117.283 20.7626 116.875 20.7626C116.233 20.7626 115.626 20.72 115.053 20.6321C114.481 20.5443 113.976 20.3765 113.538 20.1263C113.1 19.876 112.756 19.5193 112.503 19.0587C112.251 18.5954 112.124 17.9911 112.124 17.2403V8.43081H109.617V5.68599H112.124V1.20801H116.265V5.68599H119.296L119.293 5.68865Z" fill="black" style="fill:black;fill-opacity:1;"/>
<path d="M124.476 5.68957V8.46101H124.535C124.728 7.99777 124.992 7.57179 125.322 7.17511C125.653 6.78109 126.031 6.44299 126.459 6.16344C126.886 5.8839 127.343 5.66826 127.829 5.51384C128.315 5.35943 128.821 5.28223 129.345 5.28223C129.616 5.28223 129.917 5.33016 130.247 5.426V9.23839C130.054 9.20112 129.82 9.16652 129.549 9.13724C129.277 9.10795 129.014 9.09463 128.762 9.09463C128.004 9.09463 127.362 9.21977 126.838 9.47002C126.314 9.72028 125.889 10.061 125.569 10.495C125.25 10.929 125.021 11.4348 124.884 12.0125C124.747 12.5902 124.68 13.2159 124.68 13.8894V20.6197H120.539V5.6869H124.476V5.68957Z" fill="black" style="fill:black;fill-opacity:1;"/>
<path d="M131.27 3.37845V0H135.41V3.37845H131.27ZM135.41 5.68932V20.6221H131.27V5.68932H135.41Z" fill="black" style="fill:black;fill-opacity:1;"/>
<path d="M138.498 7.88551C138.925 7.24922 139.47 6.74072 140.131 6.35469C140.793 5.96866 141.534 5.69444 142.362 5.53204C143.187 5.36964 144.017 5.28711 144.855 5.28711C145.613 5.28711 146.382 5.34035 147.158 5.44684C147.935 5.55333 148.644 5.761 149.286 6.06716C149.929 6.37599 150.453 6.80462 150.861 7.35305C151.269 7.90148 151.474 8.62829 151.474 9.53347V17.302C151.474 17.9756 151.511 18.6225 151.589 19.2375C151.667 19.8552 151.801 20.3157 151.998 20.6246H147.8C147.722 20.393 147.658 20.1587 147.61 19.9164C147.561 19.6768 147.526 19.4292 147.508 19.179C146.847 19.8525 146.07 20.3237 145.175 20.5953C144.28 20.8642 143.367 21 142.434 21C141.714 21 141.045 20.9121 140.422 20.7391C139.798 20.566 139.256 20.2971 138.791 19.9297C138.323 19.565 137.96 19.1017 137.697 18.5427C137.434 17.9836 137.305 17.3207 137.305 16.5486C137.305 15.702 137.455 15.0045 137.756 14.4534C138.057 13.9049 138.447 13.4657 138.922 13.1382C139.398 12.8107 139.943 12.5658 140.556 12.4007C141.169 12.2383 141.784 12.1079 142.407 12.0121C143.028 11.9162 143.641 11.839 144.243 11.7804C144.845 11.7219 145.379 11.6367 145.847 11.5195C146.314 11.4051 146.683 11.2347 146.954 11.0137C147.225 10.7927 147.352 10.4706 147.333 10.0473C147.333 9.60535 147.26 9.25392 147.115 8.99302C146.97 8.73211 146.774 8.52979 146.532 8.38602C146.288 8.24226 146.008 8.14641 145.686 8.09849C145.366 8.05057 145.019 8.0266 144.651 8.0266C143.834 8.0266 143.195 8.19966 142.727 8.54575C142.26 8.89185 141.988 9.46957 141.91 10.2789H137.77C137.829 9.31516 138.071 8.51647 138.498 7.88285V7.88551ZM146.675 13.676C146.411 13.7639 146.129 13.8357 145.828 13.8916C145.527 13.9502 145.21 13.9981 144.88 14.0354C144.549 14.0753 144.219 14.1233 143.888 14.1792C143.576 14.2377 143.27 14.315 142.969 14.4108C142.668 14.5066 142.405 14.6371 142.182 14.7995C141.959 14.9619 141.779 15.1695 141.642 15.4198C141.505 15.6701 141.437 15.9869 141.437 16.3729C141.437 16.7589 141.505 17.0465 141.642 17.2967C141.779 17.547 141.961 17.744 142.195 17.8877C142.429 18.0315 142.7 18.1327 143.012 18.1912C143.324 18.2498 143.644 18.2791 143.974 18.2791C144.791 18.2791 145.422 18.1433 145.868 17.8744C146.314 17.6055 146.645 17.2834 146.86 16.908C147.072 16.5326 147.204 16.1519 147.252 15.7659C147.301 15.3799 147.325 15.0737 147.325 14.8421V13.3113C147.15 13.4657 146.932 13.5855 146.669 13.6733L146.675 13.676Z" fill="black" style="fill:black;fill-opacity:1;"/>
</svg>
