<svg width="30" height="55" viewBox="0 0 30 55" fill="none" xmlns="http://www.w3.org/2000/svg">
<path d="M30 18.1129L22.1105 0.402082L19.6992 1.8131L16.8846 0L5.62819 9.2671L3.01469 4.83459L0 15.5554L2.81463 17.1242V29.0107L4.47042 31.2633L4.22141 33.9691L2.21127 33.2417L0 47.546L4.22141 55L10.6541 54.7984L11.8597 50.1643L18.8958 49.358L26.6139 52.9683L25.3274 23.9735L30 18.1118V18.1129ZM20.7048 18.5427C20.1163 19.7682 19.0107 21.3648 18.9639 21.432L18.9586 21.4384C17.7146 23.1128 16.1791 25.9242 17.1921 30.9796C17.4358 32.1965 18.3541 33.9093 19.0927 35.2862C19.7428 36.4978 20.1121 37.2038 20.1589 37.6145C20.525 40.8034 20.4122 45.3159 20.4111 45.3617L20.4005 45.7724L20.0642 45.6007C20.0365 45.5868 19.3715 45.2434 18.6936 44.5992C17.7763 43.7268 17.2815 42.7189 17.2613 41.6822C17.2538 41.2961 17.389 40.797 17.5305 40.268C17.6529 39.8126 17.7806 39.3412 17.7742 39.0564C17.7582 38.2405 17.2921 37.9504 16.7526 37.6134C16.4078 37.398 16.0503 37.175 15.8066 36.8018C15.431 36.2269 14.7308 34.5386 14.3328 33.5488C14.2583 34.2282 14.1593 34.9076 14.038 35.5688C13.6177 37.8512 12.9899 39.6078 12.1705 40.7917C10.304 43.4889 7.81073 45.2263 6.89132 45.5569L6.28795 45.7734L6.60294 45.1634C6.63593 45.0994 9.8943 38.7823 10.5679 36.5565C10.8052 35.3993 10.437 34.7828 10.0465 34.129C9.72297 33.5872 9.38884 33.0273 9.4197 32.1879C9.44417 31.532 9.69637 30.8878 9.91239 30.3994L9.94963 30.3162C10.403 29.2934 11.1372 27.5923 10.769 26.5961C7.57981 17.9689 9.45375 17.9529 10.1688 17.8623C10.5317 17.8164 11.0223 17.8409 11.5554 17.9295C12.2599 18.0457 12.9888 18.1662 13.3378 17.8207C13.6837 17.4783 13.6358 16.4545 13.5432 15.4967C13.5155 15.2109 13.4868 14.9165 13.4708 14.6403C13.4464 14.2414 13.5762 13.8383 13.8156 13.5631C14.0455 13.2975 14.3583 13.1631 14.7212 13.1738C15.1415 13.1866 15.3746 13.2922 15.5831 13.562C15.829 13.8809 15.9428 14.2969 15.8949 14.7021C15.8556 15.037 15.8098 15.3485 15.7651 15.6503C15.6704 16.2891 15.581 17.0794 15.7215 17.5317C15.7545 17.6372 15.9003 17.8345 16.1684 17.9455C16.4813 18.0756 17.0272 18.1204 17.854 17.5967C18.3733 17.2672 18.8075 16.624 19.1831 15.6279C19.8397 13.8873 19.4608 12.0465 19.0277 10.8093C18.5521 9.45054 17.904 8.4928 17.8976 8.4832L16.9559 6.86313L17.0112 6.90686C18.4265 8.03845 19.6322 9.42921 20.5963 11.0407C20.6005 11.0482 20.6101 11.0642 20.6186 11.0781C20.6516 10.8296 20.6633 9.04633 20.6633 7.84328V7.77929L20.6878 7.83688C20.6974 7.86034 21.6976 10.2227 21.7604 12.5136C21.8275 14.956 21.4827 16.928 20.7069 18.5417L20.7048 18.5427Z" fill="black" style="fill:black;fill-opacity:1;"/>
</svg>
