<svg width="208" height="55" viewBox="0 0 208 55" fill="none" xmlns="http://www.w3.org/2000/svg">
<g clip-path="url(#clip0_3813_2215)">
<path d="M29.803 18.4379L21.9654 0.882918L19.5699 2.28152L16.7737 0.484375L5.59124 9.66991L2.99489 5.27641L0 15.9028L2.79615 17.4579V29.2398L4.44107 31.4725L4.1937 34.1545L2.19675 33.4335L0 47.6119L4.1937 55.0003L10.5841 54.8005L11.7819 50.2072L18.7717 49.408L26.4392 52.9864L25.1611 24.2469L29.803 18.4368V18.4379ZM20.5689 18.8639C19.9843 20.0786 18.8859 21.6611 18.8394 21.7277L18.8341 21.734C17.5983 23.3938 16.0728 26.1804 17.0792 31.1913C17.3213 32.3975 18.2336 34.0952 18.9673 35.46C19.6132 36.6609 19.98 37.3608 20.0266 37.7678C20.3902 40.9286 20.2782 45.4014 20.2771 45.4469L20.2665 45.8539L19.9325 45.6837C19.905 45.6699 19.2443 45.3295 18.5709 44.691C17.6596 43.8263 17.168 42.8273 17.148 41.7997C17.1406 41.417 17.2748 40.9223 17.4154 40.3979C17.537 39.9465 17.6638 39.4793 17.6575 39.197C17.6416 38.3883 17.1786 38.1008 16.6426 37.7667C16.3001 37.5532 15.9449 37.3322 15.7028 36.9622C15.3297 36.3924 14.6341 34.719 14.2387 33.7379C14.1647 34.4113 14.0664 35.0847 13.9459 35.7402C13.5283 38.0025 12.9046 39.7436 12.0906 40.917C10.2363 43.5905 7.75945 45.3126 6.84607 45.6403L6.24667 45.8549L6.55959 45.2502C6.59236 45.1868 9.82934 38.9253 10.4985 36.7191C10.7343 35.5721 10.3685 34.9611 9.98051 34.313C9.65914 33.776 9.32719 33.221 9.35785 32.389C9.38217 31.7389 9.63271 31.1004 9.84731 30.6162L9.88431 30.5337C10.3347 29.5199 11.0641 27.8338 10.6983 26.8464C7.53005 18.2952 9.39168 18.2793 10.1021 18.1894C10.4626 18.144 10.9499 18.1683 11.4795 18.256C12.1794 18.3713 12.9035 18.4907 13.2503 18.1482C13.5938 17.8089 13.5463 16.794 13.4543 15.8447C13.4268 15.5614 13.3983 15.2696 13.3824 14.9958C13.3581 14.6004 13.4871 14.2008 13.7249 13.9281C13.9533 13.6649 14.2641 13.5317 14.6245 13.5422C15.0421 13.5549 15.2736 13.6596 15.4808 13.927C15.725 14.2431 15.8381 14.6554 15.7906 15.0571C15.7515 15.3891 15.706 15.6978 15.6616 15.9969C15.5675 16.6302 15.4787 17.4135 15.6183 17.8617C15.651 17.9664 15.7959 18.162 16.0623 18.2719C16.3731 18.4009 16.9154 18.4453 17.7368 17.9262C18.2527 17.5996 18.684 16.9621 19.0572 15.9747C19.7094 14.2495 19.3331 12.4248 18.9028 11.1985C18.4303 9.85174 17.7865 8.90242 17.7801 8.89291L16.8446 7.2871L16.8995 7.33045C18.3055 8.45208 19.5033 9.8306 20.461 11.4279C20.4653 11.4353 20.4748 11.4512 20.4832 11.4649C20.516 11.2186 20.5276 9.45108 20.5276 8.25862V8.19519L20.552 8.25228C20.5615 8.27554 21.5552 10.6171 21.6176 12.8879C21.6842 15.3087 21.3416 17.2634 20.571 18.8628L20.5689 18.8639Z" fill="white" style="fill:white;fill-opacity:1;"/>
<path d="M66.5512 16.9912L74.4482 38.1063H69.6287L68.0313 33.4041H60.1343L58.4769 38.1063H53.8047L61.789 16.9912H66.5512ZM66.8183 29.9448L64.1578 22.1977H64.0978L61.3474 29.9448H66.8183Z" fill="white" style="fill:white;fill-opacity:1;"/>
<path d="M79.0912 22.8175V25.6552H79.1511C79.3474 25.1808 79.6145 24.7447 79.9498 24.3385C80.2851 23.9351 80.6695 23.5889 81.1029 23.3027C81.5363 23.0165 81.9997 22.7957 82.4931 22.6375C82.9865 22.4794 83.499 22.4004 84.0306 22.4004C84.3059 22.4004 84.6112 22.4495 84.9465 22.5476V26.4511C84.7502 26.413 84.513 26.3775 84.2377 26.3476C83.9624 26.3176 83.6953 26.3039 83.439 26.3039C82.6703 26.3039 82.0188 26.4321 81.4873 26.6883C80.9557 26.9445 80.525 27.2935 80.2006 27.7378C79.8762 28.1821 79.6445 28.7 79.5055 29.2916C79.3665 29.8831 79.2983 30.5237 79.2983 31.2133V38.1045H75.0977V22.8147H79.0912V22.8175Z" fill="white" style="fill:white;fill-opacity:1;"/>
<path d="M90.4417 16.9912V28.3175L95.7354 22.8165H100.705L94.9367 28.4347L101.354 38.1063H96.267L92.0663 31.2751L90.4389 32.8425V38.1063H86.2383V16.9912H90.4389H90.4417Z" fill="white" style="fill:white;fill-opacity:1;"/>
<path d="M102.215 20.4504V16.9912H106.416V20.4504H102.215ZM106.416 22.8165V38.1063H102.215V22.8165H106.416Z" fill="white" style="fill:white;fill-opacity:1;"/>
<path d="M113.071 22.8175V24.8864H113.13C113.681 24.0986 114.349 23.488 115.126 23.0519C115.906 22.6185 116.797 22.4004 117.803 22.4004C118.809 22.4004 119.651 22.5885 120.45 22.9619C121.248 23.3381 121.853 23.9978 122.268 24.9437C122.72 24.2731 123.336 23.6816 124.116 23.1691C124.896 22.6566 125.817 22.4004 126.88 22.4004C127.687 22.4004 128.437 22.4985 129.129 22.6948C129.819 22.8911 130.41 23.2073 130.904 23.6407C131.397 24.0741 131.781 24.6411 132.057 25.3417C132.332 26.0423 132.471 26.8846 132.471 27.8713V38.1045H128.27V29.4388C128.27 28.9263 128.251 28.4438 128.21 27.9886C128.169 27.5361 128.063 27.1408 127.886 26.8055C127.709 26.4702 127.447 26.2031 127.101 26.0068C126.755 25.8105 126.289 25.7124 125.697 25.7124C125.106 25.7124 124.628 25.8269 124.263 26.0532C123.898 26.2794 123.612 26.5765 123.405 26.9418C123.197 27.3071 123.058 27.7214 122.99 28.1848C122.922 28.6482 122.887 29.1171 122.887 29.5887V38.1045H118.686V29.5287C118.686 29.0762 118.675 28.6264 118.656 28.1821C118.637 27.7378 118.552 27.3289 118.405 26.9554C118.258 26.582 118.01 26.2794 117.666 26.0532C117.32 25.8269 116.813 25.7124 116.143 25.7124C115.946 25.7124 115.685 25.756 115.358 25.846C115.033 25.9359 114.717 26.1022 114.412 26.3476C114.106 26.5956 113.845 26.95 113.627 27.4134C113.409 27.8768 113.302 28.482 113.302 29.2316V38.1045H109.102V22.8147H113.065L113.071 22.8175Z" fill="white" style="fill:white;fill-opacity:1;"/>
<path d="M135.605 25.0658C136.038 24.4143 136.592 23.8936 137.262 23.4984C137.933 23.1031 138.685 22.8223 139.525 22.6561C140.362 22.4898 141.204 22.4053 142.054 22.4053C142.823 22.4053 143.603 22.4598 144.391 22.5688C145.178 22.6779 145.898 22.8905 146.549 23.204C147.201 23.5202 147.733 23.9591 148.147 24.5206C148.561 25.0821 148.768 25.8263 148.768 26.7531V34.7074C148.768 35.3971 148.807 36.0595 148.886 36.6892C148.965 37.3216 149.101 37.7932 149.3 38.1094H145.042C144.963 37.8722 144.898 37.6324 144.848 37.3843C144.799 37.139 144.764 36.8854 144.745 36.6292C144.074 37.3189 143.287 37.8014 142.379 38.0794C141.471 38.3547 140.544 38.4938 139.598 38.4938C138.868 38.4938 138.189 38.4038 137.557 38.2266C136.924 38.0494 136.374 37.7741 135.902 37.3979C135.428 37.0245 135.06 36.5502 134.793 35.9777C134.525 35.4053 134.395 34.7265 134.395 33.936C134.395 33.0691 134.547 32.3549 134.852 31.7907C135.158 31.2291 135.553 30.7793 136.036 30.4441C136.518 30.1088 137.071 29.858 137.693 29.689C138.314 29.5227 138.939 29.3891 139.571 29.291C140.201 29.1929 140.822 29.1138 141.433 29.0538C142.044 28.9939 142.586 28.9066 143.06 28.7867C143.535 28.6695 143.908 28.495 144.183 28.2688C144.459 28.0425 144.587 27.7127 144.568 27.2792C144.568 26.8267 144.494 26.4669 144.347 26.1998C144.2 25.9326 144.001 25.7255 143.755 25.5783C143.507 25.4311 143.224 25.3329 142.897 25.2839C142.572 25.2348 142.221 25.2103 141.847 25.2103C141.019 25.2103 140.37 25.3874 139.895 25.7418C139.421 26.0962 139.146 26.6877 139.067 27.5164H134.866C134.926 26.5296 135.171 25.7118 135.605 25.0631V25.0658ZM143.9 30.9947C143.633 31.0847 143.347 31.1583 143.041 31.2155C142.736 31.2755 142.414 31.3245 142.079 31.3627C141.744 31.4036 141.408 31.4527 141.073 31.5099C140.757 31.5699 140.446 31.6489 140.141 31.7471C139.835 31.8452 139.568 31.9788 139.342 32.145C139.116 32.3113 138.933 32.5239 138.794 32.7802C138.655 33.0364 138.587 33.3608 138.587 33.7561C138.587 34.1513 138.655 34.4457 138.794 34.702C138.933 34.9582 139.119 35.1599 139.356 35.3071C139.593 35.4543 139.868 35.5579 140.184 35.6179C140.501 35.6778 140.825 35.7078 141.16 35.7078C141.989 35.7078 142.63 35.5688 143.082 35.2935C143.535 35.0182 143.87 34.6883 144.088 34.304C144.303 33.9196 144.437 33.5298 144.486 33.1346C144.535 32.7393 144.56 32.4258 144.56 32.1887V30.6212C144.382 30.7794 144.162 30.902 143.894 30.992L143.9 30.9947Z" fill="white" style="fill:white;fill-opacity:1;"/>
<path d="M154.815 34.3065C155.003 34.6309 155.242 34.898 155.54 35.1052C155.837 35.3124 156.175 35.465 156.559 35.5632C156.943 35.6613 157.344 35.7104 157.756 35.7104C158.05 35.7104 158.361 35.6749 158.688 35.6068C159.012 35.5386 159.31 35.4296 159.574 35.2824C159.841 35.1352 160.062 34.9389 160.239 34.6909C160.416 34.4455 160.506 34.1348 160.506 33.7586C160.506 33.1289 160.086 32.6546 159.25 32.3384C158.413 32.0222 157.243 31.7087 155.744 31.3925C155.133 31.2535 154.536 31.0926 153.956 30.9045C153.375 30.7164 152.857 30.4711 152.402 30.1658C151.95 29.8605 151.584 29.4761 151.309 29.0127C151.034 28.5493 150.895 27.9823 150.895 27.3118C150.895 26.325 151.088 25.5181 151.473 24.8857C151.857 24.256 152.364 23.7571 152.996 23.3919C153.626 23.0266 154.337 22.7703 155.125 22.6231C155.913 22.4759 156.723 22.4023 157.551 22.4023C158.38 22.4023 159.181 22.4814 159.961 22.6395C160.741 22.7976 161.436 23.0647 162.046 23.4382C162.657 23.8144 163.164 24.3105 163.57 24.932C163.974 25.5535 164.216 26.3359 164.295 27.2818H160.302C160.242 26.4749 159.937 25.927 159.386 25.6408C158.833 25.3545 158.184 25.2128 157.434 25.2128C157.197 25.2128 156.941 25.2264 156.665 25.2564C156.39 25.2864 156.137 25.3491 155.91 25.4472C155.684 25.5453 155.491 25.6898 155.332 25.8752C155.174 26.0633 155.095 26.3141 155.095 26.6303C155.095 27.0065 155.234 27.309 155.51 27.5462C155.785 27.7833 156.145 27.9742 156.589 28.1214C157.033 28.2686 157.54 28.4021 158.113 28.5193C158.685 28.6366 159.266 28.7674 159.857 28.9037C160.468 29.0427 161.065 29.209 161.646 29.408C162.226 29.6043 162.744 29.866 163.199 30.1903C163.652 30.5147 164.017 30.9209 164.293 31.4034C164.568 31.8859 164.707 32.4829 164.707 33.1916C164.707 34.1975 164.505 35.0398 164.102 35.7185C163.698 36.4 163.17 36.9452 162.521 37.3596C161.872 37.7739 161.125 38.0656 160.288 38.2319C159.449 38.3981 158.598 38.4826 157.731 38.4826C156.864 38.4826 155.976 38.3927 155.128 38.2155C154.28 38.0383 153.525 37.7412 152.865 37.3296C152.206 36.9152 151.663 36.3673 151.238 35.6886C150.813 35.0098 150.581 34.1566 150.543 33.1316H154.536C154.536 33.5841 154.629 33.9739 154.817 34.3011L154.815 34.3065Z" fill="white" style="fill:white;fill-opacity:1;"/>
<path d="M174.824 22.8153V25.6257H171.749V33.1956C171.749 33.9044 171.866 34.3787 172.103 34.6159C172.341 34.853 172.812 34.9702 173.524 34.9702C173.761 34.9702 173.987 34.9593 174.205 34.9403C174.42 34.9212 174.628 34.8912 174.827 34.8503V38.1023C174.472 38.1623 174.077 38.2005 173.644 38.2196C173.21 38.2386 172.785 38.2495 172.371 38.2495C171.719 38.2495 171.103 38.2059 170.522 38.116C169.942 38.026 169.429 37.8543 168.985 37.598C168.541 37.3418 168.192 36.9765 167.935 36.5049C167.679 36.0306 167.551 35.4118 167.551 34.6431V25.623H165.008V22.8126H167.551V18.2275H171.752V22.8126H174.827L174.824 22.8153Z" fill="white" style="fill:white;fill-opacity:1;"/>
<path d="M180.079 22.8175V25.6552H180.139C180.336 25.1808 180.603 24.7447 180.938 24.3385C181.273 23.9351 181.658 23.5889 182.091 23.3027C182.525 23.0165 182.988 22.7957 183.481 22.6375C183.975 22.4794 184.487 22.4004 185.019 22.4004C185.294 22.4004 185.599 22.4495 185.935 22.5476V26.4511C185.738 26.413 185.501 26.3775 185.226 26.3476C184.951 26.3176 184.684 26.3039 184.427 26.3039C183.659 26.3039 183.007 26.4321 182.476 26.6883C181.944 26.9445 181.513 27.2935 181.189 27.7378C180.864 28.1821 180.633 28.7 180.494 29.2916C180.355 29.8831 180.287 30.5237 180.287 31.2133V38.1045H176.086V22.8147H180.079V22.8175Z" fill="white" style="fill:white;fill-opacity:1;"/>
<path d="M186.973 20.4504V16.9912H191.173V20.4504H186.973ZM191.173 22.8165V38.1063H186.973V22.8165H191.173Z" fill="white" style="fill:white;fill-opacity:1;"/>
<path d="M194.308 25.0658C194.741 24.4143 195.295 23.8936 195.965 23.4984C196.636 23.1031 197.388 22.8223 198.228 22.6561C199.065 22.4898 199.907 22.4053 200.758 22.4053C201.526 22.4053 202.306 22.4598 203.094 22.5688C203.881 22.6779 204.601 22.8905 205.253 23.204C205.904 23.5202 206.436 23.9591 206.85 24.5206C207.264 25.0821 207.472 25.8263 207.472 26.7531V34.7074C207.472 35.3971 207.51 36.0595 207.589 36.6892C207.668 37.3216 207.804 37.7932 208.003 38.1094H203.745C203.666 37.8722 203.601 37.6324 203.552 37.3843C203.503 37.139 203.467 36.8854 203.448 36.6292C202.777 37.3189 201.99 37.8014 201.082 38.0794C200.174 38.3547 199.247 38.4938 198.301 38.4938C197.571 38.4938 196.892 38.4038 196.26 38.2266C195.627 38.0494 195.077 37.7741 194.605 37.3979C194.131 37.0245 193.763 36.5502 193.496 35.9777C193.229 35.4053 193.098 34.7265 193.098 33.936C193.098 33.0691 193.25 32.3549 193.556 31.7907C193.861 31.2291 194.256 30.7793 194.739 30.4441C195.221 30.1088 195.775 29.858 196.396 29.689C197.018 29.5227 197.642 29.3891 198.274 29.291C198.904 29.1929 199.525 29.1138 200.136 29.0538C200.747 28.9939 201.289 28.9066 201.763 28.7867C202.238 28.6695 202.611 28.495 202.887 28.2688C203.162 28.0425 203.29 27.7127 203.271 27.2792C203.271 26.8267 203.197 26.4669 203.05 26.1998C202.903 25.9326 202.704 25.7255 202.459 25.5783C202.21 25.4311 201.927 25.3329 201.6 25.2839C201.275 25.2348 200.924 25.2103 200.55 25.2103C199.722 25.2103 199.073 25.3874 198.599 25.7418C198.124 26.0962 197.849 26.6877 197.77 27.5164H193.569C193.629 26.5296 193.875 25.7118 194.308 25.0631V25.0658ZM202.603 30.9947C202.336 31.0847 202.05 31.1583 201.744 31.2155C201.439 31.2755 201.117 31.3245 200.782 31.3627C200.447 31.4036 200.111 31.4527 199.776 31.5099C199.46 31.5699 199.149 31.6489 198.844 31.7471C198.539 31.8452 198.271 31.9788 198.045 32.145C197.819 32.3113 197.636 32.5239 197.497 32.7802C197.358 33.0364 197.29 33.3608 197.29 33.7561C197.29 34.1513 197.358 34.4457 197.497 34.702C197.636 34.9582 197.822 35.1599 198.059 35.3071C198.296 35.4543 198.571 35.5579 198.888 35.6179C199.204 35.6778 199.528 35.7078 199.863 35.7078C200.692 35.7078 201.333 35.5688 201.785 35.2935C202.238 35.0182 202.573 34.6883 202.791 34.304C203.006 33.9196 203.14 33.5298 203.189 33.1346C203.238 32.7393 203.263 32.4258 203.263 32.1887V30.6212C203.085 30.7794 202.865 30.902 202.598 30.992L202.603 30.9947Z" fill="white" style="fill:white;fill-opacity:1;"/>
</g>
<defs>
<clipPath id="clip0_3813_2215">
<rect width="208.002" height="54.5159" fill="white" style="fill:white;fill-opacity:1;" transform="translate(0 0.484375)"/>
</clipPath>
</defs>
</svg>
