<?xml version="1.0" encoding="utf-8"?>
<!-- Generator: Adobe Illustrator 26.0.0, SVG Export Plug-In . SVG Version: 6.00 Build 0)  -->
<svg version="1.1" id="Livello_1" xmlns="http://www.w3.org/2000/svg" xmlns:xlink="http://www.w3.org/1999/xlink" x="0px" y="0px"
	 viewBox="0 0 841.9 841.9" style="enable-background:new 0 0 841.9 841.9;" xml:space="preserve">
<style type="text/css">
	.st0{clip-path:url(#SVGID_00000113328057337147054900000010689692492330338743_);fill:#010202;}
	.st1{clip-path:url(#SVGID_00000113328057337147054900000010689692492330338743_);}
	.st2{clip-path:url(#SVGID_00000036936848971561914450000012179202818337534364_);fill:#010202;}
	.st3{clip-path:url(#SVGID_00000003812962598765051650000013127485649529121677_);}
	.st4{clip-path:url(#SVGID_00000134938737067880683060000004474793496529951930_);fill:#010202;}
	.st5{clip-path:url(#SVGID_00000160184164143096613190000007869635679930545815_);}
	.st6{clip-path:url(#SVGID_00000096759900672264357920000001253405609067597997_);fill:#010202;}
	.st7{clip-path:url(#SVGID_00000167357515481728440460000017972906961330538373_);fill:#010202;}
	.st8{clip-path:url(#SVGID_00000167357515481728440460000017972906961330538373_);}
	.st9{clip-path:url(#SVGID_00000079450958051903002440000011357238801177176228_);fill:#010202;}
	.st10{clip-path:url(#SVGID_00000098918931289590883580000004259056759830712736_);}
	.st11{clip-path:url(#SVGID_00000134215785015110446200000005118515817293167243_);fill:#010202;}
</style>
<g>
	<g>
		<defs>
			<rect id="SVGID_1_" width="841.9" height="841.9"/>
		</defs>
		<clipPath id="SVGID_00000147938079112194032800000017528795845746178207_">
			<use xlink:href="#SVGID_1_"  style="overflow:visible;"/>
		</clipPath>
		
			<rect x="398.4" y="272" style="clip-path:url(#SVGID_00000147938079112194032800000017528795845746178207_);fill:#010202;" width="43" height="43"/>
		<g style="clip-path:url(#SVGID_00000147938079112194032800000017528795845746178207_);">
			<defs>
				<rect id="SVGID_00000060727953207301242910000009643176024727809690_" width="841.9" height="841.9"/>
			</defs>
			<clipPath id="SVGID_00000070078513696196153080000012617790096980541106_">
				<use xlink:href="#SVGID_00000060727953207301242910000009643176024727809690_"  style="overflow:visible;"/>
			</clipPath>
			<path style="clip-path:url(#SVGID_00000070078513696196153080000012617790096980541106_);fill:#010202;" d="M420.9,41.9
				c-209.4,0-379.1,169.7-379.1,379.1S211.6,800,420.9,800S800,630.3,800,420.9S630.3,41.9,420.9,41.9 M545.8,241.1h43v43h-43V241.1
				z M591.5,377.2h-43v-43h43V377.2z M544.7,432.6h43v43h-43V432.6z M546.4,532.2h-43v-43h43V532.2z M540,418.4h-43v-43h43V418.4z
				 M492.1,210.2h43v43h-43V210.2z M481.7,255.5L481.7,255.5l0.1,0.2h-0.1V255.5z M544.5,643.1c-1.9,2.5-4.8,4-8,4H374.8
				c-4.8,0-9-3.5-9.8-8.2l0,0c-3-17.1-10.7-55.9-20.2-64.7c-15-13.9-49.9-5.6-71.4-4.7c-53.9,2.8-37.3-42.3-48.8-81.8
				c-9.1-31.1-35-24.3-33.8-46.3c0.7-13.4,37.1-30.7,37.2-72.8c0.1-11.9-2.1-30-2.5-42.3c-2.9-93.3,87.3-161,192.7-155.6
				c21.6,1,42.9,4.8,63.5,11.4v30.5l-43,0.1v43l43.1,0v42.8l42.9,0v43h-43v42.8h-43v43.4h-43v43h43v43h43v43h48.4
				c3.1,26.4,8.5,52.5,16.1,77.9l0,0C547,637.4,546.4,640.6,544.5,643.1 M494.2,427.5v43l-43,0v-43L494.2,427.5z M618,559.1h-43v-43
				h43V559.1z M651.2,326h-43v-43h43V326z"/>
			
				<rect x="312.5" y="255.6" style="clip-path:url(#SVGID_00000070078513696196153080000012617790096980541106_);fill:#010202;" width="43" height="43"/>
			
				<rect x="377.5" y="523.7" style="clip-path:url(#SVGID_00000070078513696196153080000012617790096980541106_);fill:#010202;" width="43" height="43"/>
			
				<rect x="366.3" y="330.1" style="clip-path:url(#SVGID_00000070078513696196153080000012617790096980541106_);fill:#010202;" width="43" height="43"/>
		</g>
	</g>
</g>
</svg>
