<?xml version="1.0" encoding="utf-8"?>
<!-- Generator: Adobe Illustrator 26.0.0, SVG Export Plug-In . SVG Version: 6.00 Build 0)  -->
<svg version="1.1" id="Livello_1" xmlns="http://www.w3.org/2000/svg" xmlns:xlink="http://www.w3.org/1999/xlink" x="0px" y="0px"
	 viewBox="0 0 841.9 841.9" style="enable-background:new 0 0 841.9 841.9;" xml:space="preserve">
<style type="text/css">
	.st0{clip-path:url(#SVGID_00000176005604160450901740000001142526339333142951_);fill:#010202;}
	.st1{clip-path:url(#SVGID_00000176005604160450901740000001142526339333142951_);}
	.st2{clip-path:url(#SVGID_00000137841791733033043560000007517327685057002130_);fill:#010202;}
	.st3{clip-path:url(#SVGID_00000003091906577664253240000015922743375510478484_);}
	.st4{clip-path:url(#SVGID_00000023991082487580233980000001699647868667876495_);fill:#010202;}
	.st5{clip-path:url(#SVGID_00000106112895164663764590000014027107171862790021_);}
	.st6{clip-path:url(#SVGID_00000097462353592201880740000001953256621109337018_);fill:#010202;}
	.st7{clip-path:url(#SVGID_00000008107164594221322080000009529498449043517590_);fill:#010202;}
	.st8{clip-path:url(#SVGID_00000008107164594221322080000009529498449043517590_);}
	.st9{clip-path:url(#SVGID_00000070103515545736962380000005981099934240524989_);fill:#010202;}
	.st10{clip-path:url(#SVGID_00000018936523063497053000000015407735793821877678_);}
	.st11{clip-path:url(#SVGID_00000032640308594820493920000014034611630113241256_);fill:#010202;}
</style>
<g>
	<g>
		<defs>
			<rect id="SVGID_00000167360466602176132390000009049284912903326621_" width="841.9" height="841.9"/>
		</defs>
		<clipPath id="SVGID_00000105399169744482559540000011514741685548631985_">
			<use xlink:href="#SVGID_00000167360466602176132390000009049284912903326621_"  style="overflow:visible;"/>
		</clipPath>
		
			<rect x="520.2" y="456.2" style="clip-path:url(#SVGID_00000105399169744482559540000011514741685548631985_);fill:#010202;" width="123" height="29.3"/>
		
			<rect x="359.4" y="407.7" style="clip-path:url(#SVGID_00000105399169744482559540000011514741685548631985_);fill:#010202;" width="123" height="29.3"/>
		
			<rect x="198.6" y="482.3" style="clip-path:url(#SVGID_00000105399169744482559540000011514741685548631985_);fill:#010202;" width="123" height="29.3"/>
		<g style="clip-path:url(#SVGID_00000105399169744482559540000011514741685548631985_);">
			<defs>
				<rect id="SVGID_00000130630714534164412350000015999294254583366580_" width="841.9" height="841.9"/>
			</defs>
			<clipPath id="SVGID_00000050664186420526130980000005264511137750846606_">
				<use xlink:href="#SVGID_00000130630714534164412350000015999294254583366580_"  style="overflow:visible;"/>
			</clipPath>
			<path style="clip-path:url(#SVGID_00000050664186420526130980000005264511137750846606_);fill:#010202;" d="M420.9,41.9
				c-209.4,0-379.1,169.7-379.1,379.1S211.6,800,420.9,800S800,630.3,800,420.9S630.3,41.9,420.9,41.9 M328.7,604.4H191.5v-70.8
				h137.2V604.4z M328.7,518.7H191.5v-43.5h137.2V518.7z M489.5,604.4H352.3V459h137.2V604.4z M489.5,444.1H352.3v-43.5h137.2V444.1
				z M470.5,266.2l2.8,55.9l-37.8-14.4v41.6h30.4v36.3h-90v-36.3h30.4v-41.6l-37.8,14.4l2.8-55.9l-35.1-43.6l54.1-14.6l30.6-46.9
				l30.6,46.9l54.1,14.6L470.5,266.2z M650.4,604.4H513.1v-96.9h137.2V604.4z M650.4,492.6H513.2v-43.5h137.2V492.6z"/>
		</g>
	</g>
</g>
</svg>
