<?xml version="1.0" encoding="utf-8"?>
<!-- Generator: Adobe Illustrator 28.1.0, SVG Export Plug-In . SVG Version: 6.00 Build 0)  -->
<svg version="1.1" id="Livello_1" xmlns="http://www.w3.org/2000/svg" xmlns:xlink="http://www.w3.org/1999/xlink" x="0px" y="0px"
	 viewBox="0 0 752.3339 122.7001" style="enable-background:new 0 0 752.3339 122.7001;" xml:space="preserve">
<g>
	<path d="M47.9963,80.1783c-0.6142-0.5448-1.2196-1.0298-1.7657-1.5741c-5.1223-5.1058-10.2351-10.221-15.348-15.3362
		c-0.393-0.3932-0.7747-0.7988-1.1453-1.2132c-0.5387-0.6023-0.8318-1.3092-0.8329-2.1244
		c-0.0032-2.3357-0.0302-4.6718,0.0054-7.007c0.0198-1.2941,0.5856-1.8824,1.7934-1.9353c1.2222-0.0536,2.4474-0.0542,3.6712-0.0544
		c20.0323-0.0029,40.0645-0.0012,60.0968-0.0043c1.2238-0.0002,2.4492-0.003,3.6707-0.0648
		c0.4268-0.0216,0.8835-0.1568,1.2528-0.3686c0.2502-0.1434,0.5518-0.5364,0.5184-0.7739
		c-0.1226-0.8713-0.2848-1.7583-0.5933-2.5789c-5.0149-13.339-16.4626-22.5982-28.918-25.3212
		c-2.9419-0.6431-5.9077-1.1575-8.9195-1.1196c-4.4719,0.0563-8.8498,0.7588-13.1081,2.1896
		C36.3144,26.944,24.3352,37.5983,21.3456,54.5744c-0.5953,3.3803-1.0397,6.8304-0.3418,10.2845
		c0.6155,10.9097,7.1455,23.2593,18.2103,30.4065c5.3298,3.4428,11.1369,5.6477,17.4172,6.311
		c18.4896,1.9529,33.2564-7.8306,40.411-21.0877c0.264-0.4892,0.5226-0.9824,0.7599-1.4849
		c1.6304-3.4526,1.5178-2.9478,4.5636-3.776c5.687-1.5465,11.4069-2.9726,17.1145-4.4432c0.4276-0.1102,0.8644-0.1909,1.3011-0.2585
		c0.4887-0.0756,1.0792,0.5192,1.0608,1.0534c-0.0114,0.332-0.0002,0.6706-0.0622,0.9941
		c-2.0541,10.7142-6.5419,20.2745-13.6497,28.5711c-8.5902,10.0269-19.3059,16.6484-32.1265,19.8163
		c-4.985,1.2318-10.0531,1.7776-15.2055,1.7372c-9.1652-0.0718-17.9267-1.9432-26.1102-6.0265
		c-17.4598-8.7121-28.5677-22.5843-33.232-41.5677c-1.2852-5.2306-1.5267-10.5412-1.4407-15.8972
		c0.125-7.7846,1.8533-15.2089,4.9178-22.3308c3.8967-9.056,9.7032-16.707,17.2944-22.9839
		C30.0042,7.4617,38.8651,3.2322,48.7374,1.1485c3.2703-0.6902,6.587-1.0318,9.9349-1.104
		c3.565-0.0769,7.1384-0.1021,10.6703,0.3358c4.6443,0.5758,9.1926,1.6732,13.5744,3.356
		c12.4303,4.7739,22.3854,12.669,29.7654,23.7574c4.5575,6.8477,7.5567,14.3575,9.0732,22.4284
		c0.5113,2.7213,0.9918,5.4766,0.9001,8.2774c-0.0182,0.555-0.0285,1.112-0.0868,1.6633c-0.0631,0.5962-0.3996,1.0663-0.9461,1.2726
		c-0.8297,0.3132-1.6859,0.5652-2.5446,0.7911c-6.668,1.7542-13.3387,3.4986-20.0098,5.2409
		c-15.8174,4.1309-31.6364,8.2557-47.4516,12.395C50.5401,79.8442,49.4735,80.1382,47.9963,80.1783z"/>
	<path d="M469.8918,47.1761c1.166,0.879,1.6298,1.9087,2.2091,2.8468c1.8669,3.0233,3.7131,6.0593,5.5773,9.0843
		c0.4654,0.7552,0.9474,1.5021,1.4597,2.2259c0.5285,0.7468,1.4005,0.7432,1.9251-0.0093c0.5071-0.7273,0.984-1.4775,1.4405-2.2379
		c1.7716-2.9512,3.5274-5.9119,5.2945-8.8659c0.3989-0.6669,0.8118-1.3257,1.2318-1.9795c0.5196-0.8091,1.2633-1.2141,2.2323-1.2104
		c1.3328,0.0051,2.6663-0.0285,3.9982,0.0052c1.3051,0.033,1.8642,0.5729,1.9339,1.7796c0.0256,0.4431,0.0314,0.8878,0.0322,1.3319
		c0.013,7.2178,0.0377,14.4356,0.0286,21.6533c-0.0043,3.401-0.2365,3.6129-3.5501,3.6551
		c-0.7772,0.0099-1.5562,0.0088-2.3322-0.0301c-1.777-0.0891-2.2613-0.6158-2.3132-2.5171
		c-0.0274-0.9987-0.0057-1.9987-0.0154-2.998c-0.0161-1.6655-0.0322-3.3311-0.0665-4.9962
		c-0.0068-0.329-0.0551-0.6704-0.1623-0.9789c-0.0613-0.1761-0.2587-0.3722-0.4342-0.423c-0.1831-0.053-0.4982-0.0162-0.6085,0.11
		c-0.434,0.496-0.8546,1.0154-1.1992,1.5758c-0.9886,1.6078-1.924,3.2483-2.9092,4.8582c-0.4041,0.6603-0.835,1.317-1.3459,1.8938
		c-0.2737,0.309-0.7243,0.5721-1.128,0.6314c-0.7585,0.1115-1.5428,0.0996-2.3128,0.0633c-0.5722-0.027-1.0773-0.3199-1.4116-0.7871
		c-0.5807-0.8115-1.1268-1.6487-1.6648-2.4895c-0.9576-1.4963-1.8831-3.0132-2.8571-4.4986
		c-0.2351-0.3586-0.6019-0.6329-0.9179-0.9358c-0.1903-0.1824-0.7603,0.0092-0.8265,0.2959
		c-0.1481,0.6411-0.357,1.2867-0.3768,1.9354c-0.0575,1.8862-0.0137,3.7753-0.0523,5.6623
		c-0.0158,0.772-0.0838,1.5533-0.2357,2.3088c-0.1144,0.5688-0.561,0.9998-1.1307,1.1072
		c-1.7599,0.3317-3.5367,0.3354-5.2964,0.0001c-0.5746-0.1095-0.9857-0.5606-1.0947-1.1352
		c-0.1232-0.6495-0.1701-1.3222-0.1711-1.9849c-0.0113-7.3288-0.008-14.6577-0.0046-21.9866
		c0.0002-0.4437,0.0211-0.8884,0.0562-1.3307c0.0857-1.0783,0.6402-1.6969,1.6385-1.7411
		C466.3037,46.9861,468.0789,46.8922,469.8918,47.1761z"/>
	<path d="M664.7682,61.1487c0,3.5586,0.009,7.1172-0.0071,10.6757c-0.0035,0.774-0.0752,1.5498-0.1566,2.3204
		c-0.0499,0.4721-0.6469,1.0519-1.1072,1.1283c-1.8807,0.3118-3.7719,0.2629-5.6495,0.0328
		c-0.5106-0.0626-1.0594-0.3768-1.4494-0.7309c-0.6542-0.5942-1.209-1.3014-1.7809-1.9818
		c-2.2184-2.6393-4.4144-5.2977-6.6505-7.9218c-0.4218-0.4949-0.9818-0.8751-1.4926-1.29
		c-0.1927-0.1565-0.7861,0.0949-0.8252,0.3377c-0.0874,0.5428-0.2196,1.0873-0.2266,1.6324
		c-0.0289,2.2238-0.0091,4.4481-0.0259,6.6721c-0.005,0.6652-0.0453,1.3326-0.1162,1.994
		c-0.0684,0.6381-0.6828,1.2281-1.3433,1.2993c-1.9952,0.2153-3.993,0.2389-5.9862-0.0224
		c-0.6514-0.0854-1.2283-0.6895-1.2874-1.3452c-0.0596-0.6632-0.1011-1.3306-0.1018-1.9962
		c-0.0068-7.2283-0.0173-14.4567,0.0023-21.685c0.0082-3.0298,0.2325-3.267,3.1925-3.2544
		c4.7932,0.0203,3.8907-0.4591,7.0071,3.2428c2.0771,2.4674,4.1286,4.9565,6.2126,7.4179c0.4993,0.5896,1.0737,1.1173,1.6319,1.6544
		c0.2622,0.2521,1.0638-0.0268,1.108-0.3807c0.0823-0.6587,0.1833-1.3206,0.1915-1.9821c0.0258-2.1126,0.0104-4.2257,0.0158-6.3386
		c0.0014-0.5559,0.0048-1.1125,0.0339-1.6673c0.0678-1.2979,0.5931-1.8606,1.806-1.9217c0.6661-0.0335,1.3344-0.0317,2.0018-0.034
		c0.89-0.0031,1.7805-0.0121,2.6699,0.0123c1.8452,0.0506,2.3027,0.4994,2.3173,2.4557c0.0291,3.8919,0.0085,7.7843,0.0085,11.6765
		C664.7634,61.1487,664.7658,61.1487,664.7682,61.1487z"/>
	<path d="M165.1747,61.2279c0-3.8862-0.0191-7.7726,0.0077-11.6587c0.0144-2.0829,0.4696-2.5396,2.5569-2.5511
		c4.5542-0.0252,9.1088,0.0105,13.6631-0.0164c1.8038-0.0106,3.5375,0.381,5.2393,0.8695c0.942,0.2704,1.8647,0.7507,2.6749,1.3113
		c2.9345,2.0309,3.5793,5.9325,1.4819,8.8212c-0.5173,0.7125-1.1934,1.3093-1.7895,1.9656c-0.298,0.3281-0.27,0.9333,0.0647,1.1955
		c0.6102,0.4781,1.2495,0.92,1.8492,1.4104c3.2102,2.6251,3.7602,8.5068-1.0534,11.2651c-1.3663,0.7829-2.8439,1.2538-4.4094,1.411
		c-0.9938,0.0998-1.9939,0.1835-2.9916,0.1881c-4.6654,0.0218-9.3311,0.039-13.9963,0.0069
		c-2.9714-0.0204-3.2779-0.3382-3.2967-3.2261c-0.0239-3.664-0.0058-7.3283-0.0058-10.9925
		C165.1713,61.2279,165.173,61.2279,165.1747,61.2279z M178.3513,69.6616c1.0067-0.0582,1.8973-0.0409,2.7619-0.1824
		c0.6384-0.1045,1.2792-0.3476,1.8531-0.6525c0.7211-0.3832,1.1119-1.0724,1.1595-1.8887c0.0558-0.9565-0.361-1.7276-1.1817-2.2079
		c-0.4675-0.2736-1.0001-0.5092-1.5297-0.5904c-1.9697-0.302-3.9521-0.294-5.928-0.0284c-0.5978,0.0803-1.2326,0.7288-1.27,1.3615
		c-0.0516,0.8727-0.0495,1.7531,0.0025,2.6258c0.0366,0.6152,0.681,1.266,1.2937,1.3353
		C176.4956,69.5451,177.4855,69.5951,178.3513,69.6616z M177.3258,58.3312c0.0005,0.0147,0.001,0.0295,0.0015,0.0442
		c0.8766-0.0417,1.766-0.007,2.6256-0.1506c0.6301-0.1052,1.2734-0.3595,1.8191-0.6961c1.2613-0.7779,1.2393-2.8129-0.0103-3.642
		c-0.3584-0.2378-0.7681-0.4705-1.182-0.5399c-1.7414-0.2919-3.4977-0.3028-5.2398-0.009c-0.575,0.097-0.935,0.5475-1.0816,1.1147
		c-0.0816,0.3156-0.1287,0.6463-0.1422,0.9722c-0.09,2.1751,0.4811,2.8209,2.5511,2.9052
		C176.8864,58.3389,177.1062,58.3312,177.3258,58.3312z"/>
	<path d="M263.7,61.114c0,3.6704,0.03,7.3412-0.0096,11.0112c-0.031,2.8741-0.4493,3.2988-3.2893,3.3183
		c-4.5015,0.0309-4.2094,0.1416-6.8264-3.0132c-2.1307-2.5684-4.2759-5.1249-6.4321-7.6719
		c-0.4276-0.5051-0.9249-0.9535-1.4089-1.4079c-0.2779-0.2608-1.0436-0.0321-1.1199,0.3391
		c-0.1327,0.6448-0.3027,1.2968-0.3159,1.9486c-0.0448,2.2237-0.0109,4.4489-0.0455,6.673
		c-0.0102,0.6596-0.1096,1.3246-0.2384,1.9732c-0.0916,0.461-0.4636,0.7431-0.8949,0.9108
		c-0.2051,0.0798-0.4269,0.1636-0.6416,0.1646c-1.6659,0.0077-3.3335,0.0373-4.9972-0.0262
		c-0.9745-0.0372-1.5829-0.731-1.6761-1.7502c-0.0606-0.6633-0.0885-1.3319-0.089-1.9981
		c-0.006-7.0072-0.0222-14.0145,0.0049-21.0215c0.013-3.3633,0.2338-3.5415,3.6368-3.5595
		c0.5563-0.0029,1.1157,0.0433,1.6685,0.0004c1.4743-0.1145,2.5556,0.537,3.4647,1.6308c2.2752,2.7375,4.5551,5.4716,6.8686,8.1766
		c0.7174,0.8387,1.5261,1.6055,2.352,2.3388c0.1299,0.1154,0.6578-0.0364,0.8518-0.2216c0.2175-0.2077,0.3413-0.5863,0.3713-0.9034
		c0.0837-0.8839,0.123-1.774,0.1341-2.6622c0.0237-1.8906,0.0011-3.7818,0.0363-5.672c0.0102-0.5477,0.1076-1.1046,0.2468-1.6358
		c0.1175-0.4486,0.4814-0.7352,0.9275-0.8768c0.2094-0.0665,0.4323-0.1263,0.6493-0.1273c1.6681-0.0072,3.3369-0.0277,5.004,0.015
		c1.0075,0.0258,1.6138,0.6599,1.689,1.7045c0.0638,0.8863,0.0804,1.7773,0.0829,2.6664c0.0092,3.2255,0.0036,6.451,0.0036,9.6766
		C263.7049,61.114,263.7025,61.114,263.7,61.114z"/>
	<path d="M403.2906,74.8659c-0.5291,0.2803-0.7207,0.4685-0.9151,0.4715c-2.2207,0.034-4.4419,0.0554-6.6628,0.0458
		c-0.949-0.0041-1.7141-0.4417-2.2585-1.2186c-0.8929-1.2743-1.7544-2.5707-2.6562-3.8386
		c-0.3845-0.5406-0.7774-1.1014-1.2727-1.5306c-0.7213-0.6252-1.6033-0.7242-2.5042-0.3759
		c-0.4331,0.1674-0.7952,0.4807-0.872,0.9347c-0.1473,0.8702-0.2103,1.7547-0.3057,2.6335
		c-0.0834,0.769-0.1244,1.5453-0.2595,2.3049c-0.0817,0.4597-0.4657,0.7403-0.8978,0.9055
		c-0.2056,0.0785-0.4274,0.1622-0.6419,0.1623c-1.8867,0.0014-3.7745,0.0161-5.6599-0.0418
		c-0.8087-0.0248-1.3925-0.7111-1.4543-1.5576c-0.0485-0.6641-0.0688-1.3316-0.0692-1.9976
		c-0.0046-7.1144-0.005-14.2287,0.0011-21.3431c0.0005-0.6655,0.0327-1.3326,0.0866-1.996
		c0.0539-0.6609,0.6514-1.2767,1.2875-1.3284c0.6638-0.054,1.3311-0.0873,1.9969-0.0887c3.5587-0.0075,7.118,0.0363,10.6758-0.018
		c1.6955-0.0259,3.3156,0.302,4.9322,0.7137c0.5353,0.1363,1.0524,0.3541,1.5665,0.5623c5.5809,2.26,7.7393,8.4261,5.3107,13.894
		c-0.4565,1.0277-1.1135,1.9233-1.941,2.6854c-0.4903,0.4516-1.0156,0.8651-1.5069,1.3155
		c-0.6855,0.6284-0.7737,1.2094-0.2303,2.0748c0.827,1.3171,1.7138,2.5964,2.5585,3.9026
		C402.1353,72.9677,402.6419,73.8173,403.2906,74.8659z M386.693,54.2062c-0.1921,0.2515-0.3885,0.4075-0.4507,0.6055
		c-0.5794,1.8454-0.5518,3.7112-0.0812,5.5696c0.1465,0.5782,0.6132,0.9438,1.1854,1.0454
		c1.5461,0.2747,3.0926,0.3001,4.6009-0.2339c1.7197-0.6089,2.6523-2.0785,2.479-3.8835c-0.1559-1.6245-1.2712-2.9738-2.8803-3.2511
		C389.9094,53.776,388.2476,53.6762,386.693,54.2062z"/>
	<path d="M730.0421,70.8691c-0.6028,1.2141-1.1344,2.3034-1.6834,3.3838c-0.3245,0.6386-0.8652,1.0226-1.5731,1.0819
		c-2.1022,0.1761-4.2069,0.2511-6.3039-0.0732c-0.5339-0.0826-1.0111-0.7614-0.8652-1.2303
		c0.1644-0.5279,0.3243-1.0614,0.5449-1.5668c3.3288-7.6263,6.6661-15.249,10.0056-22.8706
		c0.2225-0.5078,0.4478-1.0191,0.7275-1.496c0.3536-0.6027,0.8875-1.0238,1.6097-1.0276c2.3293-0.0124,4.6592-0.0065,6.9882,0.0341
		c0.5818,0.0101,1.043,0.3857,1.3453,0.8725c0.2913,0.4691,0.5374,0.9709,0.7593,1.4776
		c3.4712,7.9272,6.9376,15.8564,10.3942,23.7898c0.1742,0.3997,0.3381,0.8403,0.3426,1.2636
		c0.0026,0.2527-0.3032,0.5186-0.4965,0.7573c-0.058,0.0716-0.2046,0.0992-0.3108,0.0999
		c-2.1075,0.0128-4.2154,0.0419-6.3223,0.0156c-0.9737-0.0121-1.6589-0.5365-2.0668-1.4295
		c-0.3685-0.8065-0.7325-1.6174-1.1523-2.3974c-0.2737-0.5086-0.7613-0.7963-1.3357-0.8899
		c-0.3273-0.0534-0.6621-0.086-0.9935-0.0862c-2.6643-0.0018-5.3286-0.0035-7.9928,0.0213
		C731.2305,70.603,730.7991,70.7383,730.0421,70.8691z M735.4713,64.3255c0.6694-0.088,1.4341-0.1625,2.1884-0.2955
		c0.6434-0.1134,1.093-0.882,0.8882-1.5284c-0.2987-0.9428-0.6123-1.884-0.9852-2.7992c-0.3295-0.8088-0.7358-1.5876-1.1345-2.3663
		c-0.166-0.3245-0.9702-0.3355-1.1748-0.0459c-0.0628,0.0887-0.1472,0.1641-0.1994,0.2579
		c-0.9126,1.6438-1.5325,3.4037-2.0539,5.2018c-0.0295,0.1017,0.0015,0.2196-0.0063,0.3292
		c-0.0261,0.3673,0.3741,0.914,0.7482,0.9802C734.2807,64.1545,734.8234,64.227,735.4713,64.3255z"/>
	<path d="M446.4783,70.8989c-0.2572-0.0756-0.5733-0.2463-0.8912-0.2499c-2.9964-0.0339-5.993-0.0465-8.9896-0.0489
		c-0.9919-0.0008-1.6659,0.514-2.0728,1.4013c-0.0926,0.2018-0.1965,0.3989-0.2784,0.6048
		c-1.0898,2.7404-1.553,2.8251-4.5422,2.8489c-1.11,0.0088-2.2214,0.0114-3.3303-0.0312c-1.6671-0.0641-2.0412-0.6039-1.474-2.0559
		c0.121-0.3097,0.2626-0.6114,0.3959-0.9163c3.3344-7.6246,6.6679-15.2496,10.0063-22.8725
		c0.222-0.5069,0.4614-1.0085,0.7287-1.4927c0.3438-0.6226,0.8802-1.0177,1.6039-1.0211c2.33-0.0112,4.6606-0.0119,6.9901,0.0298
		c0.5764,0.0103,1.0434,0.3706,1.3318,0.8826c0.2714,0.4818,0.5239,0.977,0.7458,1.4834
		c3.3856,7.7234,6.7669,15.4487,10.1403,23.1775c0.2204,0.5051,0.3764,1.0393,0.546,1.5653
		c0.1259,0.3906-0.2111,0.9581-0.5952,1.044c-0.1079,0.0241-0.2118,0.0941-0.3177,0.0946
		c-2.1064,0.0091-4.2135,0.0407-6.3191-0.0003c-0.8303-0.0162-1.4418-0.5001-1.8351-1.2481
		C447.7589,73.0243,447.5187,71.7706,446.4783,70.8989z M440.9849,56.7923c-0.1916,0.0986-0.4663,0.1466-0.5619,0.3036
		c-1.0948,1.7982-1.8192,3.7462-2.2529,5.8026c-0.1007,0.4776,0.391,1.0547,0.942,1.1787c1.2008,0.2701,2.4028,0.2468,3.6085,0.0486
		c0.6479-0.1065,1.1311-0.8113,0.9618-1.4805c-0.4871-1.9254-1.1301-3.7944-2.1671-5.5025
		C441.416,56.979,441.1656,56.9069,440.9849,56.7923z"/>
	<path d="M226.3477,75.4981c-1.1078-0.0471-2.218-0.0633-3.3225-0.1516c-0.8213-0.0657-1.4669-0.479-1.8475-1.2369
		c-0.4472-0.8903-0.8338-1.8165-1.3512-2.6634c-0.205-0.3355-0.6767-0.5257-1.055-0.7301
		c-0.1835-0.0991-0.4315-0.1071-0.6505-0.1078c-2.8842-0.0093-5.7685-0.0181-8.6527-0.0082
		c-0.9742,0.0033-1.6917,0.4451-2.0873,1.3642c-0.219,0.5088-0.4866,0.9987-0.6781,1.5171
		c-0.4784,1.2952-1.3627,1.9719-2.7679,1.9457c-1.7733-0.033-3.5482-0.0167-5.3201-0.0831
		c-0.9344-0.035-1.2993-0.7184-0.9625-1.6544c0.1875-0.521,0.3895-1.038,0.611-1.5455c3.3261-7.6221,6.6562-15.2424,9.9869-22.8624
		c0.1332-0.3046,0.2758-0.6056,0.424-0.9032c0.4336-0.8708,1.1204-1.3445,2.1132-1.3436c1.9969,0.0019,3.9939,0.0062,5.9907-0.0054
		c1.1393-0.0066,1.8664,0.5814,2.3374,1.5575c0.2891,0.599,0.5748,1.2001,0.8413,1.8093
		c3.2001,7.3141,6.3961,14.6301,9.5941,21.9451c0.1333,0.3048,0.2875,0.601,0.4104,0.9097c0.6109,1.5349,0.2748,2.103-1.2825,2.1805
		c-0.2216,0.011-0.4435,0.0195-0.6653,0.0206c-0.5548,0.0029-1.1096,0.001-1.6643,0.001
		C226.3488,75.4682,226.3483,75.4832,226.3477,75.4981z M213.9597,57.0374c-0.2051,0.0496-0.4346,0.0577-0.6085,0.1601
		c-0.1798,0.106-0.3704,0.2779-0.4448,0.4652c-0.6495,1.636-1.2876,3.277-1.8973,4.9281c-0.1726,0.4673,0.2427,1.2436,0.6668,1.372
		c1.4059,0.426,2.8197,0.4246,4.2371,0.0606c0.334-0.0858,0.7221-0.6883,0.6368-1.0557c-0.4732-2.0383-1.0933-4.0212-2.3072-5.7633
		C214.1858,57.123,214.0558,57.0923,213.9597,57.0374z"/>
	<path d="M144.4264,57.4021c0.7744,0.5626,1.663,0.639,2.5546,0.6547c1.5553,0.0274,3.1113,0.0171,4.6669,0.0331
		c0.7774,0.0079,1.5567,0.0095,2.3314,0.0657c1.5225,0.1105,2.1044,0.76,2.1741,2.3713c0.0144,0.3326,0.015,0.6664,0.006,0.9992
		c-0.0491,1.8188-0.6086,2.4729-2.3445,2.533c-1.9981,0.0693-4.0003,0.0177-5.9991,0.0726
		c-0.8812,0.0242-1.7667,0.1374-2.635,0.2943c-0.5739,0.1037-0.9725,0.5083-1.0988,1.1086
		c-0.1622,0.7713-0.1731,1.5446,0.0782,2.2999c0.147,0.4417,0.4522,0.8047,0.9061,0.8879c0.7587,0.139,1.5336,0.2496,2.3031,0.2597
		c2.5555,0.0333,5.1118,0.0372,7.6675,0.0138c3.345-0.0306,3.6505,0.2661,3.5781,3.5489c-0.0074,0.3331-0.0078,0.6669-0.0298,0.9991
		c-0.0771,1.1664-0.6835,1.7592-1.928,1.8498c-0.6641,0.0483-1.3319,0.0629-1.9981,0.0635
		c-5.2229,0.0048-10.4459,0.0194-15.6687-0.0032c-3.8283-0.0166-3.9781-0.1618-3.987-3.9087
		c-0.017-7.109,0.0059-14.2181-0.0043-21.3271c-0.0042-2.8848,0.4063-3.2324,3.2638-3.2207
		c5.5562,0.0227,11.1126,0.0016,16.6689,0.0141c0.6614,0.0015,1.3309,0.052,1.981,0.1675c0.4515,0.0802,0.8195,0.4238,0.9137,0.8776
		c0.2956,1.4242,0.3204,2.8611-0.0326,4.2816c-0.1135,0.4566-0.4773,0.7876-0.9133,0.8882
		c-0.6431,0.1484-1.3117,0.2429-1.9711,0.2532c-2.222,0.0347-4.4448,0.0174-6.6673,0.0296
		c-1.1116,0.0061-2.2287,0.007-3.2911,0.3993c-0.4362,0.1611-0.739,0.4943-0.8394,0.9521
		C143.9176,55.7453,143.8705,56.6215,144.4264,57.4021z"/>
	<path d="M346.7342,61.1291c0-3.3332-0.0025-6.6664,0.0019-9.9996c0.001-0.7775,0.0039-1.5561,0.0445-2.3322
		c0.0565-1.0825,0.6154-1.6698,1.6239-1.7421c0.4429-0.0317,0.888-0.0479,1.332-0.0481c5.6688-0.0031,11.3376-0.0046,17.0065,0.0022
		c0.5542,0.0007,1.1096,0.0451,1.6621,0.0958c0.4607,0.0423,1.1073,0.6383,1.1725,1.0606c0.0508,0.3286,0.0991,0.6601,0.1122,0.9917
		c0.161,4.056-0.0827,4.3096-4.2155,4.3413c-1.7784,0.0136-3.5575-0.0218-5.3351,0.0176c-0.9959,0.0221-1.9956,0.1076-2.9824,0.2447
		c-1.0052,0.1396-1.4357,0.7454-1.4704,1.8824c-0.0034,0.1109-0.0048,0.2219-0.003,0.3328
		c0.0188,1.1269,0.4658,1.7548,1.4638,1.8945c0.8768,0.1227,1.7668,0.1847,2.6524,0.2044c1.5555,0.0345,3.1124-0.0017,4.6681,0.0285
		c0.663,0.0128,1.3279,0.0924,1.9852,0.1884c0.623,0.091,1.1637,0.7158,1.2768,1.3779c0.1699,0.9949,0.1823,1.9864-0.0143,2.9803
		c-0.1237,0.6251-0.6932,1.2247-1.3553,1.2923c-0.8819,0.09-1.7698,0.1469-2.6562,0.1637c-1.7779,0.0337-3.5581-0.0082-5.334,0.0629
		c-0.6469,0.0259-1.3041,0.2324-1.9169,0.462c-0.2662,0.0998-0.4677,0.4449-0.6314,0.7187
		c-0.1067,0.1784-0.1143,0.4276-0.1292,0.6476c-0.1515,2.2355,0.3782,2.9111,2.5057,2.9627
		c2.5552,0.062,5.1126,0.0246,7.6689,0.0434c0.9993,0.0074,1.9995,0.0301,2.9971,0.0849c0.7096,0.039,1.3557,0.5949,1.3765,1.2246
		c0.0403,1.2178,0.0423,2.4385,0.0066,3.6565c-0.0189,0.6462-0.6333,1.2475-1.2937,1.328c-0.6598,0.0805-1.3258,0.151-1.9893,0.1525
		c-5.5577,0.0124-11.1154,0.008-16.6731,0.008c-0.2223,0-0.4447-0.0018-0.6668-0.0098c-2.4626-0.0896-2.856-0.4627-2.876-2.9861
		c-0.03-3.7774-0.0078-7.5552-0.0078-11.3328C346.7384,61.1291,346.7363,61.1291,346.7342,61.1291z"/>
	<path d="M504.9539,61.151c0-3.4478-0.0013-6.8956,0.0013-10.3434c0.0004-0.5559,0.0039-1.1126,0.031-1.6676
		c0.0744-1.5221,0.5617-2.0385,1.9823-2.1092c0.4443-0.0221,0.8897-0.0256,1.3347-0.0257
		c5.4521-0.0017,10.9041-0.0044,16.3562,0.0031c0.666,0.0009,1.3332,0.0451,1.9976,0.0978
		c0.4578,0.0363,1.1162,0.6455,1.1687,1.0659c0.055,0.4404,0.1003,0.8843,0.1099,1.3275c0.0799,3.7099-0.1558,3.9574-3.8962,3.9967
		c-2.0026,0.0211-4.0059-0.0129-6.0082,0.0187c-0.8863,0.0139-1.7767,0.0871-2.6548,0.2086
		c-1.0126,0.1401-1.4581,0.7364-1.4623,1.881c-0.0016,0.4401,0.0162,0.9045,0.1569,1.3124
		c0.0962,0.2789,0.3818,0.6105,0.6501,0.6894c0.7368,0.2166,1.5054,0.407,2.2681,0.4367c1.7778,0.0692,3.5599,0.0217,5.3397,0.055
		c0.7753,0.0145,1.5526,0.084,2.3226,0.1792c0.6459,0.0798,1.2118,0.6928,1.333,1.3238c0.191,0.9947,0.1889,1.9871,0.0104,2.983
		c-0.1173,0.6547-0.6667,1.2764-1.3054,1.3449c-0.8822,0.0946-1.7706,0.1586-2.6575,0.176
		c-1.5572,0.0305-3.1163-0.0154-4.6726,0.033c-0.7709,0.0239-1.5472,0.1406-2.3028,0.3012
		c-0.572,0.1215-1.0057,0.5197-1.0591,1.1342c-0.0572,0.658-0.0544,1.3277-0.0048,1.9867c0.0479,0.6367,0.6697,1.2255,1.3346,1.2921
		c0.7734,0.0774,1.5521,0.1323,2.3289,0.1382c2.4478,0.0185,4.8959,0.0294,7.3436,0.006c3.3432-0.032,3.6437,0.2691,3.5714,3.5635
		c-0.0048,0.2224-0.0056,0.4449-0.0153,0.6671c-0.0644,1.4809-0.5851,2.0651-1.9622,2.1701c-0.554,0.0422-1.1113,0.059-1.667,0.0594
		c-5.4521,0.0041-10.9042,0.0242-16.3562-0.0061c-3.3564-0.0186-3.5862-0.2648-3.6097-3.6222
		c-0.0248-3.5588-0.0056-7.118-0.0056-10.677C504.9547,61.151,504.9543,61.151,504.9539,61.151z"/>
	<path d="M619.298,47.3831c0.3695,0.6635,0.8013,1.3099,1.1089,2.0108c3.342,7.6152,6.6677,15.2375,9.9869,22.8626
		c0.3071,0.7055,0.5401,1.4433,0.7603,2.0389c-0.151,0.6339-0.4603,0.9919-0.9283,1.0022c-2.1024,0.0464-4.2064,0.0666-6.309,0.0386
		c-0.8384-0.0112-1.4618-0.5108-1.8417-1.2443c-0.4076-0.7869-0.7217-1.623-1.1443-2.4008c-0.3291-0.6056-0.861-1.0476-1.5906-1.048
		c-3.2144-0.0019-6.4287,0.0191-9.6429,0.0492c-0.2065,0.0019-0.4117,0.15-0.6088,0.2267
		c-0.9233,0.7458-1.1829,1.8655-1.6257,2.8686c-0.4542,1.0288-1.1989,1.5942-2.3032,1.5999
		c-1.9935,0.0102-3.9877-0.0185-5.9809-0.0643c-0.5796-0.0133-0.9493-0.6435-0.7632-1.2236
		c0.1688-0.5259,0.3461-1.0523,0.5665-1.5581c3.2339-7.4204,6.4756-14.8375,9.7159-22.2551
		c0.0444-0.1016,0.0939-0.2009,0.1401-0.3017c1.3387-2.9199,1.3714-2.9566,4.4512-2.9743c1.6633-0.0095,3.327,0.0348,4.9902,0.0728
		C618.4914,47.0879,618.7009,47.2025,619.298,47.3831z M614.678,56.7066c-0.2783,0.2473-0.6294,0.414-0.738,0.6796
		c-0.7073,1.731-1.3848,3.4752-2.0215,5.2334c-0.2278,0.6289,0.2979,1.36,0.9493,1.4842c1.2057,0.23,2.4089,0.2317,3.6141-0.0065
		c0.662-0.1309,1.1738-0.8468,0.9459-1.4815c-0.632-1.7605-1.2985-3.5094-1.999-5.2437
		C615.3223,57.1088,614.9609,56.9484,614.678,56.7066z"/>
	<path d="M310.0791,49.3572c-0.3992,1.4977-1.0453,3.0235-1.8775,4.4732c-0.2568,0.4474-0.9373,0.7396-1.4445,0.6004
		c-0.8566-0.2349-1.7095-0.4857-2.5563-0.7537c-1.9492-0.6172-3.9469-0.5996-5.9442-0.4117
		c-0.5284,0.0497-1.0691,0.2948-1.5401,0.5627c-1.1066,0.6295-1.1729,2.0864-0.1111,2.7378
		c0.6531,0.4006,1.3721,0.7399,2.1063,0.9518c1.1714,0.3382,2.3839,0.5319,3.572,0.8157c1.0797,0.2579,2.1766,0.4807,3.2173,0.8544
		c1.0393,0.3733,2.0723,0.8263,3.0122,1.4008c1.9178,1.1721,2.9768,2.9127,3.1721,5.1873c0.344,4.0067-1.2224,6.8238-4.8008,8.7303
		c-1.2816,0.6828-2.6497,1.2032-4.0923,1.3582c-3.9968,0.4293-7.9868,0.4702-11.914-0.591
		c-0.6424-0.1736-1.2773-0.3771-1.9097-0.585c-2.6735-0.8787-2.4553-1.6645-1.5752-3.6738
		c0.4449-1.0158,0.9321-2.0136,1.4185-3.0106c0.1705-0.3495,0.761-0.5524,1.1684-0.4128c0.8392,0.2876,1.6647,0.616,2.5073,0.8927
		c2.2292,0.732,4.4977,1.2282,6.8678,1.1086c0.904-0.0457,1.7521-0.2587,2.5518-0.684c0.9137-0.4859,1.0559-1.937,0.2-2.542
		c-0.5363-0.3791-1.1194-0.7497-1.7382-0.9421c-1.1636-0.3618-2.3714-0.5789-3.5548-0.8802
		c-1.2905-0.3285-2.5825-0.6559-3.8569-1.0399c-0.6339-0.191-1.2343-0.4978-1.8427-0.7683
		c-5.2316-2.3266-5.519-8.5558-2.6552-12.0964c1.0728-1.3264,2.4084-2.2828,3.9702-2.9516
		c1.4432-0.6181,2.9641-1.0112,4.4986-1.1931c4.0286-0.4777,7.9832-0.0505,11.8009,1.3764
		C309.3563,48.1058,309.9444,48.4496,310.0791,49.3572z"/>
	<path d="M556.9025,56.3598c-0.7816-0.5555-1.473-1.1051-2.2192-1.5659c-1.9848-1.2256-4.0891-1.6227-6.3865-0.9519
		c-2.7504,0.803-4.3405,2.6675-4.8554,5.381c-0.244,1.286-0.2209,2.6724-0.049,3.9778c0.4265,3.2385,3.1005,5.5899,6.366,5.8111
		c1.8345,0.1242,3.5378-0.2244,5.0756-1.2697c0.638-0.4337,1.2872-0.8509,1.7678-1.1677c0.8221-0.1312,1.3035,0.1736,1.7297,0.5236
		c0.8591,0.7055,1.6969,1.4389,2.5138,2.193c1.7332,1.5999,1.6956,2.0771-0.251,3.58c-2.4413,1.8851-5.1818,3.0346-8.2809,3.1543
		c-1.7742,0.0685-3.5748,0.1359-5.3289-0.079c-5.3638-0.6571-9.2994-3.4257-11.6651-8.3259
		c-0.5844-1.2104-0.985-2.4866-1.0295-3.8409c-0.0475-1.4423-0.1481-2.8937-0.0458-4.3283
		c0.3425-4.8005,2.7053-8.4099,6.8196-10.8146c3.7985-2.2201,7.9336-2.7567,12.2487-2.0236
		c2.6755,0.4545,5.1514,1.3854,7.2737,3.122c0.428,0.3502,0.8091,0.7602,1.1943,1.1596c0.4309,0.4469,0.4632,1.1276,0.0616,1.5023
		c-0.6501,0.6065-1.307,1.2073-1.9858,1.7812C559.0129,54.8914,558.29,55.7643,556.9025,56.3598z"/>
	<path d="M589.6793,56.4317c-1.0109-0.6866-1.8-1.2932-2.6539-1.788c-1.9067-1.105-3.916-1.4371-6.0865-0.7983
		c-2.4561,0.723-4.0112,2.3314-4.7546,4.7061c-0.539,1.7218-0.5576,3.501-0.0833,5.2641c0.8196,3.0473,3.3882,5.0714,6.5665,5.2121
		c1.7215,0.0762,3.3024-0.3092,4.7405-1.2669c0.6439-0.4289,1.2958-0.8457,1.8243-1.19c0.7527-0.0889,1.264,0.1425,1.681,0.5166
		c1.1537,1.0352,2.285,2.0959,3.4062,3.1663c0.2722,0.2599,0.2795,0.9533,0.056,1.2553c-0.2627,0.3549-0.5135,0.7322-0.8359,1.0271
		c-2.117,1.9365-4.6438,3.0163-7.4631,3.391c-2.2099,0.2936-4.4353,0.2781-6.6515,0.0274
		c-6.1509-0.6959-11.4666-5.6274-12.4407-11.3385c-0.3795-2.2251-0.5092-4.3636-0.0176-6.5924
		c1.0908-4.9456,3.9609-8.3795,8.5814-10.3023c4.7342-1.97,9.5312-1.8648,14.2857,0.0091c1.5637,0.6163,2.9537,1.5316,4.1497,2.7255
		c0.6315,0.6304,0.7191,1.4748,0.1574,2.0768C592.8547,53.911,591.5072,55.2232,589.6793,56.4317z"/>
	<path d="M711.0854,56.1619c-1.0529-0.0454-1.5502-0.7312-2.2233-1.0889c-0.7798-0.4143-1.5475-0.8803-2.374-1.1731
		c-3.4564-1.2246-8.251,0.3154-9.3852,5.4688c-0.4146,1.8834-0.246,3.7629,0.5657,5.5421c1.1667,2.5572,3.1672,3.9127,5.9725,4.1084
		c1.8421,0.1285,3.5235-0.3028,5.0482-1.3472c0.6342-0.4345,1.2758-0.8584,1.8806-1.2646c0.4302,0.1305,0.8151,0.1386,1.0382,0.3327
		c1.3373,1.1637,2.6478,2.3591,3.9437,3.5691c0.3883,0.3626,0.3353,1.1249-0.0439,1.5185
		c-2.2466,2.3313-5.0403,3.6073-8.1941,4.0815c-2.3148,0.348-4.6731,0.3995-6.9765-0.0037
		c-5.9733-1.0456-10.0969-4.3367-11.9612-10.226c-2.2209-9.5977,2.6152-16.5651,10.4936-18.6954
		c4.5712-1.2361,9.0184-0.8658,13.2661,1.3128c1.2943,0.6638,2.4717,1.4861,3.4022,2.627c0.3455,0.4238,0.3759,1.1684-0.0109,1.5245
		c-1.0614,0.9771-2.1318,1.9453-3.2265,2.8847C711.8898,55.6857,711.4022,55.9491,711.0854,56.1619z"/>
	<path d="M333.1685,54.3794c-0.1582,0.5188-0.4444,1.1299-0.5152,1.765c-0.1101,0.9879-0.0938,1.992-0.0961,2.9893
		c-0.0099,4.2139,0.0198,8.4281-0.0171,12.6416c-0.0287,3.2792-0.3935,3.6348-3.6238,3.6712
		c-1.3275,0.015-2.6577-0.0566-3.9838-0.1366c-0.6581-0.0397-1.2822-0.6541-1.3368-1.2911
		c-0.0756-0.8816-0.1173-1.7688-0.1198-2.6537c-0.0119-4.3248,0.0007-8.6496-0.0111-12.9744
		c-0.0027-0.9965-0.0385-1.9949-0.1115-2.9885c-0.0619-0.843-0.637-1.3847-1.5405-1.4356c-1.217-0.0685-2.438-0.1101-3.6567-0.0972
		c-2.5345,0.0269-3.0405-0.5408-3.0244-3.174c0.0047-0.7722,0.0752-1.5471,0.1673-2.3146c0.0775-0.6461,0.7028-1.2266,1.3477-1.2815
		c0.662-0.0563,1.328-0.0908,1.9923-0.0915c6.3236-0.0067,12.6471-0.0051,18.9707-0.0027c0.5544,0.0002,1.1099,0.006,1.6631,0.0392
		c1.0614,0.0636,1.7391,0.6226,1.7842,1.5957c0.0564,1.2137,0.0459,2.434-0.0088,3.6481c-0.0378,0.8405-0.68,1.4645-1.4987,1.5003
		c-1.3289,0.0581-2.6607,0.0481-3.9905,0.0901c-0.552,0.0174-1.1053,0.0737-1.6516,0.1548
		C333.6998,54.0641,333.5098,54.2143,333.1685,54.3794z"/>
	<path d="M271.3485,60.9737c0-3.6546-0.0094-7.3092,0.0087-10.9637c0.0033-0.6568,0.0786-1.3209,0.199-1.967
		c0.0865-0.4642,0.4861-0.7249,0.9104-0.8876c0.202-0.0774,0.432-0.1126,0.6496-0.1138c1.7723-0.0093,3.5452-0.0351,5.3167,0.0034
		c1.2043,0.0261,1.75,0.6289,1.8444,1.8895c0.0248,0.3311,0.0441,0.6635,0.0442,0.9953c0.0029,7.4199,0.0226,14.8398-0.007,22.2596
		c-0.0114,2.8533-0.4031,3.2076-3.3032,3.2561c-1.3274,0.0222-2.6584-0.0133-3.9841-0.0883
		c-0.976-0.0552-1.5751-0.7302-1.6296-1.7603c-0.0467-0.8838-0.0482-1.7706-0.0495-2.6562c-0.0051-3.3223-0.002-6.6447-0.002-9.967
		C271.3469,60.9737,271.3477,60.9737,271.3485,60.9737z"/>
	<path d="M410.2074,61.142c-0.0005-3.2135-0.0028-6.427,0.0009-9.6405c0.001-0.8863-0.002-1.7736,0.0361-2.6587
		c0.0524-1.2193,0.6188-1.7823,1.8989-1.8042c1.7725-0.0303,3.5467-0.021,5.3188,0.0222c1.0172,0.0248,1.5808,0.645,1.6603,1.7025
		c0.0332,0.4416,0.0493,0.8855,0.0495,1.3283c0.0033,7.3134,0.0061,14.6269-0.0024,21.9403
		c-0.0008,0.6625-0.0384,1.3308-0.1339,1.9855c-0.0847,0.5808-0.4431,1.0788-1.0206,1.1889
		c-2.1944,0.4181-4.4044,0.3552-6.6089,0.0486c-0.4352-0.0605-1.0452-0.7116-1.0801-1.1549
		c-0.0609-0.7718-0.1106-1.5466-0.1132-2.3204C410.2014,68.2338,410.2079,64.6879,410.2074,61.142z"/>
	<path d="M681.4637,61.0678c-0.0002,3.5467,0.0065,7.0934-0.0056,10.64c-0.0026,0.7736-0.0453,1.5496-0.1198,2.3196
		c-0.0612,0.6311-0.6857,1.2173-1.3438,1.2904c-1.9888,0.221-3.9806,0.2267-5.968-0.0112
		c-0.8033-0.0962-1.4041-0.7172-1.4947-1.5481c-0.084-0.7689-0.1406-1.5449-0.1418-2.3179
		c-0.0106-6.8717-0.0074-13.7434-0.0042-20.615c0.0004-0.5537,0.0119-1.1088,0.0507-1.661
		c0.1102-1.5687,0.6724-2.1063,2.3411-2.1368c1.6621-0.0305,3.3262-0.0176,4.9882,0.0224c0.9877,0.0238,1.5958,0.6767,1.6541,1.7163
		c0.0434,0.7738,0.0412,1.5507,0.0422,2.3263C681.4662,54.4178,681.4639,57.7428,681.4637,61.0678z"/>
</g>
</svg>
