<svg width="32" height="32" viewBox="0 0 32 32" fill="none" xmlns="http://www.w3.org/2000/svg">
<mask id="mask0_3813_2239" style="mask-type:alpha" maskUnits="userSpaceOnUse" x="0" y="0" width="32" height="32">
<rect width="32" height="32" fill="#D9D9D9" style="fill:#D9D9D9;fill:color(display-p3 0.8510 0.8510 0.8510);fill-opacity:1;"/>
</mask>
<g mask="url(#mask0_3813_2239)">
<path d="M5.33464 26.6663C4.6013 26.6663 3.97352 26.4052 3.4513 25.883C2.92908 25.3608 2.66797 24.733 2.66797 23.9997V7.99967C2.66797 7.26634 2.92908 6.63856 3.4513 6.11634C3.97352 5.59412 4.6013 5.33301 5.33464 5.33301H26.668C27.4013 5.33301 28.0291 5.59412 28.5513 6.11634C29.0735 6.63856 29.3346 7.26634 29.3346 7.99967V23.9997C29.3346 24.733 29.0735 25.3608 28.5513 25.883C28.0291 26.4052 27.4013 26.6663 26.668 26.6663H5.33464ZM16.0013 17.333L5.33464 10.6663V23.9997H26.668V10.6663L16.0013 17.333ZM16.0013 14.6663L26.668 7.99967H5.33464L16.0013 14.6663ZM5.33464 10.6663V7.99967V23.9997V10.6663Z" fill="black" style="fill:black;fill-opacity:1;"/>
</g>
</svg>
