<svg width="95" height="48" viewBox="0 0 95 48" fill="none" xmlns="http://www.w3.org/2000/svg">
<g clip-path="url(#clip0_3822_2369)">
<path d="M92.524 27.4269C93.8448 25.2602 94.7008 22.8674 94.5458 20.5508C94.4548 19.1768 93.7673 17.7806 92.5498 17.1366C91.7725 16.7262 90.8551 16.6512 89.9806 16.7458C86.1927 17.1563 84.0147 20.2595 82.3974 23.3872C81.5587 25.0083 80.7654 26.6797 79.5749 28.0623C76.1609 32.0257 70.0461 31.6743 66.3824 28.2577C62.26 24.4122 61.7619 18.3693 64.363 13.5271C66.4144 9.70992 70.7557 7.82466 74.9766 8.5301C77.4276 8.94058 79.7164 10.1794 81.4763 11.9319C82.3396 12.7922 83.1833 13.8319 84.3849 14.0408C85.3478 14.208 86.3194 13.784 87.1311 13.2396C87.6021 12.9225 88.0473 12.5562 88.3782 12.0966C89.2194 10.9229 89.1788 9.28592 88.5995 7.96231C88.0203 6.63993 86.9823 5.57563 85.9049 4.61334C82.518 1.58636 78.0758 0.176717 73.5573 0.43849C69.3365 0.684286 65.5018 2.23035 62.7113 5.43553C59.9651 8.71445 59.5531 11.4108 59.5531 11.4108C59.5531 11.4108 59.5076 7.75461 55.8168 4.61825C54.2143 3.25654 52.1076 2.33849 49.9 2.25001C49.1683 2.22051 48.4304 2.22789 47.7072 2.26967C45.6251 2.39011 43.5184 2.80919 41.2653 3.54781C33.6612 6.04387 26.7679 11.6185 21.3148 17.3419C19.9816 18.7405 18.7013 20.2165 17.7777 21.9125C17.2145 22.9473 16.8886 24.4479 17.8491 25.1299C18.3459 25.4827 19.0359 25.4544 19.5954 25.2147C20.155 24.9751 20.6138 24.5535 21.0614 24.1406C22.7414 22.5884 24.4214 21.0362 26.1025 19.484C27.705 18.0031 31.2433 16.7606 30.9813 20.1563C30.8288 22.1288 29.6248 24.2193 28.5241 25.8194C26.8896 28.195 25.0141 30.4305 22.7242 32.1376C19.379 34.6312 13.5262 36.8728 10.2548 33.0642C8.62277 31.1642 7.87626 28.1717 8.35467 25.4409C9.63494 18.1297 17.6621 14.4317 20.0923 13.4718C22.52 12.5132 25.4507 10.3097 25.1875 7.38346C25.0264 5.60144 23.4326 4.18934 21.6923 3.76657C19.9521 3.3438 18.1147 3.73093 16.4261 4.32698C9.24508 6.86114 2.94335 13.6697 1.01004 21.0436C-0.80767 27.975 1.66801 36.9552 8.51455 40.2071C13.397 42.5274 19.2117 40.0793 23.0587 36.8802C27.7087 33.0126 31.5348 28.1594 34.2085 22.7359C33.7977 24.6433 33.6895 26.3896 33.644 27.1762C33.4853 29.9144 33.9772 31.748 35.1075 32.623C36.0077 33.3211 37.3876 33.6222 39.209 33.5165C39.3504 33.5079 39.4956 33.4981 39.6419 33.4845C47.3309 32.7939 54.9658 27.3999 58.2089 20.3676L58.7537 19.1854L58.9246 20.4758C59.0488 21.2931 59.2678 22.1411 59.5223 22.9878C59.7855 23.8629 60.1471 24.8141 60.5972 25.8157C62.228 29.4461 65.4145 32.9831 68.9122 35.0466C71.7777 36.7377 75.0577 37.5697 78.1483 37.3903C81.7444 37.1813 84.819 35.2862 87.5419 33.0814C89.3005 31.6571 91.1613 29.6612 92.5252 27.4244L92.524 27.4269ZM50.0562 17.9257C49.4388 19.8871 48.4304 21.9223 47.3579 23.3688C45.8649 25.3843 43.9746 26.8603 41.8901 27.6383C41.317 27.8521 40.7857 27.975 40.3097 28.0021C39.5669 28.0451 38.9557 27.8607 38.4932 27.4527C37.3126 26.4118 37.5721 24.4012 37.9312 22.7654C38.2325 21.3889 38.535 20.0137 38.8364 18.6409C39.15 17.2165 39.5989 15.7344 39.3824 14.2571C39.1819 12.8942 38.3764 11.5436 36.9645 11.3101C39.1524 10.0503 41.3452 8.95778 43.8959 8.80908C44.6363 8.76606 45.3779 8.80539 46.0998 8.92706C47.647 9.1876 48.8657 10.0036 49.627 11.2867C50.6429 12.9987 50.8064 15.5427 50.0562 17.9269V17.9257Z" fill="black" style="fill:black;fill-opacity:1;"/>
<path d="M91.8027 0.578778C93.2318 0.578778 94.394 1.74017 94.394 3.16824C94.394 4.59632 93.2318 5.75771 91.8027 5.75771C90.3737 5.75771 89.2115 4.59632 89.2115 3.16824C89.2115 1.74017 90.3737 0.578778 91.8027 0.578778ZM91.8027 0.40918C90.2777 0.40918 89.043 1.6443 89.043 3.16701C89.043 4.68972 90.279 5.92484 91.8027 5.92484C93.3265 5.92484 94.5625 4.68972 94.5625 3.16701C94.5625 1.6443 93.3265 0.40918 91.8027 0.40918Z" fill="black" style="fill:black;fill-opacity:1;"/>
<path d="M91.0758 4.06038C91.0893 4.31355 91.1865 4.48807 91.3685 4.58393C91.4619 4.63431 91.5665 4.66012 91.6846 4.66012C91.9035 4.66012 92.0904 4.56918 92.2441 4.38729C92.3979 4.2054 92.5086 3.83548 92.5725 3.27752C92.4704 3.43852 92.345 3.55158 92.1949 3.61672C92.0449 3.68185 91.8826 3.71504 91.7104 3.71504C91.3586 3.71504 91.0819 3.60566 90.8765 3.3869C90.6712 3.16814 90.5703 2.8867 90.5703 2.54259C90.5703 2.19848 90.6712 1.92073 90.8729 1.67001C91.0746 1.4193 91.3722 1.29395 91.7657 1.29395C92.297 1.29395 92.6635 1.5336 92.8652 2.01167C92.9771 2.27467 93.0337 2.60281 93.0337 2.99854C93.0337 3.44466 92.9673 3.83917 92.8332 4.18328C92.6106 4.75599 92.2343 5.04234 91.703 5.04234C91.3463 5.04234 91.0758 4.94893 90.8913 4.76213C90.7068 4.57532 90.6134 4.34182 90.6134 4.06038H91.077H91.0758ZM92.2687 3.13373C92.4188 3.01452 92.4938 2.80559 92.4938 2.50695C92.4938 2.23903 92.4261 2.03994 92.2909 1.90844C92.1556 1.77693 91.9846 1.7118 91.7756 1.7118C91.5517 1.7118 91.3734 1.78677 91.2418 1.9367C91.1102 2.08664 91.045 2.28696 91.045 2.53767C91.045 2.77487 91.1028 2.96413 91.2184 3.10301C91.334 3.24311 91.5185 3.31316 91.7706 3.31316C91.9527 3.31316 92.1175 3.25294 92.2687 3.13373Z" fill="black" style="fill:black;fill-opacity:1;"/>
<path d="M30.5699 41.9879C30.6904 41.1412 31.1663 40.7319 32.0223 40.7319C32.925 40.7319 33.289 41.1412 33.1624 42.0347C33.0689 42.686 32.5942 43.2403 32.5056 43.8486C32.4171 44.468 32.8783 44.5602 32.6876 45.9231C32.5438 46.9321 31.8304 47.5884 30.8761 47.5884C30.2243 47.5884 29.7496 47.3045 29.5958 46.7883C29.5024 46.4713 29.4236 45.4303 29.2367 44.9412C29.1617 44.7458 29.0645 44.6155 28.9292 44.6204C28.8038 44.6253 28.6353 44.7089 28.5935 45.0211C28.5283 45.4869 29.003 46.1468 28.8407 46.7797C28.687 47.3611 28.1053 47.5896 27.3231 47.5896C26.4007 47.5896 25.9911 47.0034 26.1449 45.9244C26.3355 44.5614 27.0992 44.468 27.1878 43.8499C27.2763 43.2403 26.9455 42.7327 27.0439 42.0359C27.1693 41.1424 27.649 40.7332 28.5615 40.7332C29.1764 40.7332 29.693 41.0171 29.9586 41.6352C30.2562 42.3284 30.1542 42.9748 30.3682 43.6446C30.41 43.77 30.4985 43.8769 30.6572 43.8449C30.8244 43.8118 30.8945 43.7097 30.9081 43.4824C30.9265 43.1653 30.4838 42.5988 30.5686 41.9892L30.5699 41.9879Z" fill="black" style="fill:black;fill-opacity:1;"/>
<path d="M32.614 45.9246C32.6509 44.7989 33.2425 44.4683 33.331 43.8501C33.4196 43.2405 33.2376 42.9615 33.3728 42.3335C33.6004 41.2864 34.6162 40.7334 36.3146 40.7334C38.0131 40.7334 38.8801 41.2877 38.81 42.3335C38.7682 42.9615 38.5124 43.2405 38.4238 43.8501C38.3353 44.4695 38.8432 44.7989 38.564 45.9246C38.3168 46.8967 37.098 47.5899 35.3701 47.5899C33.6422 47.5899 32.5808 46.8967 32.614 45.9246ZM36.488 44.8689C36.5631 44.3527 36.381 44.2311 36.4093 43.7899C36.4425 43.3524 36.5914 43.2086 36.6332 42.8878C36.6934 42.4503 36.4659 42.2598 36.0834 42.2598C35.7009 42.2598 35.4181 42.4503 35.3566 42.8878C35.3148 43.2086 35.4119 43.3536 35.3234 43.7899C35.2348 44.2323 35.0159 44.3527 34.9421 44.8689C34.877 45.3347 35.2262 45.5903 35.6173 45.5903C36.0084 45.5903 36.4229 45.3347 36.488 44.8689Z" fill="black" style="fill:black;fill-opacity:1;"/>
<path d="M45.1941 47.2431H44.2262V41.3219H42.2215V47.2431H41.2635V41.3219H39.2687V47.2431H38.3008V41.3526H39.2883V40.3657H41.2438V41.3526H42.251V40.3657H44.2065V41.3526H45.1941V47.2431Z" fill="black" style="fill:black;fill-opacity:1;"/>
<path d="M53.0925 47.2431H52.1246V44.2825H48.1743V43.3153H52.1246V41.3219H47.1671V47.2431H46.1992V41.3526H47.1868V40.3657H52.1049V41.3526H53.0925V47.2431Z" fill="black" style="fill:black;fill-opacity:1;"/>
<path d="M60.9909 46.2562H59.9935V47.2431H54.0977V40.3657H60.0034V41.3526H60.9909V46.2562ZM59.9935 46.2562V41.3526H55.0852V46.2562H59.9935Z" fill="black" style="fill:black;fill-opacity:1;"/>
<path d="M68.8834 41.3219H62.9679V43.3251H67.8959V44.2825H62.9679V46.2759H68.8834V47.2431H62.9876V46.2464H62V41.3526H62.9876V40.3657H68.8834V41.3231V41.3219Z" fill="black" style="fill:black;fill-opacity:1;"/>
</g>
<defs>
<clipPath id="clip0_3822_2369">
<rect width="95" height="48" fill="white" style="fill:white;fill-opacity:1;"/>
</clipPath>
</defs>
</svg>
