<?xml version="1.0" encoding="utf-8"?>
<!-- Generator: Adobe Illustrator 28.1.0, SVG Export Plug-In . SVG Version: 6.00 Build 0)  -->
<svg version="1.1" id="Livello_1" xmlns="http://www.w3.org/2000/svg" xmlns:xlink="http://www.w3.org/1999/xlink" x="0px" y="0px"
	 viewBox="0 0 2121 233" style="enable-background:new 0 0 2121 233;" xml:space="preserve">
<g>
	<polygon points="2016.7468,0 1949.9778,11.6685 1977.0471,108.8925 1971.5898,134.7687 1925.4414,162.2003 1914,230 
		1930.1251,225.5618 1938.4216,172.2509 1978.8506,149.726 2038.4028,175.0056 2087.1284,221.6703 2121,151.6686 
		2108.7817,130.2805 2117.8079,112.7809 2108.6816,61.5189 2052.8423,89.4471 2087.1284,38.8877 2047.429,15.557 2032.9895,17.4996 
			"/>
	<path d="M1766.4515,114.2h96.6V230h-29.3999v-80.1h-0.6c0,52.2-28.5001,83.1-77.1001,83.1c-51,0-83.1-42.3-83.1-114
		s36.6-114,98.4-114c49.2,0,82.5,30.6,90,81.6h-30c-6.6-34.8-29.1-55.8-60-55.8c-41.7001,0-66,32.7-66,88.2s23.7,88.2,64.2,88.2
		c39,0,62.1001-26.4,63.3-70.8h-66.3V114.2z M1512.2015,149h86.1l-42.6-138h-0.6L1512.2015,149z M1623.5016,230l-17.4-55.8h-101.7
		l-17.4,55.8h-32.1l73.7999-222h55.5l73.2001,222H1623.5016z M1420.7836,8l7.2001,222h-31.5l-6.6-219h-0.6001l-57.9,219h-55.5
		l-54.6-219h-0.6l-6.6,219h-29.7001l6.9-222h60.9l52.2,219h0.6001l55.2-219H1420.7836z M1047.3328,207.2c41.4,0,66-32.7,66-88.2
		s-24.6-88.2-66-88.2c-42,0-66.6,32.7-66.6,88.2S1005.3328,207.2,1047.3328,207.2z M1047.3328,233c-62.1,0-98.7-42.3-98.7-114
		s36.6-114,98.7-114c61.8,0,98.4,42.3,98.4,114S1109.1328,233,1047.3328,233z M819.2836,114.2h96.6V230h-29.4v-80.1h-0.6
		c0,52.2-28.5,83.1-77.1,83.1c-51.0001,0-83.1-42.3-83.1-114s36.6-114,98.4-114c49.2,0,82.5,30.6,90,81.6h-30
		c-6.6-34.8-29.1-55.8-60-55.8c-41.7,0-66,32.7-66,88.2s23.7,88.2,64.2,88.2c39.0001,0,62.1-26.4,63.3-70.8h-66.3V114.2z
		 M610.3453,114.2l118.5,115.8h-40.8l-113.7-114.3h-0.6V230h-30.3V8h30.3v105h0.6l105-105h38.1L610.3453,114.2z M459.6961,8h29.7
		v222h-53.7l-85.5-219h-0.6l1.2,219h-30.3V8h54l85.5,219h0.6L459.6961,8z M234.9492,230V8h31.5v222H234.9492z M93.6,114.2h96.6V230
		h-29.4v-80.1h-0.6c0,52.2-28.5,83.1-77.1,83.1C32.1,233,0,190.7,0,119S36.6,5,98.4,5c49.2,0,82.5,30.6,90,81.6h-30
		c-6.6-34.8-29.1-55.8-60-55.8c-41.7,0-66,32.7-66,88.2s23.7,88.2,64.2,88.2c39,0,62.1-26.4,63.3-70.8H93.6V114.2z"/>
</g>
</svg>
