<?xml version="1.0" encoding="utf-8"?>
<!-- Generator: Adobe Illustrator 28.1.0, SVG Export Plug-In . SVG Version: 6.00 Build 0)  -->
<svg version="1.1" id="Livello_1" xmlns="http://www.w3.org/2000/svg" xmlns:xlink="http://www.w3.org/1999/xlink" x="0px" y="0px"
	 viewBox="0 0 547.1479 786.0864" style="enable-background:new 0 0 547.1479 786.0864;" xml:space="preserve">
<g>
	<path d="M485.6855,618.904c11.4451-9.6609,20.5862-22.7944,38.0674-25.6687c-5.0963,5.2809-9.773,9.3766-13.5294,14.1903
		c-6.09,7.8043-14.7071,11.6463-23.0991,15.8289c-4.5282,2.2567-8.2986,4.8133-11.4843,8.9811
		c-5.2952,6.9278-11.8436,12.8871-17.2819,19.7181c-11.4509,14.3833-27.0239,23.9081-40.9208,35.396
		c-2.947,2.436-6.7811,3.7988-10.0787,6.2103c14.9339-4.6665,29.652-10.6626,45.2793-6.4716
		c-6.0479,2.682-11.9465,5.606-18.069,7.9435c-10.2369,3.9082-20.7574,3.5983-31.3324,1.3334
		c-1.5253-0.3267-3.3156-0.4567-4.7548,0.017c-14.1838,4.6666-28.3263,9.4598-42.4662,14.259
		c-9.0171,3.0603-18.2649,3.1404-27.6113,2.3954c-1.7358-0.1383-3.5102,0.207-6.059,0.3842
		c-0.6249-10.182-1.2739-20.756-1.9755-32.1892c-5.4345-0.2733-11.1401-0.3521-16.7999-0.9025
		c-5.8848-0.5723-11.79-1.2915-17.5698-2.5024c-8.2836-1.7357-16.4856-3.8832-24.678-6.025
		c-9.5173-2.4882-19.0718-4.8958-28.4273-7.9064c-2.9882-0.9615-5.5261-3.5771-8.0432-5.7043
		c-13.414-11.3357-27.19-22.2916-38.3078-36.0739c-8.8636-10.9879-16.4534-22.7849-23.2397-35.1645
		c-2.2019-4.0167-6.3438-7.0067-8.3662-11.0782c-5.9022-11.8829-11.0996-24.1135-16.7391-36.13
		c-3.0828-6.5686-6.6952-12.8906-9.7227-19.4828c-4.5655-9.9412-9.5665-19.7709-13.0723-30.0929
		c-8.3642-24.6259-18.7905-48.2921-33.5407-69.6517c-6.7183-9.7286-15.8054-17.945-24.4356-26.2018
		c-13.9529-13.3492-29.8051-24.2437-46.1095-34.5834c-5.4884-3.4805-11.2233-7.8145-11.3169-15.9039
		c-0.0542-4.6821,1.9056-7.725,5.831-9.5187c16.285-7.4413,33.1281-11.9182,51.0534-7.2979
		c10.4058,2.6821,21.1462,5.0417,30.76,9.6031c16.4185,7.7902,31.1945,18.1025,41.344,34.0102
		c4.144,6.4951,9.8215,11.9929,14.4826,18.1843c2.4786,3.2924,4.0671,7.2424,6.422,10.643
		c6.2282,8.994,12.6267,17.8949,21.541,24.5218c6.2837,4.6712,10.3273,3.6844,13.1023-3.5683
		c5.1761-13.5281,8.8133-27.32,9.3788-42.042c0.6368-16.5792,2.4619-33.1304,4.2377-49.6435
		c2.2258-20.6979,3.5443-41.3598,2.5286-62.2187c-0.9306-19.1116-0.5798-38.282-1.1169-57.4174
		c-0.4338-15.4557-1.3829-30.8965-2.0351-46.3469c-0.2991-7.0848-0.4242-14.1767-0.6457-21.2649
		c-0.5479-17.539-1.3171-35.0745-1.5941-52.6177c-0.2272-14.3892-0.6304-28.9122,3.9447-42.8144
		c1.6398-4.983,4.3779-9.7094,7.2213-14.166c3.9071-6.1237,16.6693-5.4254,21.3492,1.0875
		c5.6278,7.8321,8.7415,16.8546,10.3606,26.2044c2.2091,12.7572,3.696,25.6419,5.3875,38.4858
		c2.0176,15.3209,3.7991,30.6738,5.9161,45.9806c1.8835,13.6187,4.2696,27.1688,6.0956,40.7945
		c1.855,13.8416,3.1063,27.7643,4.9734,41.6042c1.7986,13.3312,4.0416,26.6027,6.121,39.8955
		c0.0641,0.4105,0.4793,0.7662,1.6287,2.5085c0.6721-7.423,1.5328-13.5145,1.7069-19.6256
		c0.2843-9.9828-1.2621-20.2244,0.4611-29.9126c2.7993-15.738,2.8654-31.5423,2.4424-47.2103
		c-0.8743-32.3915,2.6594-64.5195,4.012-96.7674c0.5335-12.7192,2.1243-25.4131,3.6799-38.0636
		c0.9875-8.0311,2.2064-16.1273,4.3912-23.8933c2.5718-9.1415,11.0038-11.8738,18.9984-12.8619
		c7.5459-0.9327,12.4266,4.8129,15.5695,11.105c5.6069,11.2255,6.6429,23.5481,7.2659,35.8156
		c0.9346,18.4026,1.9102,36.8195,2.119,55.2388c0.3945,34.7998,3.6534,69.3847,6.7419,103.9979
		c1.4764,16.5469,2.4296,33.1401,3.8192,49.6956c0.8332,9.9266,2.02,19.8245,3.1381,29.725
		c0.1332,1.1794,0.8358,2.2946,2.4998,3.3771c0.8384-7.6605,1.8411-15.3071,2.4832-22.984
		c1.6924-20.2371,3.5689-40.4674,4.743-60.7369c1.5768-27.2204,2.6661-54.4709,3.7625-81.7167
		c0.6082-15.116,0.4075-30.2728,1.3281-45.3651c0.605-9.9196,2.2308-19.817,4.0201-29.611
		c1.3203-7.2267,10.4771-13.7658,17.1271-11.4875c4.222,1.4465,8.2171,5.535,10.7197,9.4562
		c2.4314,3.8096,3.1864,8.8524,4.0277,13.472c1.0358,5.687,0.8652,11.6183,2.1472,17.2314
		c4.9619,21.7273,5.1699,43.9269,6.9057,65.9627c1.7704,22.4739,2.5986,45.025,4.5352,67.4822
		c1.4976,17.366,4.1139,34.6342,6.1417,51.9564c0.8119,6.9351,1.3505,13.9017,2.0723,20.8478
		c0.3024,2.911,0.7571,5.8062,1.1425,8.7086c0.4809,0.0099,0.9617,0.0197,1.4426,0.0296c0.5547-4.0418,1.2864-8.0686,1.6317-12.1282
		c1.1547-13.5754,1.8821-27.193,3.2996-40.7393c3.1334-29.9466,4.3892-59.9593,5.0388-90.0562
		c0.2688-12.4557,2.8011-24.9826,9.2519-36.2826c5.3105-9.3029,19.8703-10.3069,24.8595-0.8881
		c3.3632,6.3491,6.0334,13.465,7.1217,20.5293c1.8145,11.7798,2.4969,23.7782,2.9619,35.7116
		c0.7372,18.9238,0.5283,37.8879,1.4389,56.8004c0.6223,12.9258,3.149,25.7675,3.6273,38.6911
		c1.0251,27.7086,1.7355,55.447,1.6671,83.171c-0.04,16.2071-1.7405,32.4161-2.8566,48.613
		c-1.3318,19.3281-2.993,38.6342-4.2253,57.9681c-1.2871,20.1912-1.71,40.4506-3.4977,60.5926
		c-1.3922,15.6859-4.463,31.2162-6.4845,46.8549c-1.9612,15.1715-6.7617,29.4534-13.4443,43.0573
		c-2.8853,5.8738-8.0862,10.6476-10.7462,16.5878c-8.2953,18.5253-25.6722,28.1215-39.548,41.0847
		c-3.35,3.1298-9.0336,3.8795-13.7474,5.4042c-7.1789,2.3221-14.3569,4.7676-21.7006,6.4313
		c-10.4639,2.3704-21.0616,4.1724-31.6368,6.0179c-3.2424,0.5659-5.0281,1.5829-4.9059,5.3406
		c0.2482,7.6378,0.0742,15.2893,0.0742,23.0962c13.8063,6.6084,29.8622-0.7852,34.1104-15.7109
		c0.7675-2.6965,2.681-5.564,4.9018-7.2524c5.6713-4.3119,11.793-8.0364,17.7969-11.8988c0.7329-0.4716,1.848-0.3491,3.1152-0.5557
		c-8.418,10.2594-16.5658,20.1895-24.7136,30.1194c0.35,0.5298,0.7001,1.0594,1.05,1.5891
		c5.2779-1.553,10.7505-2.6411,15.7941-4.7534c11.3392-4.7494,22.7655-9.4471,33.5792-15.2427
		c7.9695-4.2712,15.5115-9.7,22.2705-15.708c3.0691-2.7281,4.1663-7.9945,5.4399-12.3209
		c1.0195-3.4631,1.5247-7.2883,1.2567-10.8782c-0.6588-8.8237,2.5885-16.6876,5.4371-24.6235
		c1.0131-2.8225,3.3196-5.1806,5.2083-8.0091c-1.882,15.4814-3.6564,30.0767-5.6277,46.2935
		c8.1068-8.7451,15.7397-16.4427,22.7371-24.6801c6.8317-8.0424,13.0493-16.6588,15.6979-27.1517
		c1.9845-7.8619,3.8195-15.782,5.1795-23.7683c0.4014-2.3562-0.5098-5.3268-1.7363-7.498
		c-4.1572-7.3594-9.0779-14.2999-13.0317-21.7583c-3.6031-6.797-3.8622-14.4234-3.9538-21.9263
		c0.4917-0.1665,0.9834-0.333,1.4752-0.4996c6.3061,13.4872,12.6122,26.9744,19.204,41.0728
		c1.368-12.4738,2.9207-24.7776,4.0189-37.1219c1.3262-14.9067,2.4178-29.8397,3.2236-44.7822
		c0.1312-2.433-1.2908-5.2836-2.7604-7.4126c-7.1599-10.3723-15.3699-20.1163-18.7388-32.6451
		c-0.4927-1.8323-0.5969-3.769-0.8808-5.6575c0.5095-0.2328,1.0189-0.4656,1.5283-0.6984
		c7.4677,11.142,14.9354,22.2841,22.5779,33.6871c0.2902-4.598,0.5622-9.3035,0.8881-14.0052
		c1.4835-21.402,3.0558-42.7986,4.355-64.2118c0.1223-2.0156-0.8677-4.7398-2.3135-6.1067
		c-10.3732-9.8069-15.1747-22.3264-18.1638-35.8127c-0.1062-0.4793-0.1443-0.9895-0.1107-1.4782
		c0.0209-0.3048,0.2364-0.5963,0.7121-1.7009c9.3489,9.7017,14.7529,21.2272,18.897,33.5284
		c0.4406-0.1063,0.8812-0.2125,1.3218-0.3187c0.415-4.3387,1.2238-8.6819,1.1746-13.0154
		c-0.1794-15.8005,0.4421-31.7227-1.3563-47.3555c-1.373-11.9345-5.7226-23.5671-9.1613-35.212
		c-3.4714-11.7554-7.4518-23.3604-11.4211-35.6892c3.2708-0.4449,6.2941-0.8561,10.1352-1.3786
		c-0.8068-4.7625-1.4966-9.4437-2.4066-14.0816c-2.0092-10.2408-4.0283-20.4823-6.3021-30.6657
		c-0.3865-1.7316-2.4598-3.0439-3.0355-4.7872c-0.6876-2.0823-1.3211-4.7167-0.5717-6.5311
		c0.4238-1.0263,4.5615-1.8557,5.4384-1.0486c1.3571,1.2492,1.6762,3.9484,1.8497,6.0803c0.2203,2.7075-0.6399,5.5499-0.1753,8.1826
		c2.5081,14.2133,5.282,28.3795,7.9585,42.5631c7.5636,1.751,8.0325,1.1689,8.231-6.3454
		c0.3605-13.6467,1.1594-27.2815,1.5571-40.9276c0.056-1.9211-0.7645-4.0981-1.8026-5.7697
		c-1.7851-2.8745-2.5947-5.9696,0.1377-8.0068c1.4371-1.0715,6.1211-0.6575,6.4469,0.1932c0.9393,2.4526,0.76,5.521,0.3496,8.2465
		c-0.3569,2.3705-2.2825,4.5742-2.3863,6.9019c-0.6006,13.462-0.8713,26.9388-1.2399,40.411
		c-0.0446,1.6324-0.0061,3.267-0.0061,4.8569c6.2655,0.9805,7.2101,0.2837,8.2915-5.4026
		c2.3315-12.2592,4.846-24.4852,7.0132-36.7728c0.4316-2.4473-0.6583-5.1292-0.4936-7.667
		c0.1693-2.6106,1.0153-5.1773,1.5652-7.7632c2.0723,0.6339,5.6151,0.8766,5.9094,1.9832c0.6045,2.2733-0.3348,5.0638-1.027,7.5325
		c-0.3741,1.3341-2.0046,2.3445-2.2928,3.6697c-3.1773,14.6094-6.202,29.252-9.2798,43.9413
		c2.9778,1.467,4.7407,2.0444,5.9728-1.6816c4.0026-12.1044,8.5187-24.0398,12.4629-36.162
		c0.769-2.3636-0.3188-5.2802-0.2231-7.9299c0.0796-2.2001-0.0782-5.092,1.1885-6.3755c1.2887-1.3058,4.3124-1.6176,6.3392-1.2034
		c1.1876,0.2427,2.7697,2.8309,2.6432,4.2251c-0.1899,2.0948-1.5079,4.2113-2.7393,6.0563
		c-1.5715,2.3548-4.3232,4.1765-5.1934,6.7012c-4.0514,11.7548-7.6356,23.671-11.3492,35.5412
		c-0.13,0.4154,0.139,0.9558,0.2715,1.7244c1.0652,0.1896,2.1585,0.4705,3.2676,0.5652c3.2755,0.2795,3.7969,2.2495,3.0032,4.9146
		c-1.6593,5.5715-3.1918,11.1937-5.1556,16.6588c-3.1959,8.894-7.1081,17.5474-9.9762,26.5389
		c-5.0374,15.7922-10.2492,31.6365-7.8573,48.6804c0.4028,2.8703,0.3754,5.801,1.3741,9.0298
		c7.8403-13.2652,13.1953-28.1635,28.3561-35.8301c-1.2314,2.8748-2.0386,6.0402-3.7721,8.5711
		c-5.7119,8.3391-11.5531,16.6081-17.7438,24.5947c-4.8382,6.2419-8.5387,12.4077-8.4389,20.8821
		c0.1327,11.259-0.8751,22.5464-1.725,33.7965c-0.5094,6.7421-1.6525,13.4363-1.8259,20.5863
		c9.4308-11.0153,15.6086-25.0042,31.0023-30.5445c-1.796,3.3102-3.0293,7.1339-5.4932,9.8347
		c-7.4481,8.164-15.4169,15.851-23.0702,23.8319c-1.2599,1.314-2.6653,3.1154-2.7997,4.7882
		c-2.1824,27.1501-4.1702,54.3159-6.2019,81.478c-0.0482,0.6448-0.0935,1.2899,0.8033,2.8312
		c2.3021-2.3088,5.2607-4.2512,6.7895-6.9914c5.7606-10.3249,13.4848-18.4401,24.202-23.5753
		c1.0875-0.5211,2.2487-0.8883,4.6713-1.8312c-6.4886,8.2111-11.6141,15.6746-17.7558,22.1785
		c-5.5243,5.85-12.2301,10.5731-18.2498,15.9771c-1.0764,0.9662-1.7557,2.7805-1.9306,4.2834
		c-2.0381,17.5088-3.54,35.0916-6.0723,52.5259c-1.1092,7.6369-4.2299,14.9849-6.4835,22.4502
		c-0.6639,2.1995-1.4864,4.3511-2.2363,6.5248C485.103,618.3337,485.3943,618.6188,485.6855,618.904z M242.7852,422.6122
		c1.1207,11.6989,2.2338,23.3984,3.3664,35.096c0.3651,3.7712,1.9092,5.4543,5.9487,3.7645
		c4.1061-1.7178,8.3092-3.2684,12.5793-4.5181c15.8143-4.6281,32.0948-6.5324,48.4666-7.4067
		c4.889-0.2611,6.0892-2.3181,5.5719-6.4225c-2.3497-18.6411-4.4183-37.3267-7.265-55.8926
		c-1.8246-11.8994-6.0753-21.9565-20.0048-25.4338c-10.0635-2.5122-27.1002,0.1882-32.2958,7.8159
		C248.3018,385.5453,242.1728,402.9587,242.7852,422.6122z M389.5377,460.7316c0.4166-0.4359,0.6176-0.5454,0.6297-0.6729
		c2.0775-22.0012,6.8741-43.8336,0.2524-66.0768c-3.4041-11.4352-8.4985-20.8921-17.8394-28.3542
		c-9.4662-7.5624-32.2248-6.5433-37.6207,5.4502c-2.1925,4.8734-2.9953,10.429-4.0431,15.7504
		c-4.0312,20.4729-4.7357,41.1619-3.8003,62.4321C348.541,450.3933,369.5951,453.2321,389.5377,460.7316z M320.6863,496.3555
		c-5.8514-0.949-10.7221-1.9122-15.64-2.3998c-1.0669-0.1058-2.963,1.254-3.3628,2.3466
		c-6.4988,17.7594-12.5806,35.6743-19.2725,53.3589c-3.6436,9.6287-5.7208,17.8065-0.1752,28.4708
		c11.7659,22.6264,21.0842,46.5217,31.546,69.834c1.8063,4.0249,4.3024,7.7404,6.9045,12.3513
		C320.6863,604.7568,320.6863,550.4401,320.6863,496.3555z M325.9277,656.2576c0.566,0.0822,1.132,0.1642,1.6981,0.2462
		c0.5038-0.6007,1.2289-1.1223,1.4768-1.8147c2.1056-5.8792,3.9654-11.8506,6.2017-17.6781
		c4.7917-12.4861,10.0691-24.7938,14.5756-37.3794c4.299-12.006,7.8885-24.2668,11.7224-36.4369
		c0.2259-0.7172-0.0558-1.6484-0.2599-2.4391c-5.0114-19.4149-9.9723-38.8435-15.1071-58.2259
		c-2.2124-8.3512-0.6217-10.0007-10.9396-7.2213c-1.5684,0.4225-3.5042-0.1667-4.8843,0.5048
		c-1.4263,0.6938-3.3612,2.326-3.398,3.5963c-0.5917,20.4462-1.1065,40.8988-1.249,61.3527
		c-0.1551,22.2766,0.1007,44.556,0.1592,66.8341C325.9486,637.15,325.9277,646.7039,325.9277,656.2576z M274.0685,558.2943
		c1.3963-2.6545,2.191-3.8591,2.6952-5.175c2.667-6.9608,5.3615-13.9139,7.8575-20.9369
		c4.0557-11.4115,7.925-22.8892,11.9569-34.3093c1.476-4.1806-0.4574-5.5833-4.2534-6.3791
		c-10.6042-2.2231-20.7078-5.7543-29.7676-11.9451c-3.7846-2.586-7.8438-4.7703-12.8838-7.8025
		C256.1921,501.2772,264.085,529.22,274.0685,558.2943z M363.7351,552.9373c0.403,0.022,0.8059,0.0441,1.2089,0.0661
		c7.7985-24.741,15.5969-49.4819,23.5223-74.6257c-10.3008,4.0691-19.2314,7.6643-28.2223,11.1016
		c-2.2981,0.8785-4.7674,1.6557-7.1932,1.7775c-4.3347,0.2177-4.8373,2.2338-3.8204,5.8832
		c3.2528,11.6728,6.397,23.3766,9.4641,35.0997C360.4915,539.1082,362.0625,546.036,363.7351,552.9373z M488.634,258.975
		c3.1886,10.4673,6.243,20.4183,9.2412,30.3863c0.8239,2.7393,2.5538,2.6569,5.0207,2.4552
		c4.87-0.3981,9.7959-0.0631,14.6862-0.2946c1.3225-0.0626,3.414-0.7557,3.7735-1.6899c3.861-10.0353,7.4453-20.177,11.3107-30.857
		C517.5436,258.975,503.3305,258.975,488.634,258.975z M253.5289,468.3456c15.663,11.5794,33.5029,16.0411,52.9988,20.9429
		c-5.6926-11.77-6.6857-22.1068,0.2475-32.679C287.5325,457.2278,270.139,459.9634,253.5289,468.3456z M341.0604,487.4346
		c12.6307,1.1965,43.9758-12.349,46.7954-20.2808c-15.0527-8.9336-32.0605-8.7554-48.927-10.9402
		C344.276,469.059,344.7169,475.7175,341.0604,487.4346z M322.1818,455.7602c-11.2192-0.3569-16.2742,3.9877-16.7551,14.2781
		c-0.4652,9.9544,4.862,20.1609,15.1396,20.0461c14.6255-0.1635,19.1937-3.5258,19.7692-16.731
		C340.8754,460.9644,335.9577,456.1984,322.1818,455.7602z M409.1631,396.2928c-0.5326,0.0372-1.0651,0.0744-1.5977,0.1116
		c-2.0541,10.1-3.1353,20.1872-0.0599,30.2194c0.5526-0.0027,1.105-0.0054,1.6576-0.0081
		C409.1631,416.5081,409.1631,406.4005,409.1631,396.2928z M437.9397,205.5904c-1.0612,11.171-2.1223,22.342-3.1834,33.5131
		c0.4318,0.0425,0.8637,0.0849,1.2955,0.1274C439.9957,228.352,439.8214,217.0561,437.9397,205.5904z M446.3987,206.7168
		c0.8963,0.0778,1.7926,0.1555,2.6889,0.2332c0.9247-10.3665-0.0534-20.6541-2.6889-30.8762
		C446.3987,186.2881,446.3987,196.5024,446.3987,206.7168z M391.3541,505.0302c0.5439,0.0526,1.088,0.1051,1.6319,0.1577
		c1.0707-10.2628,2.1414-20.5255,3.2122-30.7882c-0.769-0.0725-1.538-0.145-2.307-0.2175
		C393.0454,484.4648,392.1998,494.7476,391.3541,505.0302z M203.2168,599.9609c0.7078-0.3669,1.4156-0.7338,2.1235-1.1008
		c-1.8148-4.9867-3.6295-9.9733-5.6468-15.5165c-2.0504,1.4674-3.1478,2.2527-4.4729,3.2012
		C198.0239,591.2483,200.6203,595.6046,203.2168,599.9609z M156.7912,558.4798c-0.4628,0.3533-0.9256,0.7066-1.3885,1.0599
		c3.1208,5.1533,6.2417,10.3067,9.3512,15.4413c3.6807-1.9316,3.9923-2.2307,1.9012-4.9875
		C163.6065,565.9741,160.1016,562.3007,156.7912,558.4798z M230.4376,489.3423c0.7841-0.0792,1.5682-0.1584,2.3524-0.2377
		c-0.8854-9.4874-1.7709-18.9749-2.6563-28.4622c-0.5992,0.0503-1.1983,0.1006-1.7975,0.1509
		C229.0367,470.3096,229.7371,479.826,230.4376,489.3423z M364.8903,264.8085c-0.4261,0.0244-0.8522,0.0488-1.2783,0.0732
		c0,5.9532,0,11.9065,0,17.8598c0.6354-0.0171,1.2707-0.0341,1.9061-0.0512C368.2469,276.6658,365.5195,270.76,364.8903,264.8085z
		 M253.6418,333.1846c3.9462-1.9872,3.8639-7.0109-0.871-18.4359C253.0505,320.6704,253.3303,326.592,253.6418,333.1846z
		 M210.9264,460.7039c5.7907-1.973,6.3153-7.9712,1.4583-15.2318C211.8532,451.0226,211.408,455.673,210.9264,460.7039z
		 M155.1591,537.5951c-0.5129,0.1285-1.0258,0.257-1.5387,0.3856c0.8955,3.3292,1.6142,6.7237,2.8053,9.9435
		c0.3155,0.8529,2.085,1.1679,3.1869,1.7299c0.2326-1.2537,1.0421-2.7906,0.5912-3.7086
		C158.7754,543.0376,156.8762,540.3611,155.1591,537.5951z M185.7677,451.2956c0.2092,0.0713,0.4183,0.1426,0.6275,0.2139
		c2.6279-6.4883,5.2558-12.9767,8.4776-20.9315c-2.1011,1.1425-3.9119,1.5183-4.1657,2.3624
		C188.8833,439.0055,187.3757,445.1656,185.7677,451.2956z M212.6577,274.1052c-0.2266-0.0048-0.4532-0.0097-0.6798-0.0145
		c0,7.5546,0,15.1091,0,22.6637c0.7005-0.0382,1.401-0.0764,2.1015-0.1146C213.6055,289.1282,213.1316,281.6168,212.6577,274.1052z
		 M374.2515,633.8521c-0.4579-0.3024-0.9157-0.6047-1.3735-0.907c-4.0834,5.0028-8.1669,10.0056-12.2502,15.0084
		c0.6141,0.4639,1.2283,0.9277,1.8424,1.3915C366.3972,644.1806,370.3244,639.0164,374.2515,633.8521z M205.1209,389.2206
		c0.4882-5.4174,3.8306-10.9342,0.0817-16.0858c-0.5393,4.9433-0.5508,9.8644-0.5194,14.7852
		C204.6859,388.3545,204.9683,388.7871,205.1209,389.2206z M88.5176,404.3481c-3.3992-2.681-6.3818-5.0334-10.3242-8.1429
		C82.1426,406.0236,83.6202,407.1578,88.5176,404.3481z M458.1321,537.5726c0.6903,0.0306,1.3806,0.0613,2.0709,0.092
		c0.4775-5.5893,0.9549-11.1786,1.4324-16.7679c-0.6163-0.0554-1.2327-0.1108-1.849-0.1662
		C459.235,526.3445,458.6835,531.9586,458.1321,537.5726z M283.9165,155.1623c-1.4095,1.1799-2.4321,2.0361-2.5031,2.0955
		c1.0855,5.5015,1.9376,9.8198,2.7896,14.1381c0.4631-0.0641,0.9262-0.1281,1.3893-0.1921
		C285.05,166.0127,284.5078,160.8216,283.9165,155.1623z M155.5335,446.7131c-0.4844,0.3494-0.9688,0.6987-1.4532,1.0481
		c3.0479,4.5121,4.8597,10.015,9.4023,13.3289c0.4145-0.3386,0.8289-0.6772,1.2434-1.0159
		C161.6618,455.6205,158.5976,451.1667,155.5335,446.7131z M296.2363,126.7554c0.4098-0.0111,0.8196-0.0222,1.2294-0.0334
		c0-5.8113,0-11.6227,0-17.434c-0.4098,0.002-0.8196,0.004-1.2294,0.006C296.2363,115.1145,296.2363,120.935,296.2363,126.7554z
		 M370.951,585.2788c4.1066-0.4692,6.3939-5.5634,4.8411-11.4749C374.2425,577.4771,372.6928,581.1502,370.951,585.2788z
		 M191.1067,540.7316c-0.4769,0.0756-0.9537,0.1511-1.4305,0.2266c-1.3452,4.0406-0.3781,7.6658,0.9205,11.2313
		c0.6995-0.1198,1.3989-0.2396,2.0984-0.3593C192.1657,548.1307,191.6362,544.4312,191.1067,540.7316z M215.678,571.0745
		c-0.6366,0.2006-1.2732,0.4011-1.9099,0.6017c1.6681,5.0101,3.3362,10.0201,5.0043,15.0302
		c0.4123-0.1288,0.8247-0.2575,1.237-0.3863C218.5656,581.2382,217.1218,576.1563,215.678,571.0745z M204.1813,467.5557
		c-0.6597,0.0232-1.3194,0.0463-1.9791,0.0695c0.2424,4.598,0.4849,9.196,0.7273,13.7941c0.4173-0.0206,0.8346-0.0412,1.2518-0.0618
		C204.1813,476.7568,204.1813,472.1562,204.1813,467.5557z M402.1122,459.0432c0.4848,0.0447,0.9696,0.0895,1.4544,0.1342
		c0-4.8471,0-9.6943,0-14.5414c-0.4848-0.0098-0.9696-0.0197-1.4544-0.0295C402.1122,449.4187,402.1122,454.2309,402.1122,459.0432z
		 M213.8954,300.9039c-0.4117,0.0212-0.8233,0.0424-1.235,0.0636c0,4.4648,0,8.9296,0,13.3945
		c0.7281-0.0392,1.4562-0.0785,2.1843-0.1177C214.5284,309.7974,214.2119,305.3506,213.8954,300.9039z M229.9786,317.7426
		c-0.6656,0.0287-1.3313,0.0575-1.9969,0.0863c0.3416,4.8217,0.6832,9.6433,1.0247,14.465
		c0.3241-0.0268,0.6481-0.0535,0.9722-0.0803C229.9786,327.3899,229.9786,322.5662,229.9786,317.7426z M220.9732,477.1238
		c-0.692,0.0532-1.3839,0.1065-2.0759,0.1597c0.6559,4.5897,1.3118,9.1794,1.9677,13.7692
		c0.6617-0.0934,1.3235-0.1869,1.9853-0.2803C222.2246,486.2229,221.5989,481.6734,220.9732,477.1238z M381.3402,637.6852
		c-0.4598-0.3734-0.9196-0.7468-1.3793-1.1202c-2.724,3.4795-5.4479,6.9589-8.1719,10.4384
		c0.5008,0.3906,1.0016,0.7814,1.5024,1.1721C375.9745,644.6786,378.6573,641.1819,381.3402,637.6852z M255.2337,599.9944
		c0.5635-0.2411,1.127-0.4823,1.6905-0.7234c-1.6662-4.1575-3.3323-8.315-4.9985-12.4725
		c-0.5504,0.2238-1.1009,0.4474-1.6514,0.6712C251.9274,591.6445,253.5806,595.8195,255.2337,599.9944z M208.3298,506.3279
		c-3.5491,4.5514-0.873,8.496,1.0228,12.5226C209.0116,514.6763,208.6707,510.5021,208.3298,506.3279z M246.1724,647.8442
		c0.4565-0.3423,0.9131-0.6846,1.3697-1.0269c-2.4947-4.307-4.9894-8.6141-7.484-12.9211
		c-0.4487,0.2575-0.8973,0.5151-1.3459,0.7726C241.1989,639.0607,243.6856,643.4525,246.1724,647.8442z M437.5814,169.6695
		c0.469-0.0767,0.938-0.1534,1.407-0.23c-0.353-5.8143-0.706-11.6285-1.059-17.4427c-0.4999,0.0331-0.9998,0.0663-1.4996,0.0994
		C436.8136,157.9539,437.1975,163.8117,437.5814,169.6695z M447.8411,160.0105c0.6451-0.0905,1.2903-0.1809,1.9355-0.2714
		c-0.5045-5.2107-1.0091-10.4213-1.5136-15.632c-0.5208,0.0535-1.0415,0.107-1.5623,0.1605
		C447.0808,149.5153,447.461,154.7629,447.8411,160.0105z M215.9827,554.6648c0.6163-0.207,1.2325-0.4139,1.8488-0.6209
		c-0.9203-3.7841-1.8407-7.5682-2.761-11.3524c-0.6673,0.1719-1.3346,0.3438-2.0019,0.5157
		C214.04,547.0264,215.0114,550.8456,215.9827,554.6648z M189.3295,425.3199c-0.4254-0.2839-0.8507-0.5677-1.2761-0.8517
		c-2.0923,3.0123-4.1845,6.0247-6.2768,9.037c0.7221,0.4693,1.4443,0.9385,2.1665,1.4078
		C185.7386,431.7153,187.534,428.5176,189.3295,425.3199z M451.1344,504.9815c-0.5016-0.0425-1.0032-0.085-1.5049-0.1276
		c-0.4451,4.7413-0.8903,9.4827-1.3354,14.2239c0.5165,0.0398,1.0331,0.0795,1.5497,0.1193
		C450.274,514.4586,450.7043,509.72,451.1344,504.9815z M204.3554,537.6098c0.1878,4.1365-2.4659,8.7977,2.721,11.9977
		C206.1694,545.6083,205.2624,541.609,204.3554,537.6098z M288.2756,108.3785c-0.6245-0.0748-1.2489-0.1496-1.8734-0.2244
		c-3.0945,3.6371,2.9758,7.1042,1.8734,10.7298C288.2756,115.3821,288.2756,111.8803,288.2756,108.3785z M195.1112,536.9803
		c0.4751-0.0723,0.9503-0.1445,1.4254-0.2168c-0.7812-5.2316-1.5624-10.4631-2.3436-15.6946
		c-0.4775,0.0787-0.9549,0.1575-1.4324,0.2361C193.5442,526.5301,194.3277,531.7552,195.1112,536.9803z M402.005,592.6608
		c0.5774,0.4654,1.1548,0.9308,1.7321,1.3962c1.6605-2.524,3.321-5.048,4.9814-7.572c-0.6726-0.4316-1.3452-0.8633-2.0178-1.2949
		C405.1356,587.6804,403.5703,590.1706,402.005,592.6608z M368.0567,234.4433c0.3862-3.1985,0.7725-6.3969,1.1586-9.5954
		c-0.5661-0.0663-1.1321-0.1327-1.6982-0.199C364.9743,227.5979,365.7073,230.9257,368.0567,234.4433z M383.7748,219.2601
		c-3.9559,0.958-4.1462,2.3989-1.5031,10.5624C382.7994,226.1144,383.2542,222.918,383.7748,219.2601z M246.0931,536.9537
		c-0.4937,0.1091-0.9874,0.2183-1.4811,0.3274c0.8073,3.936,1.6147,7.8719,2.422,11.8079c0.5766-0.1243,1.1533-0.2487,1.7299-0.373
		C247.8736,544.7952,246.9834,540.8744,246.0931,536.9537z M400.1845,324.7808c-0.4025,0.045-0.8049,0.0901-1.2074,0.1352
		c0,2.9288,0,5.8575,0,8.7863c0.6886-0.0454,1.3772-0.0908,2.0658-0.1362C400.7567,330.6376,400.4706,327.7092,400.1845,324.7808z"
		/>
	<path d="M62.7633,455.821c6.1402,7.4168,18.0482,4.9781,21.0101-4.0781c1.0113-3.092,1.3181-6.5789,1.174-9.8513
		c-0.3251-7.3829-4.1988-10.4156-13.5692-11.3403c-7.5064-0.7407-13.4659,2.1246-17.3699,8.3896
		c-3.9337,6.3127-4.6943,12.99-0.4563,19.7425c5.7091,9.0966,13.6274,13.7971,24.9499,13.7216
		c-1.2912,0.5404-2.5511,1.4534-3.8784,1.5648c-17.4331,1.4632-31.8393-15.259-28.6051-32.4857
		c3.0195-16.0833,21.7557-22.7585,35.2329-14.9281c6.6881,3.8859,10.068,11.5887,8.8549,19.2147
		c-1.3604,8.5521-3.9029,15.7383-13.4091,19.1305c-8.9749,3.2024-23.9048-6.8674-22.5452-16.3019
		c0.5728-3.9752,4.6533-9.259,8.6426-10.0406c4.217-0.8264,8.4137-0.6541,11.2159,3.3188c2.5646,3.636,1.1993,7.554-0.4471,10.8668
		C71.6982,456.4969,68.1304,457.9417,62.7633,455.821z M72.3025,446.9406c-2.2809-1.4283-3.9982-3.2419-4.8667-2.8999
		c-2.0604,0.8113-3.7184,2.6445-5.5389,4.0647c1.7727,1.2882,3.4696,3.4049,5.3444,3.5763
		C68.5129,451.7979,70.0343,449.1827,72.3025,446.9406z"/>
	<path d="M324.8338,721.2979c1.4308,10.1104,3.0026,20.2035,4.2474,30.3367c0.9917,8.0728,2.0142,16.1837,2.2194,24.298
		c0.1663,6.5729-3.8416,10.8142-8.9888,10.0692c-2.4104-0.3489-5.9093-2.1166-6.5486-4.0314
		c-1.696-5.0793-3.593-10.8396-2.7446-15.8802c2.5282-15.0219,6.3355-29.8284,9.643-44.7191
		C323.3857,721.3467,324.1097,721.3223,324.8338,721.2979z"/>
	<path d="M89.1363,494.2327c4.814,0.5828,9.0304,0.9335,13.177,1.675c1.6336,0.2921,3.1112,1.4569,4.6599,2.2244
		c-1.1498,1.4247-2.0086,3.4277-3.4981,4.1774c-7.8515,3.9514-15.8589,7.5936-23.8231,11.3198
		c-0.7483,0.3501-1.6458,0.8803-2.3473,0.7311c-1.6501-0.3511-3.2234-1.0627-4.8278-1.6285
		c0.9261-1.3704,1.5423-3.3207,2.8323-4.0099c5.3504-2.8583,10.9042-5.3358,17.7945-8.627
		c-5.3958-0.8776-9.3088-1.514-13.2218-2.1503c-0.3031-0.5713-0.6062-1.1426-0.9093-1.7139
		c3.6744-4.0126,7.3488-8.0251,11.7019-12.7789c-1.956,0.4355-3.4406,0.5787-4.7798,1.0975
		c-5.2523,2.0349-10.4238,4.2823-15.7043,6.2375c-1.498,0.5547-3.3965,0.8357-4.8645,0.4037
		c-1.1404-0.3356-2.3202-1.856-2.6638-3.0798c-0.2016-0.7179,1.0142-2.4819,1.9078-2.7593
		c9.3595-2.9044,18.7592-5.6899,28.2119-8.2734c1.5727-0.4299,4.7926-0.0861,4.9494,0.5078
		c0.5462,2.0696,0.8531,4.876-0.1615,6.5421C95.5373,487.4648,92.5719,490.2336,89.1363,494.2327z"/>
	<path d="M254.336,711.4861c2.581,5.5884,4.9944,10.6152,7.1904,15.7351c0.4441,1.0355,0.0657,2.4236,0.0665,3.6492
		c-1.357-0.1195-3.3324,0.2808-3.9531-0.4575c-1.7413-2.0714-2.9916-4.5756-4.3092-6.9781
		c-1.5638-2.8516-2.8772-5.8463-4.5427-8.6335c-0.6801-1.1382-1.9994-1.8945-3.0279-2.8246
		c-1.0435,1.3689-2.0608,2.7589-3.1364,4.1021c-1.8926,2.3635-3.6683,4.8563-5.8296,6.9469
		c-0.6272,0.6067-2.5892,0.3768-3.5719-0.1521c-0.5073-0.2732-0.6223-2.24-0.2106-3.1075
		c4.6898-9.8823,9.465-19.7258,14.4017-29.4865c0.3938-0.7786,2.5315-1.5443,3.2185-1.163
		c4.1348,2.2954,8.6742,4.3345,11.9445,7.5959c4.1564,4.1451,1.7567,11.2858-3.8306,13.438
		C257.3739,710.6789,255.9265,711.0108,254.336,711.4861z M246.5002,705.3782c6.5276,1.7665,10.3616,0.7543,11.0913-2.7126
		c0.9825-4.6677-1.993-6.8176-6.1416-8.5398C249.7792,697.9238,248.2173,701.4744,246.5002,705.3782z"/>
	<path d="M94.8087,543.0205c-2.6637-0.4684-5.2804-0.8579-7.8655-1.3989c-4.4664-0.9344-7.2144-3.396-8.2498-8.1332
		c-1.0988-5.0272,0.3875-8.9756,4.1222-11.9475c3.3571-2.6713,7.0535-5.0071,10.8516-7.0157
		c9.3842-4.9629,21.2731-0.2698,24.0256,9.9225c0.6919,2.5621-0.7896,7.0091-2.8367,8.7444
		c-4.3388,3.6779-9.6328,6.2793-14.7007,9.0151C98.6713,543.0084,96.629,542.7751,94.8087,543.0205z M90.4161,537.996
		c9.4388-0.2363,14.8262-4.76,19.7142-9.7658c2.6777-2.7421,2.1266-5.5933-1.6629-7.6216
		c-8.1112-4.3412-17.6327,0.5352-22.3874,6.6693c-1.3511,1.743-1.8734,5.4612-0.9132,7.3019
		C86.2017,536.5638,89.4222,537.4078,90.4161,537.996z"/>
	<path d="M199.9903,682.9191c3.9667-2.515,7.5125-4.762,11.0568-7.0112c1.1194-0.7103,2.1783-1.8746,3.3667-2.0244
		c1.4008-0.1765,2.912,0.5227,4.3753,0.8422c-0.319,1.4279-0.1837,3.3005-1.0535,4.1892c-1.7107,1.7477-4.0285,2.8849-6.0082,4.389
		c-4.2068,3.196-8.263,6.6008-12.5866,9.6262c-1.3943,0.9756-3.8625,1.882-5.0584,1.2767c-1.2791-0.6475-2.4655-3.2389-2.24-4.7676
		c0.6701-4.5437,2.0113-8.9932,3.1771-13.4569c0.5718-2.1895,1.3358-4.3289,2.0859-6.724
		c-7.9652,2.3047-10.5153,12.5737-19.2213,12.5247c-0.4703-0.5862-0.9406-1.1722-1.4109-1.7584
		c2.5317-2.569,4.942-5.2736,7.6231-7.6759c4.2005-3.764,8.5-7.4319,12.95-10.8932c1.0876-0.8459,3.3286-1.4352,4.3036-0.8711
		c1.0731,0.6208,1.9561,2.7948,1.7782,4.141C202.3573,670.5552,201.1689,676.3298,199.9903,682.9191z"/>
	<path d="M109.1129,564.7523c5.2221-1.0875,10.4663-2.08,15.6599-3.2899c4.9474-1.1526,6.2411-0.7617,8.0237,3.5801
		c-5.2797,1.4797-10.4597,3.0873-15.722,4.3529c-3.7017,0.8903-7.4973,1.6037-11.2856,1.8391
		c-2.2567,0.1403-4.5804-0.7968-6.8739-1.2495c0.6097-2.2469,0.6748-4.8791,1.9377-6.6637c3.022-4.2701,6.6077-8.1413,9.4261-13.118
		c-5.4474,1.6733-10.8561,3.4957-16.3671,4.9232c-1.5302,0.3964-3.3636-0.3785-5.058-0.6161
		c1.0932-1.3649,1.9235-3.4841,3.3224-3.9716c8.7666-3.0541,17.6459-5.791,26.5338-8.481c0.8605-0.2604,2.4471,0.2137,2.9437,0.8954
		c0.4734,0.6497,0.3477,2.2985-0.1804,3.0225c-3.027,4.1497-6.2648,8.1453-9.4044,12.2136
		c-1.2621,1.6355-2.4566,3.3232-3.6818,4.987C108.629,563.7017,108.8709,564.2271,109.1129,564.7523z"/>
	<path d="M135.8,568.7441c5.5526,4.2184,7.5626,14.3295,4.3258,21.3638c-5.6391,12.2549-25.0981,14.5873-33.1865,3.8966
		c-1.2686-1.6767-2.2965-3.7637-2.6716-5.8017c-0.2204-1.1974,0.6976-3.322,1.7381-3.9136
		c5.4352-3.0905,11.0798-5.8118,16.6397-8.6842C127.0545,573.3273,131.4463,571.0165,135.8,568.7441z M110.1495,589.9771
		c2.816,1.845,4.8115,4.1938,7.0081,4.4c7.1557,0.6716,14.2928-0.2395,17.8726-7.6374c1.8723-3.8691,2.7448-8.4154-0.4644-12.728
		C126.7547,579.1191,119.3165,583.9829,110.1495,589.9771z"/>
	<path d="M139.7197,622.8466c-2.5306-0.7095-6.4881-1.3983-10.0863-2.9307c-4.904-2.0886-6.348-6.622-6.1154-11.547
		c0.2162-4.5784,3.6332-6.4937,7.5672-7.4149c5.782-1.3539,11.5707-2.8591,17.4449-3.5833
		c4.7645-0.5875,11.6725,3.6489,12.6171,7.2675c1.3443,5.1496-0.65,9.1141-4.4247,12.8838
		C152.2173,622.0214,146.7463,622.2604,139.7197,622.8466z M140.9366,618.4955c3.9033-2.2014,8.2236-3.9085,11.5891-6.7476
		c3.1742-2.6776,2.0773-5.1198-1.4935-7.3689c-4.8833-3.0758-9.5473-2.15-14.1982,0.0773c-3.484,1.6685-8.1859,2.9724-6.919,8.2165
		C131.2283,618.1092,136.3093,616.7739,140.9366,618.4955z"/>
	<path d="M153.838,653.7001c-6.0439,0.1757-11.696-1.9489-16.3136-6.3755c-0.7429-0.712-0.7495-3.2656-0.0565-4.1802
		c1.4706-1.941,3.4918-3.5574,5.5256-4.9617c6.2673-4.3275,12.6336-8.5125,18.9869-12.7145
		c4.3271-2.8619,5.9711-2.4376,8.688,2.0322c3.9321,6.4692,1.7403,12.5215-1.4295,18.3633
		C166.0527,651.7354,160.7251,653.8931,153.838,653.7001z M143.6765,645.1523c7.155,4.0977,15.2958,3.5853,19.0549-1.1079
		c4.8419-6.045,5.7359-11.1338,2.8119-14.6064C158.2542,634.6762,150.9889,639.8973,143.6765,645.1523z"/>
	<path d="M270.5652,715.442c1.0629-2.5979,2.4698-7.8137,5.1955-12.2125c2.8894-4.6631,10.1694-5.5422,15.2577-2.8876
		c3.6088,1.8828,6.3109,9.1555,4.7907,14.2605c-1.0258,3.4446-2.6216,6.7825-4.3841,9.9321
		c-4.0433,7.2255-9.2559,7.5083-14.1491,6.3286C273.2246,729.8863,270.6616,724.5613,270.5652,715.442z M276.2437,717.8536
		c0.1006,0.6992,0.2465,2.5272,0.6411,4.2999c1.1429,5.1349,2.9716,5.7675,7.1049,2.559
		c4.5812-3.5562,7.1282-11.8987,4.7153-17.1096c-0.6555-1.4156-3.0276-2.8268-4.6396-2.8591
		C279.4989,704.6517,276.3079,709.8791,276.2437,717.8536z"/>
	<path d="M181.1462,641.8782c5.5903,3.2313,10.4877,7.0796,13.0835,13.854c-7.0516,1.0978-7.767-6.1875-12.9624-7.8961
		c-0.9409,0.9943-1.9996,2.4401-3.3639,3.4879c-3.0024,2.3062-2.3639,4.0959,0.1974,6.3184
		c1.6521,1.4336,2.7543,3.5007,4.103,5.2839c-0.5565,0.5961-1.1131,1.1921-1.6696,1.7882c-2.8114-1.8774-5.6228-3.755-9.103-6.0791
		c-1.2461,1.1414-2.9765,2.7264-5.0409,4.6174c2.2819,2.5593,4.3505,4.6613,6.1303,6.9844c0.7006,0.9144,0.7563,2.323,1.1056,3.5066
		c-1.1832,0.0497-2.7173,0.6029-3.4906,0.0643c-3.8821-2.7048-7.6826-5.5649-11.1913-8.7263
		c-0.5234-0.4716,0.2161-3.2242,1.1294-4.2401c2.4294-2.7021,5.2339-5.0759,7.9604-7.5002
		C172.2414,649.6008,176.5079,645.9269,181.1462,641.8782z"/>
	<path d="M227.8348,683.9901c-1.7331-2.8069-4.2913-5.5953-3.7858-6.3611c2.4654-3.7343,4.4745,0.1471,6.3956,1.2639
		c2.9989,1.7434,5.7953,3.9026,8.4335,6.1697c1.2491,1.0736,1.9333,2.8046,2.8734,4.2378
		c-0.4636,0.4905-0.9271,0.9811-1.3907,1.4717c-2.4631-1.2638-4.9263-2.5275-7.9943-4.1014
		c-1.7267,2.5638-3.577,5.6215-5.7371,8.4421c-2.9193,3.812-5.9039,7.6088-9.2326,11.0524
		c-1.0556,1.0922-3.3011,1.0344-5.0021,1.5029c0.2679-1.7917-0.0523-4.0286,0.9073-5.2969
		c3.7969-5.0177,8.0312-9.7024,12.0209-14.5779C226.4579,686.4063,227.3135,684.7906,227.8348,683.9901z"/>
	<path d="M321.4935,464.698c4.7112-0.0004,7.916,3.3096,7.6827,7.5188c-0.2062,3.7198-1.9092,6.3265-6.1243,6.3521
		c-4.3075,0.0261-6.7703-2.4349-6.6834-6.8307C316.4452,467.8591,317.7181,464.8885,321.4935,464.698z"/>
</g>
</svg>
