<?xml version="1.0" encoding="utf-8"?>
<!-- Generator: Adobe Illustrator 26.0.0, SVG Export Plug-In . SVG Version: 6.00 Build 0)  -->
<svg version="1.1" id="Livello_1" xmlns="http://www.w3.org/2000/svg" xmlns:xlink="http://www.w3.org/1999/xlink" x="0px" y="0px"
	 viewBox="0 0 841.9 841.9" style="enable-background:new 0 0 841.9 841.9;" xml:space="preserve">
<style type="text/css">
	.st0{clip-path:url(#SVGID_00000052811188888096863390000003638097458743764389_);fill:#010202;}
	.st1{clip-path:url(#SVGID_00000052811188888096863390000003638097458743764389_);}
	.st2{clip-path:url(#SVGID_00000101101583768432780960000005462187738761563828_);fill:#010202;}
	.st3{clip-path:url(#SVGID_00000108288525655742824580000005363104613965871026_);}
	.st4{clip-path:url(#SVGID_00000011728201671629239430000009940712412480175034_);fill:#010202;}
	.st5{clip-path:url(#SVGID_00000162313380143526002540000004857898810449722757_);}
	.st6{clip-path:url(#SVGID_00000144323107737247785610000007521047026340035753_);fill:#010202;}
	.st7{clip-path:url(#SVGID_00000010992888561251286050000004132379784307677335_);fill:#010202;}
	.st8{clip-path:url(#SVGID_00000010992888561251286050000004132379784307677335_);}
	.st9{clip-path:url(#SVGID_00000152982950521378564370000004083282092735941790_);fill:#010202;}
	.st10{clip-path:url(#SVGID_00000160188962893750506100000017215399319784938922_);}
	.st11{clip-path:url(#SVGID_00000013174898516152484400000014740427500686617249_);fill:#010202;}
</style>
<g>
	<g>
		<defs>
			<rect id="SVGID_00000093862748576806001870000006366270391952701868_" width="841.9" height="841.9"/>
		</defs>
		<clipPath id="SVGID_00000006678512013373721580000009869389769669193109_">
			<use xlink:href="#SVGID_00000093862748576806001870000006366270391952701868_"  style="overflow:visible;"/>
		</clipPath>
		<g style="clip-path:url(#SVGID_00000006678512013373721580000009869389769669193109_);">
			<defs>
				<rect id="SVGID_00000103227088776190597250000018399772132745705631_" width="841.9" height="841.9"/>
			</defs>
			<clipPath id="SVGID_00000071524787506708047680000003898317464479951238_">
				<use xlink:href="#SVGID_00000103227088776190597250000018399772132745705631_"  style="overflow:visible;"/>
			</clipPath>
			<polygon style="clip-path:url(#SVGID_00000071524787506708047680000003898317464479951238_);fill:#010202;" points="455.5,179.5 
				455.5,179.5 455.1,179.2 455.1,179.2 			"/>
			<polygon style="clip-path:url(#SVGID_00000071524787506708047680000003898317464479951238_);fill:#010202;" points="455.4,179.4 
				455.5,179.5 455.5,179.5 455.2,179.3 			"/>
			<path style="clip-path:url(#SVGID_00000071524787506708047680000003898317464479951238_);fill:#010202;" d="M420.9,41.9
				c-209.4,0-379.1,169.7-379.1,379.1S211.6,800,420.9,800S800,630.3,800,420.9S630.3,41.9,420.9,41.9 M571.6,327.7l56.8-42
				l9.4,12.7l-147.3,109l-9.4-12.7l75.4-55.7c-1.4,0.3-2.8,0.5-4.2,0.6c-0.5,0-0.9,0-1.4,0c-5.9,0-11.6-2.2-16-6.1
				c-9.9-8.8-10.8-24.1-1.9-34c4.3-4.8,10.2-7.6,16.6-8c6.4-0.4,12.6,1.8,17.4,6.1c4.8,4.3,7.6,10.2,8,16.6
				C575.1,319,574,323.6,571.6,327.7 M498.6,337.8c1.9-2.2,4.6-3.4,7.5-3.6c2.9-0.2,5.7,0.8,7.8,2.7c2.2,1.9,3.4,4.6,3.6,7.5
				s-0.8,5.7-2.7,7.8c-2.1,2.3-5,3.6-8.1,3.6c-2.7,0-5.2-1-7.2-2.8l0,0c-2.2-1.9-3.4-4.6-3.6-7.5
				C495.7,342.7,496.7,339.9,498.6,337.8 M572.9,236.2l-1.9,2.1L451.2,372.4l-11.8-10.5l121.7-136.2L572.9,236.2z M444,313.7
				c4-4.5,10.9-4.8,15.3-0.9c4.5,4,4.9,10.9,0.9,15.3l-0.4,0.4c-2,2-4.8,3.2-7.7,3.2c-2.7,0-5.2-1-7.2-2.8c-2.2-1.9-3.4-4.6-3.6-7.5
				C441.1,318.7,442.1,315.9,444,313.7 M517.6,255c-3.3,3.7-8,5.8-12.9,5.8c-4.3,0-8.3-1.6-11.5-4.4c-3.4-3.1-5.5-7.3-5.7-11.9
				c-0.3-4.6,1.3-9,4.4-12.5c3.1-3.4,7.3-5.5,11.9-5.7c4.6-0.3,9,1.3,12.5,4.4C523.3,237,523.9,247.9,517.6,255 M505.6,176.2
				L414,334.8l-13.7-7.9L492,168.3L505.6,176.2z M446.2,171.2c4.1-4.6,11.3-5,15.9-0.9c2.2,2,3.6,4.8,3.7,7.8c0.2,3-0.8,5.9-2.8,8.1
				c-2,2.2-4.8,3.6-7.8,3.7c-0.2,0-0.4,0-0.6,0c-2.8,0-5.4-1-7.5-2.9l0,0c-2.2-2-3.6-4.8-3.7-7.8
				C443.1,176.3,444.1,173.4,446.2,171.2 M406.3,186.5c4.5-5.1,12.3-5.5,17.3-1c2.4,2.2,3.9,5.2,4.1,8.5c0.2,3.3-0.9,6.4-3.1,8.9
				c-2.2,2.4-5.2,3.9-8.5,4.1c-0.2,0-0.5,0-0.7,0c-3,0-5.9-1.1-8.2-3.1c-2.4-2.2-3.9-5.2-4.1-8.5C403,192.1,404.1,189,406.3,186.5
				 M383.9,232.9c4.1-4.6,9.7-7.3,15.9-7.6c6.1-0.3,12,1.7,16.6,5.8c4.6,4.1,7.3,9.7,7.6,15.9c0.3,6.1-1.7,12-5.8,16.6
				c-4.1,4.6-9.7,7.3-15.9,7.6c-0.4,0-0.9,0-1.3,0c-5.6,0-11.1-2.1-15.3-5.8c-4.6-4.1-7.3-9.7-7.6-15.9
				C377.7,243.4,379.8,237.5,383.9,232.9 M224.9,646.7c-3.7,2.1-7.9,3.2-11.9,3.2c-5.5,0-10.8-2-14.9-5.7c-7.4-6.6-9.5-17-5.5-26.4
				l106.9-250.7l30.6-71.8l199.7,178.3L224.9,646.7z M569.4,429.6c-4.7,5.2-11.1,8.3-18.1,8.7c-0.5,0-1,0-1.5,0
				c-6.4,0-12.7-2.4-17.5-6.7c-5.2-4.7-8.3-11.1-8.7-18.1c-0.4-7,2-13.8,6.6-19c4.7-5.2,11.1-8.3,18.1-8.7c7-0.4,13.8,2,19,6.6
				c5.2,4.7,8.3,11.1,8.7,18.1C576.4,417.6,574,424.3,569.4,429.6 M615.7,405.9c-2.5,2.8-5.9,4.4-9.6,4.6c-0.3,0-0.5,0-0.8,0
				c-3.4,0-6.7-1.3-9.3-3.5c-5.7-5.1-6.2-13.9-1.1-19.7c2.5-2.8,5.9-4.4,9.6-4.6c3.7-0.2,7.3,1,10.1,3.5c2.8,2.5,4.4,5.9,4.6,9.6
				C619.5,399.6,618.2,403.2,615.7,405.9 M646.6,365.5c-3.4,3.8-8.1,6.1-13.2,6.4c-0.4,0-0.7,0-1.1,0c-4.7,0-9.2-1.7-12.7-4.9
				c-7.9-7-8.5-19.1-1.5-27c3.4-3.8,8.1-6.1,13.2-6.4c5.1-0.3,10,1.4,13.8,4.8c3.8,3.4,6.1,8.1,6.4,13.2
				C651.7,356.8,650,361.7,646.6,365.5"/>
			<polygon style="clip-path:url(#SVGID_00000071524787506708047680000003898317464479951238_);fill:#010202;" points="461.9,494 
				502.9,470.8 335.9,321.7 317.5,365 			"/>
		</g>
	</g>
</g>
</svg>
