<svg width="32" height="32" viewBox="0 0 32 32" fill="none" xmlns="http://www.w3.org/2000/svg">
<path d="M14.9805 5.95116H12.9575V7.95491H2.96287V12.0025H14.9604V13.9662H1V7.99499H3.02296V5.99123H13.0176V1.94364H1V0H12.9775V2.00376H14.9805V5.95116Z" fill="black" style="fill:black;fill-opacity:1;"/>
<path d="M31 11.9624H28.977V13.9662H19.0225V11.9424H17.0195V2.00376H19.0225V0H28.9971V2.00376H31V11.9624ZM28.9971 11.9624V4.00751H27.0342V5.99123H25.0513V7.99499H23.0484V9.99875H21.0254V11.9624H28.9971ZM26.9741 3.9474V2.00376H19.0225V9.95867H20.9653V7.95491H22.9682V5.95116H24.9712V3.9474H26.9741Z" fill="black" style="fill:black;fill-opacity:1;"/>
<path d="M14.9805 23.985H12.9575V25.9887H2.96287V30.0363H14.9604V32H1V26.0288H3.02296V24.025H13.0176V19.9775H1V18.0338H12.9775V20.0376H14.9805V23.985Z" fill="black" style="fill:black;fill-opacity:1;"/>
<path d="M31 32H29.0371V27.9925H19.0225V25.9887H17.0195V18.0338H18.9824V26.0288H29.0371V18.0338H31V32Z" fill="black" style="fill:black;fill-opacity:1;"/>
</svg>
