<svg width="48" height="49" viewBox="0 0 48 49" fill="none" xmlns="http://www.w3.org/2000/svg">
<path d="M37.1237 16.292L30.2228 0.835283L28.1136 2.06672L25.6517 0.484375L15.8058 8.57202L13.5197 4.70365L10.8828 14.06L13.3448 15.4292V25.8028L14.7931 27.7687L14.5753 30.1301L12.817 29.4953L10.8828 41.9791L14.5753 48.4844L20.2019 48.3085L21.2565 44.2642L27.4109 43.5605L34.1619 46.7112L33.0366 21.4067L37.1237 16.2911V16.292ZM28.9932 16.6671C28.4785 17.7366 27.5114 19.13 27.4705 19.1886L27.4658 19.1942C26.3777 20.6556 25.0346 23.1091 25.9207 27.5211C26.1338 28.5831 26.9371 30.078 27.5831 31.2796C28.1518 32.337 28.4748 32.9532 28.5157 33.3115C28.8359 36.0946 28.7373 40.0328 28.7363 40.0728L28.727 40.4312L28.4329 40.2813C28.4087 40.2692 27.8269 39.9695 27.234 39.4073C26.4317 38.6459 25.9989 37.7663 25.9812 36.8616C25.9747 36.5246 26.0929 36.089 26.2167 35.6273C26.3237 35.2299 26.4354 34.8185 26.4298 34.57C26.4159 33.8579 26.0082 33.6047 25.5363 33.3106C25.2347 33.1226 24.9219 32.9281 24.7088 32.6023C24.3802 32.1006 23.7678 30.6271 23.4196 29.7634C23.3545 30.3563 23.2679 30.9492 23.1618 31.5263C22.7942 33.5182 22.245 35.0512 21.5283 36.0844C19.8957 38.4383 17.7148 39.9546 16.9106 40.2431L16.3829 40.4321L16.6584 39.8997C16.6872 39.8438 19.5373 34.3308 20.1265 32.3882C20.3341 31.3783 20.012 30.8403 19.6704 30.2697C19.3875 29.7969 19.0952 29.3082 19.1222 28.5757C19.1436 28.0032 19.3642 27.441 19.5531 27.0147L19.5857 26.9421C19.9822 26.0495 20.6245 24.5649 20.3024 23.6955C17.5128 16.1664 19.152 16.1524 19.7775 16.0733C20.0949 16.0332 20.524 16.0547 20.9903 16.1319C21.6065 16.2334 22.2441 16.3386 22.5494 16.037C22.8519 15.7382 22.81 14.8446 22.729 14.0088C22.7048 13.7593 22.6797 13.5024 22.6657 13.2614C22.6443 12.9132 22.7579 12.5614 22.9673 12.3213C23.1683 12.0895 23.442 11.9722 23.7594 11.9815C24.127 11.9927 24.3309 12.0848 24.5133 12.3203C24.7283 12.5986 24.8279 12.9616 24.786 13.3153C24.7516 13.6076 24.7116 13.8794 24.6725 14.1428C24.5897 14.7004 24.5115 15.3901 24.6343 15.7847C24.6632 15.8769 24.7907 16.0491 25.0253 16.1459C25.2989 16.2594 25.7764 16.2985 26.4996 15.8415C26.9539 15.5539 27.3336 14.9926 27.6622 14.1233C28.2365 12.6042 27.9051 10.9977 27.5263 9.91795C27.1102 8.73212 26.5434 7.89627 26.5378 7.88789L25.714 6.47402L25.7624 6.51218C27.0004 7.49975 28.055 8.7135 28.8983 10.1199C28.902 10.1264 28.9104 10.1404 28.9178 10.1525C28.9467 9.93563 28.9569 8.37935 28.9569 7.32942V7.27357L28.9783 7.32383C28.9867 7.34431 29.8617 9.40601 29.9166 11.4054C29.9752 13.5369 29.6736 15.2579 28.9951 16.6662L28.9932 16.6671Z" fill="black" style="fill:black;fill-opacity:1;"/>
</svg>
