<svg width="48" height="48" viewBox="0 0 48 48" fill="none" xmlns="http://www.w3.org/2000/svg">
<path d="M32.0384 15.6413L27.8113 6.17344L26.5194 6.92774L25.0113 5.9585L18.9803 10.9125L17.5801 8.54297L15.9648 14.2741L17.4729 15.1128V21.467L18.36 22.6712L18.2266 24.1176L17.1496 23.7288L15.9648 31.3756L18.2266 35.3603L21.6731 35.2526L22.3191 32.7753L26.0889 32.3443L30.2242 34.2742L29.5349 18.7742L32.0384 15.6407V15.6413ZM27.0582 15.871C26.7429 16.5261 26.1505 17.3797 26.1254 17.4156L26.1226 17.419C25.4561 18.3141 24.6333 19.817 25.1761 22.5195C25.3067 23.1701 25.7987 24.0857 26.1944 24.8218C26.5428 25.4695 26.7406 25.8469 26.7657 26.0664C26.9618 27.7711 26.9014 30.1834 26.9008 30.2079L26.8951 30.4274L26.7149 30.3356C26.7001 30.3282 26.3438 30.1446 25.9806 29.8003C25.4891 29.3339 25.224 28.7951 25.2132 28.2409C25.2092 28.0345 25.2816 27.7677 25.3574 27.4849C25.423 27.2415 25.4914 26.9895 25.488 26.8372C25.4794 26.4011 25.2297 26.246 24.9406 26.0658C24.7559 25.9507 24.5644 25.8315 24.4338 25.6319C24.2325 25.3246 23.8574 24.4221 23.6441 23.893C23.6042 24.2562 23.5512 24.6194 23.4862 24.9729C23.261 26.193 22.9246 27.132 22.4856 27.7649C21.4856 29.2068 20.1497 30.1355 19.6571 30.3123L19.3338 30.428L19.5026 30.1019C19.5203 30.0677 21.2661 26.6907 21.627 25.5008C21.7541 24.8822 21.5568 24.5527 21.3476 24.2032C21.1743 23.9135 20.9952 23.6142 21.0118 23.1655C21.0249 22.8149 21.16 22.4705 21.2758 22.2094L21.2957 22.1649C21.5386 21.6181 21.932 20.7087 21.7347 20.1762C20.026 15.5643 21.03 15.5558 21.4132 15.5073C21.6076 15.4828 21.8704 15.4959 22.1561 15.5432C22.5335 15.6054 22.924 15.6698 23.1111 15.4851C23.2963 15.302 23.2707 14.7547 23.2211 14.2427C23.2063 14.0899 23.1909 13.9326 23.1823 13.7849C23.1692 13.5717 23.2388 13.3561 23.367 13.209C23.4902 13.0671 23.6578 12.9952 23.8522 13.0009C24.0774 13.0078 24.2023 13.0642 24.3141 13.2085C24.4458 13.3789 24.5068 13.6013 24.4811 13.818C24.46 13.997 24.4355 14.1635 24.4116 14.3248C24.3608 14.6663 24.3129 15.0888 24.3882 15.3306C24.4059 15.387 24.484 15.4925 24.6276 15.5518C24.7953 15.6213 25.0877 15.6453 25.5307 15.3653C25.809 15.1892 26.0416 14.8454 26.2429 14.3128C26.5946 13.3824 26.3917 12.3983 26.1596 11.7369C25.9048 11.0106 25.5575 10.4986 25.5541 10.4934L25.0495 9.62738L25.0792 9.65076C25.8375 10.2557 26.4835 10.9992 27 11.8606C27.0023 11.8646 27.0074 11.8732 27.012 11.8806C27.0297 11.7478 27.0359 10.7945 27.0359 10.1513V10.1171L27.049 10.1479C27.0542 10.1605 27.5901 11.4233 27.6238 12.648C27.6597 13.9536 27.4749 15.0078 27.0593 15.8705L27.0582 15.871Z" fill="black" style="fill:black;fill-opacity:1;"/>
<path d="M10.541 37.5454L12.1927 41.9618H11.1847L10.8506 40.9783H9.19888L8.85223 41.9618H7.875L9.54496 37.5454H10.541ZM10.5969 40.2547L10.0404 38.6344H10.0279L9.45259 40.2547H10.5969Z" fill="black" style="fill:black;fill-opacity:1;"/>
<path d="M13.1634 38.764V39.3575H13.1759C13.217 39.2583 13.2729 39.1671 13.343 39.0821C13.4131 38.9977 13.4935 38.9253 13.5842 38.8655C13.6748 38.8056 13.7717 38.7594 13.8749 38.7264C13.9781 38.6933 14.0853 38.6768 14.1965 38.6768C14.2541 38.6768 14.3179 38.687 14.3881 38.7075V39.524C14.347 39.516 14.2974 39.5086 14.2398 39.5023C14.1822 39.4961 14.1264 39.4932 14.0728 39.4932C13.912 39.4932 13.7757 39.52 13.6645 39.5736C13.5534 39.6272 13.4633 39.7002 13.3954 39.7931C13.3276 39.886 13.2791 39.9944 13.2501 40.1181C13.221 40.2418 13.2067 40.3758 13.2067 40.52V41.9614H12.3281V38.7634H13.1634V38.764Z" fill="black" style="fill:black;fill-opacity:1;"/>
<path d="M15.5393 37.5454V39.9144L16.6465 38.7638H17.6859L16.4795 39.9389L17.8216 41.9618H16.7577L15.8791 40.533L15.5388 40.8608V41.9618H14.6602V37.5454H15.5388H15.5393Z" fill="black" style="fill:black;fill-opacity:1;"/>
<path d="M18 38.2689V37.5454H18.8786V38.2689H18ZM18.8786 38.7638V41.9618H18V38.7638H18.8786Z" fill="black" style="fill:black;fill-opacity:1;"/>
<path d="M20.2715 38.764V39.1967H20.2841C20.3993 39.032 20.5389 38.9042 20.7014 38.813C20.8645 38.7224 21.0509 38.6768 21.2613 38.6768C21.4717 38.6768 21.6479 38.7161 21.8149 38.7942C21.982 38.8729 22.1085 39.0109 22.1952 39.2087C22.2899 39.0684 22.4187 38.9447 22.5818 38.8375C22.7448 38.7304 22.9375 38.6768 23.1599 38.6768C23.3287 38.6768 23.4854 38.6973 23.6303 38.7383C23.7745 38.7794 23.8982 38.8455 24.0014 38.9362C24.1046 39.0268 24.185 39.1454 24.2426 39.2919C24.3002 39.4385 24.3293 39.6146 24.3293 39.821V41.9614H23.4507V40.1489C23.4507 40.0417 23.4467 39.9408 23.4381 39.8456C23.4296 39.7509 23.4073 39.6682 23.3703 39.5981C23.3332 39.528 23.2785 39.4721 23.2061 39.4311C23.1337 39.39 23.0362 39.3695 22.9125 39.3695C22.7887 39.3695 22.689 39.3934 22.6126 39.4408C22.5362 39.4881 22.4763 39.5502 22.433 39.6266C22.3896 39.703 22.3606 39.7897 22.3463 39.8866C22.332 39.9835 22.3246 40.0816 22.3246 40.1802V41.9614H21.446V40.1677C21.446 40.073 21.4438 39.979 21.4398 39.886C21.4358 39.7931 21.4181 39.7076 21.3873 39.6295C21.3565 39.5514 21.3046 39.4881 21.2328 39.4408C21.1604 39.3934 21.0543 39.3695 20.9141 39.3695C20.873 39.3695 20.8183 39.3786 20.7499 39.3974C20.682 39.4162 20.6159 39.451 20.5521 39.5023C20.4882 39.5542 20.4335 39.6283 20.3878 39.7253C20.3422 39.8222 20.32 39.9488 20.32 40.1055V41.9614H19.4414V38.7634H20.2704L20.2715 38.764Z" fill="black" style="fill:black;fill-opacity:1;"/>
<path d="M24.9836 39.2342C25.0743 39.0979 25.19 38.989 25.3303 38.9064C25.4705 38.8237 25.6279 38.765 25.8035 38.7302C25.9785 38.6954 26.1547 38.6777 26.3326 38.6777C26.4934 38.6777 26.6564 38.6891 26.8212 38.7119C26.986 38.7347 27.1365 38.7792 27.2727 38.8448C27.409 38.9109 27.5202 39.0027 27.6069 39.1202C27.6935 39.2376 27.7368 39.3933 27.7368 39.5871V41.2508C27.7368 41.395 27.7448 41.5336 27.7614 41.6653C27.7779 41.7976 27.8064 41.8962 27.848 41.9623H26.9575C26.9409 41.9127 26.9272 41.8626 26.917 41.8107C26.9067 41.7594 26.8993 41.7063 26.8953 41.6528C26.7551 41.797 26.5903 41.8979 26.4004 41.9561C26.2106 42.0137 26.0167 42.0427 25.8189 42.0427C25.6661 42.0427 25.5241 42.0239 25.3918 41.9869C25.2596 41.9498 25.1444 41.8922 25.0458 41.8135C24.9466 41.7354 24.8696 41.6362 24.8137 41.5165C24.7578 41.3968 24.7305 41.2548 24.7305 41.0895C24.7305 40.9081 24.7624 40.7588 24.8263 40.6407C24.8901 40.5233 24.9728 40.4292 25.0737 40.3591C25.1746 40.289 25.2904 40.2365 25.4203 40.2012C25.5503 40.1664 25.6809 40.1384 25.8132 40.1179C25.9449 40.0974 26.0749 40.0809 26.2026 40.0683C26.3303 40.0558 26.4438 40.0375 26.543 40.0124C26.6422 39.9879 26.7203 39.9514 26.7779 39.9041C26.8354 39.8568 26.8622 39.7878 26.8583 39.6972C26.8583 39.6025 26.8429 39.5273 26.8121 39.4714C26.7813 39.4155 26.7397 39.3722 26.6883 39.3414C26.6365 39.3106 26.5772 39.2901 26.5088 39.2798C26.4409 39.2695 26.3674 39.2644 26.2892 39.2644C26.1159 39.2644 25.9802 39.3015 25.881 39.3756C25.7818 39.4497 25.7242 39.5734 25.7077 39.7468H24.8291C24.8416 39.5404 24.893 39.3693 24.9836 39.2336V39.2342ZM26.7186 40.4743C26.6627 40.4931 26.6028 40.5085 26.539 40.5204C26.4751 40.533 26.4078 40.5433 26.3377 40.5512C26.2676 40.5598 26.1975 40.57 26.1273 40.582C26.0612 40.5946 25.9962 40.6111 25.9323 40.6316C25.8685 40.6522 25.8126 40.6801 25.7653 40.7149C25.718 40.7496 25.6798 40.7941 25.6507 40.8477C25.6216 40.9013 25.6074 40.9692 25.6074 41.0518C25.6074 41.1345 25.6216 41.1961 25.6507 41.2497C25.6798 41.3033 25.7185 41.3454 25.7681 41.3762C25.8177 41.407 25.8753 41.4287 25.9415 41.4412C26.0076 41.4538 26.0754 41.46 26.1456 41.46C26.3189 41.46 26.4529 41.431 26.5475 41.3734C26.6422 41.3158 26.7123 41.2468 26.7579 41.1664C26.8029 41.086 26.8309 41.0045 26.8411 40.9218C26.8514 40.8392 26.8565 40.7736 26.8565 40.724V40.3962C26.8195 40.4292 26.7733 40.4549 26.7174 40.4737L26.7186 40.4743Z" fill="black" style="fill:black;fill-opacity:1;"/>
<path d="M29.0028 41.1671C29.0421 41.2349 29.0923 41.2908 29.1545 41.3341C29.2166 41.3775 29.2873 41.4094 29.3677 41.4299C29.4481 41.4504 29.5319 41.4607 29.618 41.4607C29.6796 41.4607 29.7446 41.4533 29.813 41.439C29.8808 41.4248 29.943 41.402 29.9983 41.3712C30.0541 41.3404 30.1003 41.2993 30.1374 41.2475C30.1744 41.1962 30.1933 41.1312 30.1933 41.0525C30.1933 40.9208 30.1055 40.8216 29.9304 40.7554C29.7554 40.6893 29.5108 40.6237 29.1972 40.5576C29.0695 40.5285 28.9446 40.4949 28.8232 40.4555C28.7018 40.4162 28.5934 40.3649 28.4982 40.301C28.4036 40.2372 28.3272 40.1568 28.2696 40.0598C28.212 39.9629 28.1829 39.8443 28.1829 39.7041C28.1829 39.4977 28.2234 39.3289 28.3038 39.1966C28.3842 39.0649 28.4902 38.9606 28.6225 38.8842C28.7542 38.8078 28.903 38.7542 29.0678 38.7234C29.2326 38.6926 29.4019 38.6772 29.5752 38.6772C29.7485 38.6772 29.9162 38.6938 30.0792 38.7268C30.2423 38.7599 30.3877 38.8158 30.5154 38.8939C30.6431 38.9726 30.7492 39.0763 30.8341 39.2063C30.9185 39.3363 30.9692 39.5 30.9858 39.6978H30.1505C30.138 39.529 30.0741 39.4144 29.9589 39.3546C29.8432 39.2947 29.7075 39.2651 29.5507 39.2651C29.5011 39.2651 29.4475 39.2679 29.3899 39.2742C29.3323 39.2805 29.2793 39.2936 29.232 39.3141C29.1847 39.3346 29.1442 39.3648 29.1111 39.4036C29.0781 39.443 29.0615 39.4954 29.0615 39.5615C29.0615 39.6402 29.0906 39.7035 29.1482 39.7531C29.2058 39.8027 29.281 39.8426 29.374 39.8734C29.4669 39.9042 29.5729 39.9321 29.6927 39.9567C29.8124 39.9812 29.9338 40.0085 30.0576 40.037C30.1853 40.0661 30.3101 40.1009 30.4316 40.1425C30.553 40.1836 30.6613 40.2383 30.7566 40.3062C30.8512 40.374 30.9276 40.459 30.9852 40.5599C31.0428 40.6608 31.0719 40.7856 31.0719 40.9339C31.0719 41.1443 31.0297 41.3204 30.9453 41.4624C30.8609 41.6049 30.7503 41.719 30.6146 41.8056C30.4789 41.8923 30.3227 41.9533 30.1476 41.9881C29.972 42.0229 29.7942 42.0405 29.6128 42.0405C29.4315 42.0405 29.2457 42.0217 29.0684 41.9847C28.891 41.9476 28.7331 41.8855 28.5951 41.7994C28.4572 41.7127 28.3437 41.5981 28.2548 41.4561C28.1658 41.3142 28.1174 41.1357 28.1094 40.9213H28.9446C28.9446 41.016 28.964 41.0975 29.0034 41.1659L29.0028 41.1671Z" fill="black" style="fill:black;fill-opacity:1;"/>
<path d="M33.1859 38.7638V39.3516H32.5428V40.9349C32.5428 41.0831 32.5673 41.1823 32.6169 41.2319C32.6665 41.2815 32.7651 41.306 32.914 41.306C32.9636 41.306 33.0109 41.3038 33.0565 41.2998C33.1015 41.2958 33.1449 41.2895 33.1865 41.2809V41.9611C33.1124 41.9737 33.0297 41.9817 32.939 41.9856C32.8484 41.9896 32.7594 41.9919 32.6728 41.9919C32.5365 41.9919 32.4077 41.9828 32.2862 41.964C32.1648 41.9452 32.0576 41.9092 31.9647 41.8557C31.8717 41.8021 31.7987 41.7257 31.7452 41.627C31.6916 41.5278 31.6648 41.3984 31.6648 41.2376V39.351H31.1328V38.7632H31.6648V37.8042H32.5434V38.7632H33.1865L33.1859 38.7638Z" fill="black" style="fill:black;fill-opacity:1;"/>
<path d="M34.2845 38.764V39.3575H34.297C34.3381 39.2583 34.3939 39.1671 34.4641 39.0821C34.5342 38.9977 34.6146 38.9253 34.7052 38.8655C34.7959 38.8056 34.8928 38.7594 34.996 38.7264C35.0992 38.6933 35.2064 38.6768 35.3176 38.6768C35.3752 38.6768 35.439 38.687 35.5092 38.7075V39.524C35.4681 39.516 35.4185 39.5086 35.3609 39.5023C35.3033 39.4961 35.2475 39.4932 35.1939 39.4932C35.0331 39.4932 34.8968 39.52 34.7856 39.5736C34.6745 39.6272 34.5844 39.7002 34.5165 39.7931C34.4487 39.886 34.4002 39.9944 34.3711 40.1181C34.3421 40.2418 34.3278 40.3758 34.3278 40.52V41.9614H33.4492V38.7634H34.2845V38.764Z" fill="black" style="fill:black;fill-opacity:1;"/>
<path d="M35.7266 38.2689V37.5454H36.6052V38.2689H35.7266ZM36.6052 38.7638V41.9618H35.7266V38.7638H36.6052Z" fill="black" style="fill:black;fill-opacity:1;"/>
<path d="M37.261 39.2342C37.3516 39.0979 37.4674 38.989 37.6076 38.9064C37.7479 38.8237 37.9052 38.765 38.0808 38.7302C38.2559 38.6954 38.432 38.6777 38.6099 38.6777C38.7707 38.6777 38.9338 38.6891 39.0985 38.7119C39.2633 38.7347 39.4138 38.7792 39.5501 38.8448C39.6864 38.9109 39.7975 39.0027 39.8842 39.1202C39.9709 39.2376 40.0142 39.3933 40.0142 39.5871V41.2508C40.0142 41.395 40.0222 41.5336 40.0387 41.6653C40.0552 41.7976 40.0838 41.8962 40.1254 41.9623H39.2348C39.2183 41.9127 39.2046 41.8626 39.1943 41.8107C39.1841 41.7594 39.1766 41.7063 39.1727 41.6528C39.0324 41.797 38.8676 41.8979 38.6778 41.9561C38.4879 42.0137 38.2941 42.0427 38.0962 42.0427C37.9434 42.0427 37.8015 42.0239 37.6692 41.9869C37.5369 41.9498 37.4217 41.8922 37.3231 41.8135C37.2239 41.7354 37.1469 41.6362 37.0911 41.5165C37.0352 41.3968 37.0078 41.2548 37.0078 41.0895C37.0078 40.9081 37.0397 40.7588 37.1036 40.6407C37.1675 40.5233 37.2501 40.4292 37.351 40.3591C37.452 40.289 37.5677 40.2365 37.6977 40.2012C37.8277 40.1664 37.9582 40.1384 38.0905 40.1179C38.2222 40.0974 38.3522 40.0809 38.4799 40.0683C38.6076 40.0558 38.7211 40.0375 38.8203 40.0124C38.9195 39.9879 38.9976 39.9514 39.0552 39.9041C39.1128 39.8568 39.1396 39.7878 39.1356 39.6972C39.1356 39.6025 39.1202 39.5273 39.0894 39.4714C39.0586 39.4155 39.017 39.3722 38.9657 39.3414C38.9138 39.3106 38.8545 39.2901 38.7861 39.2798C38.7182 39.2695 38.6447 39.2644 38.5666 39.2644C38.3933 39.2644 38.2576 39.3015 38.1584 39.3756C38.0592 39.4497 38.0016 39.5734 37.985 39.7468H37.1065C37.119 39.5404 37.1703 39.3693 37.261 39.2336V39.2342ZM38.9959 40.4743C38.94 40.4931 38.8802 40.5085 38.8163 40.5204C38.7525 40.533 38.6852 40.5433 38.6151 40.5512C38.5449 40.5598 38.4748 40.57 38.4047 40.582C38.3385 40.5946 38.2735 40.6111 38.2097 40.6316C38.1458 40.6522 38.09 40.6801 38.0426 40.7149C37.9953 40.7496 37.9571 40.7941 37.928 40.8477C37.899 40.9013 37.8847 40.9692 37.8847 41.0518C37.8847 41.1345 37.899 41.1961 37.928 41.2497C37.9571 41.3033 37.9959 41.3454 38.0455 41.3762C38.0951 41.407 38.1527 41.4287 38.2188 41.4412C38.2849 41.4538 38.3528 41.46 38.4229 41.46C38.5962 41.46 38.7302 41.431 38.8249 41.3734C38.9195 41.3158 38.9896 41.2468 39.0353 41.1664C39.0803 41.086 39.1082 41.0045 39.1185 40.9218C39.1288 40.8392 39.1339 40.7736 39.1339 40.724V40.3962C39.0968 40.4292 39.0506 40.4549 38.9948 40.4737L38.9959 40.4743Z" fill="black" style="fill:black;fill-opacity:1;"/>
</svg>
