<?xml version="1.0" encoding="utf-8"?>
<!-- Generator: Adobe Illustrator 26.0.0, SVG Export Plug-In . SVG Version: 6.00 Build 0)  -->
<svg version="1.1" id="Livello_1" xmlns="http://www.w3.org/2000/svg" xmlns:xlink="http://www.w3.org/1999/xlink" x="0px" y="0px"
	 viewBox="0 0 841.9 841.9" style="enable-background:new 0 0 841.9 841.9;" xml:space="preserve">
<style type="text/css">
	.st0{clip-path:url(#SVGID_00000088823126143247208610000008406336488459557055_);fill:#010202;}
	.st1{clip-path:url(#SVGID_00000088823126143247208610000008406336488459557055_);}
	.st2{clip-path:url(#SVGID_00000060748200066385482830000014474258480591158404_);fill:#010202;}
	.st3{clip-path:url(#SVGID_00000062167761653572814690000012598968901173702569_);}
	.st4{clip-path:url(#SVGID_00000071555965700568575580000018205889867362552718_);fill:#010202;}
	.st5{clip-path:url(#SVGID_00000033346081015219701960000004727562582401916335_);}
	.st6{clip-path:url(#SVGID_00000073720347374929186220000000529582209403685305_);fill:#010202;}
	.st7{clip-path:url(#SVGID_00000039107019703767149030000008726464769645897861_);fill:#010202;}
	.st8{clip-path:url(#SVGID_00000039107019703767149030000008726464769645897861_);}
	.st9{clip-path:url(#SVGID_00000068679088804012549420000012708175866423707786_);fill:#010202;}
	.st10{clip-path:url(#SVGID_00000109733425149535899610000011806224586401109437_);}
	.st11{clip-path:url(#SVGID_00000043420246288800971920000011721249804416253839_);fill:#010202;}
</style>
<g>
	<g>
		<defs>
			<rect id="SVGID_00000114036105608702907560000013230624013405987743_" width="841.9" height="841.9"/>
		</defs>
		<clipPath id="SVGID_00000162323755512795376700000016822674196734118043_">
			<use xlink:href="#SVGID_00000114036105608702907560000013230624013405987743_"  style="overflow:visible;"/>
		</clipPath>
		<g style="clip-path:url(#SVGID_00000162323755512795376700000016822674196734118043_);">
			<defs>
				<rect id="SVGID_00000028325944540171410510000008460219740264209832_" width="841.9" height="841.9"/>
			</defs>
			<clipPath id="SVGID_00000008856886802648619610000012394203090375037863_">
				<use xlink:href="#SVGID_00000028325944540171410510000008460219740264209832_"  style="overflow:visible;"/>
			</clipPath>
			<path style="clip-path:url(#SVGID_00000008856886802648619610000012394203090375037863_);fill:#010202;" d="M406.1,249.9
				c1.7-0.3,3.4-0.8,5-1.7c1.4-5.8,4.1-11.3,7.9-16c-1.2-7.4-7.7-13.1-15.3-13.1c-8.5,0-15.5,6.9-15.5,15.5c0,3.4,1,6.5,3,9.2
				C396.7,244.4,401.8,246.5,406.1,249.9"/>
			<path style="clip-path:url(#SVGID_00000008856886802648619610000012394203090375037863_);fill:#010202;" d="M374,273.9
				c0,8.1,6.3,14.7,14.1,14.7c1,0,2-0.1,3-0.3c0.3-4.2,1.5-8.3,3.5-12.1c1.6-3.1,3.7-6,6.3-8.5c-0.7-1.6-1.7-3-2.8-4.2
				c-2.6-2.8-6.2-4.3-9.9-4.3l-0.1-2.9l0,2.9l-0.2,0C380.2,259.3,374,265.9,374,273.9"/>
			<path style="clip-path:url(#SVGID_00000008856886802648619610000012394203090375037863_);fill:#010202;" d="M372,246.6
				c0.1,0.6,0.2,1.1,0.3,1.7c0.6-0.4,1.3-0.8,1.9-1.2c0.2-0.3,0.4-0.6,0.7-0.9c-1.5-3.7-2.3-7.6-2.3-11.6c0-7.6,2.8-14.8,7.8-20.5
				c-4.1-15.3-17.1-25.8-31.9-25.8c-15.5,0-29,12-32.4,28c4.6-1.6,9.5-2.5,14.6-2.5C351,213.8,368.4,227.6,372,246.6"/>
			<path style="clip-path:url(#SVGID_00000008856886802648619610000012394203090375037863_);fill:#010202;" d="M308.2,259.3
				c3.3,2.5,6.2,5.5,8.5,8.8c6.5-3.9,14.5-6.1,22.9-6.1c5.2,0,10.3,0.8,15,2.4c1.7-3.3,2.6-6.9,2.6-10.6c0-1.4-0.1-2.9-0.4-4.4
				c-2.3-11.7-13.2-20.2-26-20.2c-4.2,0-8.2,0.9-11.9,2.6l0,0c-5.6,2.6-10.1,7.1-12.5,12.5c-1.3,3-2,6.2-2,9.5
				c0,0.9,0.1,1.9,0.2,2.9C305.7,257.5,307,258.4,308.2,259.3"/>
			<path style="clip-path:url(#SVGID_00000008856886802648619610000012394203090375037863_);fill:#010202;" d="M353.9,281.1
				c-4.1-2.3-9.1-3.6-14.4-3.6c-9.1,0-17.2,3.7-20.8,9.4c-1.1,1.8-1.7,3.6-1.7,5.5h45C362,288.2,359.1,284,353.9,281.1"/>
			<path style="clip-path:url(#SVGID_00000008856886802648619610000012394203090375037863_);fill:#010202;" d="M468.1,285.6
				c0,0.9,0.1,1.7,0.2,2.6c0.3,1.6,0.8,3,1.6,4.3h23.7c1.2-2.1,1.9-4.4,1.9-6.9c0-7.1-5.5-13.1-12.6-13.7h0c-0.4,0-0.8,0-1.1,0
				C474.2,271.8,468.1,278,468.1,285.6"/>
			<path style="clip-path:url(#SVGID_00000008856886802648619610000012394203090375037863_);fill:#010202;" d="M448.9,263.5
				c3,2,5.6,4.4,7.7,7.1c4.3-7.2,11.5-12.3,19.8-13.9c-0.5-13.6-11.7-24.4-25.4-24.4c-7,0-13.5,2.8-18.4,7.8
				c-3.5,3.7-5.9,8.3-6.7,13.3v3.1l-0.3,0.3c0,0,0,0,0,0.1c0.6,0,1.2,0,1.8,0C435.1,256.9,442.6,259.2,448.9,263.5"/>
			<path style="clip-path:url(#SVGID_00000008856886802648619610000012394203090375037863_);fill:#010202;" d="M408.3,283.2
				c-1.2,2.4-1.8,4.9-1.8,7.5c0,0.4,0,0.7,0,1.1h41.6c0-0.4,0-0.7,0-1.1v0c0-5.6-2.9-10.9-8-14.4c-3.7-2.5-8.1-3.9-12.8-3.9
				c-2.2,0-4.4,0.3-6.5,0.9C415.3,275,410.7,278.6,408.3,283.2"/>
			<path style="clip-path:url(#SVGID_00000008856886802648619610000012394203090375037863_);fill:#010202;" d="M445.2,352.9h17.7
				l11.9,246h116.9l11.9-246h17.7v-5.1H445.2V352.9z M589.1,370.6l-10.7,214.6h-89.1l-10.7-214.6H589.1z"/>
			<polygon style="clip-path:url(#SVGID_00000008856886802648619610000012394203090375037863_);fill:#010202;" points="448.2,370.6 
				227.1,370.6 248.7,629.1 477.9,629.1 479.2,614.4 460.1,614.4 			"/>
			<path style="clip-path:url(#SVGID_00000008856886802648619610000012394203090375037863_);fill:#010202;" d="M420.9,41.9
				c-209.4,0-379.1,169.7-379.1,379.1S211.6,800,420.9,800S800,630.3,800,420.9S630.3,41.9,420.9,41.9 M636.9,368.4h-18.4l-11.9,246
				H494.8l-2.5,30.2H234.4L205,292.5h14.4c1.1-6.6,4.6-12.5,9.9-16.7c-1.1-3.8-1.6-7.8-1.6-11.8c0-24.2,19.7-43.9,43.9-43.9
				c9.5,0,18.7,3.1,26.3,8.7c0.6-0.7,1.3-1.5,1.9-2.1c0-0.9-0.1-1.7-0.1-2.4c0-28.4,21.9-51.6,48.8-51.6c20.1,0,38,12.9,45.3,32.4
				c3.1-1.1,6.4-1.6,9.8-1.6c12.2,0,23.1,7.1,28.1,18c5.8-3.1,12.4-4.7,19.1-4.7c22.6,0,41,18.4,41,41c0,0.1,0,0.2,0,0.3
				c11.4,4.2,19.1,15.2,19.1,27.5c0,2.3-0.3,4.7-0.8,6.9h11.4l-3.3,39.7h21.1l6.3-74l58.1-21.7l5.4,14.6l-48.9,18.3l-5.3,62.9h81.9
				V368.4z"/>
			<polygon style="clip-path:url(#SVGID_00000008856886802648619610000012394203090375037863_);fill:#010202;" points="429.7,332.2 
				502.8,332.2 504.8,308 221.9,308 224.3,337.1 429.7,337.1 			"/>
			<path style="clip-path:url(#SVGID_00000008856886802648619610000012394203090375037863_);fill:#010202;" d="M265.7,278
				c3.9,4,6.5,9,7.4,14.5h28.4c0-4.7,1.3-9.1,3.8-13.2c-1.6-3-3.8-5.5-6.4-7.6c-1.3-1-2.6-1.8-4.1-2.4c-0.4-0.2-0.8-0.4-1.2-0.5
				l-1.4,0.5l-0.6-1.1c-2.1-0.6-4.2-0.9-6.4-0.9C277.2,267.1,269.8,271.3,265.7,278"/>
			<path style="clip-path:url(#SVGID_00000008856886802648619610000012394203090375037863_);fill:#010202;" d="M246.3,269.8
				c2,0,3.9,0.2,5.8,0.6c7.4-12.6,21.8-20.2,36.7-18.7c0.2-3,0.7-6,1.6-9c-5.2-4.6-11.8-7.1-18.8-7.1c-15.7,0-28.4,12.7-28.4,28.4
				c0,2,0.2,4,0.6,5.9C244.6,269.9,245.4,269.8,246.3,269.8"/>
			<path style="clip-path:url(#SVGID_00000008856886802648619610000012394203090375037863_);fill:#010202;" d="M246.3,285.4
				c-1.6,0-3.1,0.3-4.6,0.9l0,0c-2.8,1.2-5,3.4-6.2,6.2H257C255.2,288.3,251.1,285.4,246.3,285.4"/>
		</g>
	</g>
</g>
</svg>
