<svg width="32" height="32" viewBox="0 0 32 32" fill="none" xmlns="http://www.w3.org/2000/svg">
<path d="M25.401 6.54707C24.1786 5.31231 22.7226 4.3333 21.1179 3.66714C19.5132 3.00098 17.7919 2.66102 16.0544 2.66707C8.77437 2.66707 2.84104 8.6004 2.84104 15.8804C2.84104 18.2137 3.45438 20.4804 4.60104 22.4804L2.73438 29.3337L9.73437 27.4937C11.6677 28.5471 13.841 29.1071 16.0544 29.1071C23.3344 29.1071 29.2677 23.1737 29.2677 15.8937C29.2677 12.3604 27.8944 9.0404 25.401 6.54707ZM16.0544 26.8671C14.081 26.8671 12.1477 26.3337 10.4544 25.3337L10.0544 25.0937L5.89437 26.1871L7.00104 22.1337L6.73438 21.7204C5.63804 19.9697 5.0559 17.9461 5.05437 15.8804C5.05437 9.82707 9.98771 4.89374 16.041 4.89374C18.9744 4.89374 21.7344 6.04041 23.801 8.12041C24.8244 9.13902 25.6353 10.3506 26.1869 11.685C26.7385 13.0193 27.0198 14.4499 27.0144 15.8937C27.041 21.9471 22.1077 26.8671 16.0544 26.8671ZM22.081 18.6537C21.7477 18.4937 20.121 17.6937 19.8277 17.5737C19.521 17.4671 19.3077 17.4137 19.081 17.7337C18.8544 18.0671 18.2277 18.8137 18.041 19.0271C17.8544 19.2537 17.6544 19.2804 17.321 19.1071C16.9877 18.9471 15.921 18.5871 14.6677 17.4671C13.681 16.5871 13.0277 15.5071 12.8277 15.1737C12.641 14.8404 12.801 14.6671 12.9744 14.4937C13.121 14.3471 13.3077 14.1071 13.4677 13.9204C13.6277 13.7337 13.6944 13.5871 13.801 13.3737C13.9077 13.1471 13.8544 12.9604 13.7744 12.8004C13.6944 12.6404 13.0277 11.0137 12.761 10.3471C12.4944 9.70707 12.2144 9.78707 12.0144 9.77374H11.3744C11.1477 9.77374 10.801 9.85374 10.4944 10.1871C10.201 10.5204 9.34771 11.3204 9.34771 12.9471C9.34771 14.5737 10.5344 16.1471 10.6944 16.3604C10.8544 16.5871 13.0277 19.9204 16.3344 21.3471C17.121 21.6937 17.7344 21.8937 18.2144 22.0404C19.001 22.2937 19.721 22.2537 20.2944 22.1737C20.9344 22.0804 22.2544 21.3737 22.521 20.6004C22.801 19.8271 22.801 19.1737 22.7077 19.0271C22.6144 18.8804 22.4144 18.8137 22.081 18.6537Z" fill="black" style="fill:black;fill-opacity:1;"/>
</svg>
