<?xml version="1.0" encoding="utf-8"?>
<!-- Generator: Adobe Illustrator 26.0.0, SVG Export Plug-In . SVG Version: 6.00 Build 0)  -->
<svg version="1.1" id="Livello_1" xmlns="http://www.w3.org/2000/svg" xmlns:xlink="http://www.w3.org/1999/xlink" x="0px" y="0px"
	 viewBox="0 0 841.9 841.9" style="enable-background:new 0 0 841.9 841.9;" xml:space="preserve">
<style type="text/css">
	.st0{clip-path:url(#SVGID_00000051368108581177215430000012484794930180842881_);fill:#010202;}
	.st1{clip-path:url(#SVGID_00000051368108581177215430000012484794930180842881_);}
	.st2{clip-path:url(#SVGID_00000160887832937581829250000015108251696704554660_);fill:#010202;}
	.st3{clip-path:url(#SVGID_00000084518207185867506260000007730521355873185693_);}
	.st4{clip-path:url(#SVGID_00000113335046995206890090000017029476394105440176_);fill:#010202;}
	.st5{clip-path:url(#SVGID_00000009560074767604311750000006307971815733335482_);}
	.st6{clip-path:url(#SVGID_00000077316166785820058810000007155791843867905679_);fill:#010202;}
	.st7{clip-path:url(#SVGID_00000003065926095492071650000010824264889848954034_);fill:#010202;}
	.st8{clip-path:url(#SVGID_00000003065926095492071650000010824264889848954034_);}
	.st9{clip-path:url(#SVGID_00000057841093331188033580000012210079091597153436_);fill:#010202;}
	.st10{clip-path:url(#SVGID_00000116932372577232995700000001359074339215235989_);}
	.st11{clip-path:url(#SVGID_00000009580481997663375960000011315720831082586512_);fill:#010202;}
</style>
<g>
	<g>
		<defs>
			<rect id="SVGID_00000046323272867858632270000015549518804413283507_" width="841.9" height="841.9"/>
		</defs>
		<clipPath id="SVGID_00000067225968369737293100000005911338581654067377_">
			<use xlink:href="#SVGID_00000046323272867858632270000015549518804413283507_"  style="overflow:visible;"/>
		</clipPath>
		<g style="clip-path:url(#SVGID_00000067225968369737293100000005911338581654067377_);">
			<defs>
				<rect id="SVGID_00000075164151626749237480000010869952903238429857_" width="841.9" height="841.9"/>
			</defs>
			<clipPath id="SVGID_00000008853836640485391340000017187609495342970517_">
				<use xlink:href="#SVGID_00000075164151626749237480000010869952903238429857_"  style="overflow:visible;"/>
			</clipPath>
			<path style="clip-path:url(#SVGID_00000008853836640485391340000017187609495342970517_);fill:#010202;" d="M420.9,41.9
				c-209.4,0-379.1,169.7-379.1,379.1S211.6,800,420.9,800S800,630.3,800,420.9S630.3,41.9,420.9,41.9 M474.3,234.6L474.3,234.6
				c-12.1-12.4-16-24.4-17-32.8l48.7,48.7l-79.5,79.5L407,310.3l67.3-67.3C476.6,240.6,476.6,236.9,474.3,234.6 M420.1,264.7
				l7.8,7.8l-15,15l-7.8-7.8L420.1,264.7z M627.4,399.1l-82.6-51.4c-0.9-0.6-2-0.9-3.1-0.9l0,0c-1.6,0-3.1,0.6-4.2,1.7l0,0
				l-46.1,46.1L471.7,375l79.5-79.5l89.9,89.9L627.4,399.1z M673.2,353.3L592.9,273c-1.4-1.4-3.8-3.8-7.4-2.2
				c-0.7,0.3-1.4,0.7-1.9,1.3h0L564,291.5l-8.7-8.7c-2.3-2.3-6.1-2.3-8.4,0L459,370.7c-2.3,2.3-2.3,6.1,0,8.4l8.7,8.7L426.6,429
				l-13.3-13.3c-2.3-2.3-6.1-2.2-8.4,0.1c-2.3,2.3-2.3,6-0.1,8.4v0l13.3,13.3l-11.4,11.4l-27.2-27.2c-2.3-2.3-6.1-2.2-8.4,0.1
				c-2.3,2.3-2.3,6-0.1,8.4l27.2,27.2l-11.4,11.4l-13.3-13.3c-2.3-2.3-6.1-2.3-8.4,0c-2.3,2.3-2.3,6.1,0,8.4l0,0l13.3,13.3
				l-11.4,11.4l-27.2-27.2c-2.3-2.3-6.1-2.3-8.4,0c-2.3,2.3-2.3,6.1,0,8.4h0l27.2,27.2l-11.4,11.4L333.9,495
				c-2.3-2.3-6.1-2.2-8.4,0.1s-2.3,6-0.1,8.4l13.3,13.3l-11.4,11.4L300.2,501c-1.1-1.1-2.6-1.8-4.2-1.8c-1.6,0-3.1,0.6-4.2,1.7
				c-1.1,1.1-1.7,2.6-1.7,4.2c0,1.6,0.6,3.1,1.8,4.2h0l27.2,27.2L307.6,548l-13.3-13.3c-1.1-1.1-2.6-1.8-4.2-1.8
				c-1.6,0-3.1,0.6-4.2,1.7c-1.1,1.1-1.7,2.6-1.7,4.2c0,1.6,0.6,3.1,1.8,4.2l13.3,13.3l-11.4,11.4l-27.2-27.2
				c-2.3-2.3-6.1-2.2-8.4,0.1c-2.3,2.3-2.3,6-0.1,8.4h0l27.2,27.2l-11.4,11.4l-13.3-13.3c-2.3-2.3-6.1-2.2-8.4,0.1
				c-2.3,2.3-2.3,6-0.1,8.4v0l13.3,13.3L248,607.5l-27.2-27.2c-2.3-2.3-6.1-2.3-8.4,0c-2.3,2.3-2.3,6.1,0,8.4l27.2,27.2l-11.4,11.4
				L214.9,614c-2.3-2.3-6.1-2.3-8.4,0s-2.3,6.1,0,8.4l13.3,13.3l-11.3,11.3L155,593.6l259.2-259.2l8.2,8.2c2.3,2.3,6.1,2.3,8.4,0h0
				l87.9-87.9c2.3-2.3,2.3-6.1,0-8.4h0l-8.2-8.2l19.5-19.5c2.3-2.3,2.3-6.1,0-8.4h0l-39.8-39.8c9.8,1.6,26.2,8.2,48.9,30.8
				c2.3,2.3,6.1,2.3,8.4,0l15.9-16l72.4,72.4l51.1,82L673.2,353.3z"/>
		</g>
	</g>
</g>
</svg>
